<svg width="21" height="20" viewBox="0 0 21 20" fill="none" xmlns="http://www.w3.org/2000/svg">
<path d="M17.8 2.46019C16.2 0.810195 13.51 0.250195 10.26 0.200195C7.00998 0.240195 4.31997 0.810195 2.71997 2.46019C1.06997 4.06019 0.509961 6.7502 0.459961 10.0002C0.499961 13.2502 1.06997 15.9402 2.71997 17.5402C4.31997 19.1902 7.00998 19.7502 10.26 19.8002C13.51 19.7602 16.2 19.1902 17.8 17.5402C19.45 15.9402 20.01 13.2502 20.06 10.0002C20.02 6.7502 19.45 4.06019 17.8 2.46019ZM15.04 10.1102C15.04 10.1102 15.04 10.1402 15.03 10.1602C15.03 10.1802 15.02 10.2002 15.01 10.2202C15.01 10.2402 14.99 10.2602 14.98 10.2802C14.98 10.2902 14.97 10.3102 14.96 10.3202C14.94 10.3502 14.91 10.3802 14.89 10.4102L10.67 14.6302C10.44 14.8602 10.08 14.8602 9.84998 14.6302C9.61998 14.4002 9.61998 14.0402 9.84998 13.8102L13.08 10.3302H6.03998C5.71998 10.5702 5.45996 10.3202 5.45996 10.0002C5.45996 9.6802 5.71998 9.4202 6.03998 9.3302H13.08L9.84998 6.1902C9.61998 5.9602 9.61998 5.6002 9.84998 5.3702C10.08 5.1402 10.44 5.1402 10.67 5.3702L14.89 9.5902C14.89 9.5902 14.94 9.6502 14.96 9.6802C14.96 9.7002 14.98 9.71019 14.99 9.7302C14.99 9.7502 15.01 9.7602 15.02 9.7802C15.02 9.8002 15.03 9.8202 15.04 9.8402C15.04 9.8602 15.05 9.87019 15.05 9.89019C15.06 9.96019 15.06 10.0402 15.05 10.1202L15.04 10.1102Z" fill="#F5F9F9"/>
</svg>
