<svg width="181" height="41" viewBox="0 0 181 41" fill="none" xmlns="http://www.w3.org/2000/svg">
<path fill-rule="evenodd" clip-rule="evenodd" d="M15.8941 28.8799C14.5339 28.8799 13.2351 28.3499 12.2738 27.4199C11.3125 26.4799 10.7807 25.2099 10.7807 23.8799V0.879883H0.553711V23.8799C0.553711 32.1599 7.42621 38.8799 15.8941 38.8799H27.1438V28.8799H15.8941ZM46.5033 11.1299C45.2966 11.1299 44.1 11.3598 42.9853 11.8198C41.8706 12.2698 40.8581 12.94 39.999 13.77C39.14 14.61 38.465 15.5999 38.0048 16.6899C37.5446 17.7799 37.2991 18.9499 37.2991 20.1299C37.2991 21.3099 37.5343 22.4798 38.0048 23.5698C38.465 24.6598 39.1502 25.6497 39.999 26.4897C40.8581 27.3297 41.8706 27.9899 42.9853 28.4399C44.1 28.8899 45.2966 29.1299 46.5033 29.1299C48.9476 29.1299 51.2896 28.1797 53.0077 26.4897C54.736 24.7997 55.7076 22.5099 55.7076 20.1299C55.7076 17.7499 54.736 15.45 53.0077 13.77C51.2793 12.08 48.9374 11.1299 46.5033 11.1299ZM27.0722 20.1299C27.0722 9.63988 35.7753 1.12988 46.5033 1.12988C57.2314 1.12988 65.9345 9.63988 65.9345 20.1299C65.9345 30.6199 57.2314 39.1299 46.5033 39.1299C35.7753 39.1299 27.0722 30.6199 27.0722 20.1299ZM156.954 11.1299C154.51 11.1299 152.168 12.08 150.45 13.77C148.722 15.46 147.75 17.7499 147.75 20.1299C147.75 22.5099 148.722 24.8097 150.45 26.4897C152.178 28.1797 154.52 29.1299 156.954 29.1299C159.388 29.1299 161.741 28.1797 163.459 26.4897C165.187 24.7997 166.159 22.5099 166.159 20.1299C166.159 17.7499 165.187 15.45 163.459 13.77C161.73 12.08 159.388 11.1299 156.954 11.1299ZM137.523 20.1299C137.523 9.63988 146.226 1.12988 156.954 1.12988C167.682 1.12988 176.385 9.63988 176.385 20.1299C176.385 30.6199 167.682 39.1299 156.954 39.1299C146.226 39.1299 137.523 30.6199 137.523 20.1299ZM87.4827 0.879883C76.1717 0.879883 67.1106 10.3399 68.1333 21.6099C69.0231 31.4799 77.7978 38.8799 87.9225 38.8799H116.118C118.133 38.8799 120.076 38.58 121.896 38.02L127.368 40.8799L133.269 30.0801C134.762 27.3301 135.549 24.2599 135.549 21.1499V19.8901C135.549 9.40014 126.846 0.890137 116.118 0.890137H87.4827V0.879883ZM125.322 19.8799C125.322 16.0399 122.817 12.4597 118.695 11.2197C117.857 10.9697 116.967 10.8799 116.087 10.8799H87.4929C86.2861 10.8799 85.0896 11.1098 83.9749 11.5698C82.8601 12.0198 81.8476 12.69 80.9886 13.52C80.1295 14.36 79.4546 15.3499 78.9943 16.4399C78.5341 17.5299 78.2887 18.6999 78.2887 19.8799C78.2887 21.0599 78.5239 22.2298 78.9943 23.3198C79.4546 24.4098 80.1397 25.3997 80.9886 26.2397C81.8476 27.0797 82.8601 27.7399 83.9749 28.1899C85.0896 28.6399 86.2861 28.8799 87.4929 28.8799H116.087C116.967 28.8799 117.846 28.7998 118.685 28.5498C122.786 27.3298 125.302 23.7697 125.333 19.9497V19.8799H125.322Z" fill="#333333"/>
<path d="M180.476 3.62988C180.476 4.28988 180.21 4.9299 179.729 5.3999C179.249 5.8699 178.594 6.12988 177.919 6.12988C177.244 6.12988 176.59 5.8699 176.109 5.3999C175.628 4.9299 175.362 4.29988 175.362 3.62988C175.362 2.95988 175.628 2.32986 176.109 1.85986C176.59 1.38986 177.244 1.12988 177.919 1.12988C178.594 1.12988 179.249 1.38986 179.729 1.85986C180.21 2.32986 180.476 2.95988 180.476 3.62988Z" fill="#333333"/>
</svg>
