<svg width="11" height="10" viewBox="0 0 11 10" fill="none" xmlns="http://www.w3.org/2000/svg">
<path d="M5.99002 0.310059L7.01001 3.46005C7.05001 3.57005 7.15002 3.65005 7.27002 3.65005H10.58C10.85 3.65005 10.96 3.99005 10.74 4.15005L8.06 6.10007C7.96 6.17007 7.92002 6.30006 7.96002 6.41006L8.98001 9.56006C9.06001 9.81006 8.77002 10.0301 8.55002 9.87006L5.87 7.92007C5.77 7.85007 5.64001 7.85007 5.54001 7.92007L2.86002 9.87006C2.64002 10.0301 2.35003 9.82006 2.43003 9.56006L3.45001 6.41006C3.49001 6.30006 3.45001 6.17007 3.35001 6.10007L0.670016 4.15005C0.450016 3.99005 0.560019 3.65005 0.830019 3.65005H4.14002C4.26002 3.65005 4.37 3.57005 4.4 3.46005L5.42002 0.310059C5.54002 0.0600586 5.90002 0.0600586 5.99002 0.310059Z" fill="#FFC529"/>
</svg>
