<!DOCTYPE svg PUBLIC "-//W3C//DTD SVG 1.1//EN" "http://www.w3.org/Graphics/SVG/1.1/DTD/svg11.dtd">
<!-- Uploaded to: SVG Repo, www.svgrepo.com, Transformed by: SVG Repo Mixer Tools -->
<svg height="101px" width="101px" version="1.1" id="Capa_1" xmlns="http://www.w3.org/2000/svg" xmlns:xlink="http://www.w3.org/1999/xlink" viewBox="-20.42 -20.42 245.09 245.09" xml:space="preserve" fill="#ffffff" stroke="#ffffff" stroke-width="0.00204249">
<g id="SVGRepo_bgCarrier" stroke-width="0"/>
<g id="SVGRepo_tracerCarrier" stroke-linecap="round" stroke-linejoin="round" stroke="#4341b9" stroke-width="8.578458"> <g> <g> <g> <path style="fill:#010002;" d="M170.951,191.642c-40.194,0-107.963-11.842-115.017-90.337H0l88.698-88.698l88.698,88.698h-58.221 c-1.174,8.779-2.881,34.174,12.848,53.704c13.9,17.25,37.947,26,71.466,26l0.759,7.938 C203.676,189.044,190.005,191.642,170.951,191.642z M19.319,93.295h44.074l0.24,3.751c4.259,67,53.89,84.45,98.318,86.401 c-15.375-4.778-27.486-12.63-36.211-23.484c-21.616-26.906-14.19-62.043-13.868-63.521l0.694-3.149h45.498L88.698,23.926 L19.319,93.295z"/> </g> </g> </g> </g>
<g id="SVGRepo_iconCarrier"> <g> <g> <g> <path style="fill:#010002;" d="M170.951,191.642c-40.194,0-107.963-11.842-115.017-90.337H0l88.698-88.698l88.698,88.698h-58.221 c-1.174,8.779-2.881,34.174,12.848,53.704c13.9,17.25,37.947,26,71.466,26l0.759,7.938 C203.676,189.044,190.005,191.642,170.951,191.642z M19.319,93.295h44.074l0.24,3.751c4.259,67,53.89,84.45,98.318,86.401 c-15.375-4.778-27.486-12.63-36.211-23.484c-21.616-26.906-14.19-62.043-13.868-63.521l0.694-3.149h45.498L88.698,23.926 L19.319,93.295z"/> </g> </g> </g> </g>
</svg>