<svg width="24" height="22" viewBox="0 0 24 22" fill="none" xmlns="http://www.w3.org/2000/svg">
<g clip-path="url(#clip0_5888_24742)">
<path d="M22.2857 0H1.70893C0.766071 0 0 0.712054 0 1.58616V20.4138C0 21.2879 0.766071 22 1.70893 22H22.2857C23.2286 22 24 21.2879 24 20.4138V1.58616C24 0.712054 23.2286 0 22.2857 0ZM7.25357 18.8571H3.69643V8.35804H7.25893V18.8571H7.25357ZM5.475 6.92411C4.33393 6.92411 3.4125 6.07455 3.4125 5.03348C3.4125 3.99241 4.33393 3.14286 5.475 3.14286C6.61071 3.14286 7.5375 3.99241 7.5375 5.03348C7.5375 6.07946 6.61607 6.92411 5.475 6.92411ZM20.5875 18.8571H17.0304V13.75C17.0304 12.5321 17.0036 10.9656 15.1821 10.9656C13.3286 10.9656 13.0446 12.2915 13.0446 13.6616V18.8571H9.4875V8.35804H12.9V9.79196H12.9482C13.425 8.96696 14.5875 8.09777 16.3179 8.09777C19.9179 8.09777 20.5875 10.2732 20.5875 13.1018V18.8571Z" fill="#686666"/>
</g>
<defs>
<clipPath id="clip0_5888_24742">
<rect width="24" height="22" fill="white"/>
</clipPath>
</defs>
</svg>
