<svg width="24" height="24" viewBox="0 0 24 24" fill="none" xmlns="http://www.w3.org/2000/svg">
<path d="M24 14.9014C24 19.1811 22.5225 21.8623 19.8638 21.8623C17.5163 21.8623 16.2712 20.2404 13.98 15.4592L12.8025 12.9936C12.4913 12.4076 12.2588 11.8592 12.0075 11.3529C11.2538 12.9373 10.2413 15.2436 10.2413 15.2436C7.72875 20.7092 6.31875 21.8623 4.3575 21.8623C1.62825 21.8623 0 19.1764 0 15.0232C0 8.32012 2.99175 1.9873 6.89625 1.9873C8.77875 1.9873 10.4138 3.14418 12.3263 6.18262C13.7175 3.83418 15.255 1.9873 17.2238 1.9873C20.94 1.9873 24 7.87949 24 14.9014ZM10.7775 9.00918C9.16875 6.09824 8.11875 5.23574 6.8625 5.23574C4.54125 5.23574 2.59575 10.2092 2.59575 15.0795C2.59575 17.3529 3.28875 18.6279 4.455 18.6279C5.5875 18.6279 6.2925 17.7373 8.325 13.7623C8.325 13.7623 9.25125 11.9295 10.7775 9.00918ZM19.92 18.6279C21.1275 18.6279 21.6787 17.3389 21.6787 15.117C21.6787 9.29512 19.6425 4.55043 17.0588 4.55043C15.8138 4.55043 14.7675 5.76543 13.5 8.20762C13.8525 8.85449 14.2163 9.56699 14.5988 10.3357L16.005 13.2607C18.2063 17.6717 18.7613 18.6279 19.92 18.6279Z" fill="#686666"/>
</svg>
