<svg width="34" height="32" viewBox="0 0 34 32" fill="none" xmlns="http://www.w3.org/2000/svg">
<path d="M28.3327 15.9997H14.8743M25.4993 19.9997L29.7493 15.9997L25.4993 11.9997M18.416 9.33301V7.99967C18.416 7.29243 18.1175 6.61415 17.5862 6.11406C17.0548 5.61396 16.3341 5.33301 15.5827 5.33301H8.49935C7.7479 5.33301 7.02723 5.61396 6.49588 6.11406C5.96453 6.61415 5.66602 7.29243 5.66602 7.99967V23.9997C5.66602 24.7069 5.96453 25.3852 6.49588 25.8853C7.02723 26.3854 7.7479 26.6663 8.49935 26.6663H15.5827C16.3341 26.6663 17.0548 26.3854 17.5862 25.8853C18.1175 25.3852 18.416 24.7069 18.416 23.9997V22.6663" stroke="white" stroke-width="2" stroke-linecap="round" stroke-linejoin="round"/>
</svg>
