<svg width="32" height="34" viewBox="0 0 32 34" fill="none" xmlns="http://www.w3.org/2000/svg">
<path d="M16.0287 5.87988C11.6154 5.87988 8.02874 9.46655 8.02874 13.8799V17.7332C8.02874 18.5465 7.68207 19.7865 7.26874 20.4799L5.7354 23.0265C4.78874 24.5999 5.44207 26.3465 7.1754 26.9332C12.9221 28.8532 19.1221 28.8532 24.8687 26.9332C26.4821 26.3999 27.1887 24.4932 26.3087 23.0265L24.7754 20.4799C24.3754 19.7865 24.0287 18.5465 24.0287 17.7332V13.8799C24.0287 9.47988 20.4287 5.87988 16.0287 5.87988Z" stroke="white" stroke-width="1.6" stroke-miterlimit="10" stroke-linecap="round"/>
<path d="M25.6008 12.35C28.666 12.35 31.1508 9.86518 31.1508 6.8C31.1508 3.73482 28.666 1.25 25.6008 1.25C22.5356 1.25 20.0508 3.73482 20.0508 6.8C20.0508 9.86518 22.5356 12.35 25.6008 12.35Z" fill="#F8444F" stroke="#F8444F" stroke-width="1.5"/>
<path d="M18.4958 6.26594C18.0825 6.14594 17.6558 6.0526 17.2158 5.99927C15.9358 5.83927 14.7092 5.9326 13.5625 6.26594C13.9492 5.27927 14.9092 4.58594 16.0292 4.58594C17.1492 4.58594 18.1092 5.27927 18.4958 6.26594Z" stroke="white" stroke-width="1.5" stroke-miterlimit="10" stroke-linecap="round" stroke-linejoin="round"/>
<path d="M20.0254 27.4141C20.0254 29.6141 18.2254 31.4141 16.0254 31.4141C14.9321 31.4141 13.9187 30.9607 13.1987 30.2407C12.4787 29.5207 12.0254 28.5074 12.0254 27.4141" stroke="white" stroke-width="1.6" stroke-miterlimit="10"/>
</svg>
