<svg width="24" height="24" viewBox="0 0 24 24" fill="none" xmlns="http://www.w3.org/2000/svg">
<g clip-path="url(#clip0_4590_15751)">
<path d="M10.9193 2.86795C11.0293 2.67911 11.1869 2.52242 11.3764 2.41352C11.5659 2.30462 11.7807 2.24731 11.9993 2.24731C12.2178 2.24731 12.4326 2.30462 12.6221 2.41352C12.8116 2.52242 12.9692 2.67911 13.0793 2.86795L15.8743 7.66595L21.3023 8.84195C21.5158 8.88835 21.7134 8.9899 21.8754 9.13648C22.0374 9.28307 22.1582 9.46956 22.2257 9.67737C22.2932 9.88519 22.305 10.1071 22.26 10.3209C22.215 10.5347 22.1148 10.733 21.9693 10.8959L18.2693 15.0369L18.8293 20.562C18.8513 20.7795 18.816 20.9991 18.7267 21.1987C18.6374 21.3983 18.4973 21.571 18.3204 21.6995C18.1435 21.828 17.9359 21.9079 17.7185 21.9312C17.5011 21.9544 17.2813 21.9202 17.0813 21.832L11.9993 19.5919L6.91725 21.832C6.71717 21.9202 6.49744 21.9544 6.28001 21.9312C6.06257 21.9079 5.85504 21.828 5.67812 21.6995C5.50121 21.571 5.36112 21.3983 5.27182 21.1987C5.18253 20.9991 5.14716 20.7795 5.16925 20.562L5.72925 15.0369L2.02925 10.8969C1.88348 10.734 1.78301 10.5356 1.73787 10.3217C1.69272 10.1077 1.70449 9.88568 1.772 9.6777C1.8395 9.46973 1.96038 9.2831 2.12256 9.13645C2.28474 8.98979 2.48256 8.88825 2.69625 8.84195L8.12425 7.66595L10.9193 2.86795Z" fill="#FFB302"/>
</g>
<defs>
<clipPath id="clip0_4590_15751">
<rect width="24" height="24" fill="white"/>
</clipPath>
</defs>
</svg>
