<svg width="32" height="32" viewBox="0 0 32 32" fill="none" xmlns="http://www.w3.org/2000/svg">
<path d="M0 29.5385H32V32H0V29.5385ZM26.7429 8.61539C27.6571 7.63077 27.6571 6.15385 26.7429 5.16923L22.6286 0.738462C21.7143 -0.246154 20.3429 -0.246154 19.4286 0.738462L2.28571 19.2V27.0769H9.6L26.7429 8.61539ZM21.0286 2.46154L25.1429 6.89231L21.7143 10.5846L17.6 6.15385L21.0286 2.46154ZM4.57143 24.6154V20.1846L16 7.87692L20.1143 12.3077L8.68571 24.6154H4.57143Z" fill="#6B7088"/>
<path d="M0 29.5385H32V32H0V29.5385ZM26.7429 8.61539C27.6571 7.63077 27.6571 6.15385 26.7429 5.16923L22.6286 0.738462C21.7143 -0.246154 20.3429 -0.246154 19.4286 0.738462L2.28571 19.2V27.0769H9.6L26.7429 8.61539ZM21.0286 2.46154L25.1429 6.89231L21.7143 10.5846L17.6 6.15385L21.0286 2.46154ZM4.57143 24.6154V20.1846L16 7.87692L20.1143 12.3077L8.68571 24.6154H4.57143Z" fill="#6B7088"/>
<path d="M0 29.5385H32V32H0V29.5385ZM26.7429 8.61539C27.6571 7.63077 27.6571 6.15385 26.7429 5.16923L22.6286 0.738462C21.7143 -0.246154 20.3429 -0.246154 19.4286 0.738462L2.28571 19.2V27.0769H9.6L26.7429 8.61539ZM21.0286 2.46154L25.1429 6.89231L21.7143 10.5846L17.6 6.15385L21.0286 2.46154ZM4.57143 24.6154V20.1846L16 7.87692L20.1143 12.3077L8.68571 24.6154H4.57143Z" fill="#6B7088"/>
</svg>
