<svg width="28" height="28" viewBox="0 0 28 28" fill="none" xmlns="http://www.w3.org/2000/svg">
<path d="M24.6139 4.8361L26.4734 2.79489C26.7674 2.4642 26.919 2.03119 26.8952 1.58975C26.8714 1.14831 26.6741 0.734029 26.3462 0.436712C26.0182 0.139396 25.586 -0.0169882 25.1433 0.00146589C24.7005 0.01992 24.2829 0.211724 23.9809 0.535295L22.1228 2.5737C19.326 0.605751 15.9046 -0.274763 12.5025 0.0978171C9.10036 0.470398 5.95197 2.07039 3.64969 4.59676C1.34741 7.12313 0.0499493 10.4017 0.00141257 13.8157C-0.0471241 17.2296 1.15661 20.5436 3.38615 23.1341L1.52665 25.1753C1.3748 25.338 1.25684 25.5292 1.1796 25.7377C1.10236 25.9463 1.06738 26.168 1.07668 26.3901C1.08598 26.6123 1.13939 26.8303 1.2338 27.0317C1.3282 27.2331 1.46174 27.4138 1.62666 27.5633C1.79159 27.7128 1.98462 27.8282 2.19457 27.9027C2.40452 27.9773 2.62722 28.0095 2.84975 27.9976C3.07229 27.9856 3.29023 27.9297 3.49095 27.8332C3.69167 27.7366 3.87118 27.6012 4.01908 27.4349L5.87717 25.3965C8.67402 27.3644 12.0954 28.245 15.4975 27.8724C18.8996 27.4998 22.048 25.8998 24.3503 23.3734C26.6526 20.8471 27.9501 17.5685 27.9986 14.1545C28.0471 10.7406 26.8434 7.42658 24.6139 4.8361ZM3.33422 13.9851C3.3326 12.0669 3.85122 10.184 4.83512 8.53598C5.81903 6.88794 7.23155 5.53614 8.923 4.62387C10.6145 3.71159 12.5218 3.27282 14.4429 3.35405C16.364 3.43529 18.2273 4.0335 19.8353 5.0853L5.67368 20.6253C4.15735 18.7429 3.33186 16.3999 3.33422 13.9851ZM14 24.6251C11.9261 24.6271 9.89723 24.022 8.1647 22.8849L22.3263 7.34489C23.5828 8.90889 24.3704 10.7953 24.5985 12.7866C24.8266 14.7779 24.4857 16.793 23.6153 18.5994C22.7449 20.4058 21.3804 21.93 19.6791 22.9961C17.9778 24.0623 16.0091 24.627 14 24.6251Z" fill="#6B7088"/>
</svg>
