<svg width="12" height="12" viewBox="0 0 12 12" fill="none" xmlns="http://www.w3.org/2000/svg">
<path d="M4.28516 7.63498L7.55515 4.36499" stroke="#6B7088" stroke-width="1.5" stroke-linecap="round" stroke-linejoin="round"/>
<path d="M4.49001 5.18507C4.82966 5.18507 5.105 4.90974 5.105 4.57008C5.105 4.23043 4.82966 3.95508 4.49001 3.95508C4.15035 3.95508 3.875 4.23043 3.875 4.57008C3.875 4.90974 4.15035 5.18507 4.49001 5.18507Z" stroke="#6B7088" stroke-width="1.5" stroke-linecap="round" stroke-linejoin="round"/>
<path d="M7.75952 8.04494C8.09918 8.04494 8.37453 7.76959 8.37453 7.42993C8.37453 7.09028 8.09918 6.81494 7.75952 6.81494C7.41987 6.81494 7.14453 7.09028 7.14453 7.42993C7.14453 7.76959 7.41987 8.04494 7.75952 8.04494Z" stroke="#6B7088" stroke-width="1.5" stroke-linecap="round" stroke-linejoin="round"/>
<path d="M6 11C8.76142 11 11 8.76142 11 6C11 3.23858 8.76142 1 6 1C3.23858 1 1 3.23858 1 6C1 8.76142 3.23858 11 6 11Z" stroke="#6B7088" stroke-width="1.5" stroke-linecap="round" stroke-linejoin="round"/>
</svg>
