<svg width="100" height="100" viewBox="0 0 100 100" fill="none" xmlns="http://www.w3.org/2000/svg">
<g clip-path="url(#clip0_878_2459)">
<circle cx="50" cy="50" r="50" fill="#F14C50" fill-opacity="0.36"/>
<path d="M65.5417 12.5H34.4583L12.5 34.4583V65.5417L34.4583 87.5H65.5417L87.5 65.5417V34.4583L65.5417 12.5ZM79.1667 62.0833L62.0833 79.1667H37.9167L20.8333 62.0833V37.9167L37.9167 20.8333H62.0833L79.1667 37.9167V62.0833Z" fill="#EF494D"/>
<path d="M49.9987 70.8333C52.2999 70.8333 54.1654 68.9679 54.1654 66.6667C54.1654 64.3655 52.2999 62.5 49.9987 62.5C47.6975 62.5 45.832 64.3655 45.832 66.6667C45.832 68.9679 47.6975 70.8333 49.9987 70.8333Z" fill="#EF494D"/>
<path d="M45.832 29.1665H54.1654V58.3332H45.832V29.1665Z" fill="#EF494D"/>
</g>
<defs>
<clipPath id="clip0_878_2459">
<rect width="100" height="100" fill="white"/>
</clipPath>
</defs>
</svg>
