<svg width="23" height="42" viewBox="0 0 23 42" fill="none" xmlns="http://www.w3.org/2000/svg">
<path d="M21.514 3.68112C21.7019 3.48222 21.8489 3.24825 21.9464 2.99256C22.044 2.73688 22.0902 2.46449 22.0824 2.19094C22.0747 1.9174 22.0131 1.64805 21.9013 1.39829C21.7895 1.14853 21.6296 0.923239 21.4307 0.735285C21.2318 0.54733 20.9978 0.400392 20.7421 0.30286C20.4864 0.205327 20.214 0.159111 19.9405 0.166849C19.6669 0.174587 19.3976 0.236128 19.1478 0.347959C18.8981 0.45979 18.6728 0.61972 18.4848 0.818618L0.776495 19.5686C0.410794 19.9554 0.207031 20.4676 0.207031 20.9999C0.207031 21.5322 0.410794 22.0443 0.776495 22.4311L18.4848 41.1832C18.6715 41.3865 18.8968 41.5506 19.1475 41.666C19.3981 41.7815 19.6693 41.846 19.9451 41.8558C20.2209 41.8656 20.4959 41.8205 20.7542 41.7231C21.0124 41.6257 21.2487 41.478 21.4494 41.2885C21.6501 41.099 21.8111 40.8716 21.9231 40.6193C22.0351 40.3671 22.0959 40.0951 22.1019 39.8192C22.1079 39.5432 22.059 39.2689 21.9581 39.012C21.8572 38.7551 21.7062 38.5208 21.514 38.3228L5.15566 20.9999L21.514 3.68112Z" fill="#002C3D"/>
</svg>
