<svg width="32" height="32" viewBox="0 0 32 32" fill="none" xmlns="http://www.w3.org/2000/svg">
<path d="M16.0287 3.87939C11.6154 3.87939 8.02874 7.46606 8.02874 11.8794V15.7327C8.02874 16.5461 7.68207 17.7861 7.26874 18.4794L5.7354 21.0261C4.78874 22.5994 5.44207 24.3461 7.1754 24.9327C12.9221 26.8527 19.1221 26.8527 24.8687 24.9327C26.4821 24.3994 27.1887 22.4927 26.3087 21.0261L24.7754 18.4794C24.3754 17.7861 24.0287 16.5461 24.0287 15.7327V11.8794C24.0287 7.47939 20.4287 3.87939 16.0287 3.87939Z" stroke="#0A0A0A" stroke-width="1.6" stroke-miterlimit="10" stroke-linecap="round"/>
<path d="M18.4958 4.26643C18.0825 4.14643 17.6558 4.05309 17.2158 3.99976C15.9358 3.83976 14.7092 3.93309 13.5625 4.26643C13.9492 3.27976 14.9092 2.58643 16.0292 2.58643C17.1492 2.58643 18.1092 3.27976 18.4958 4.26643Z" stroke="#0A0A0A" stroke-width="1.5" stroke-miterlimit="10" stroke-linecap="round" stroke-linejoin="round"/>
<path d="M20.0234 25.4136C20.0234 27.6136 18.2234 29.4136 16.0234 29.4136C14.9301 29.4136 13.9168 28.9602 13.1968 28.2402C12.4768 27.5202 12.0234 26.5069 12.0234 25.4136" stroke="#0A0A0A" stroke-width="1.6" stroke-miterlimit="10"/>
</svg>
