<svg width="496" height="423" viewBox="0 0 496 423" fill="none" xmlns="http://www.w3.org/2000/svg">
<path d="M457.64 313.652C454.491 364.701 405.278 410.962 344.953 420.913C284.628 430.863 218.606 404.396 189.212 359.496C185.968 354.542 183.079 349.345 180.191 344.148C172.734 330.733 165.28 317.322 151.724 308.094C136.247 297.557 116.341 294.739 96.2354 291.893C83.4681 290.086 70.6199 288.267 58.7734 284.453C30.2154 275.259 8.04165 253.477 1.86043 228.547C-8.15628 188.148 23.5718 146.901 65.8824 125.342C108.193 103.783 159.035 97.7785 208.351 93.1519C227.216 91.382 242.54 79.5662 253.485 66.6732C257.722 61.6819 261.534 56.4371 265.344 51.1962C271.374 42.8993 277.398 34.6122 285.089 27.3558C317.656 -3.37045 378.303 -8.55538 419.784 13.5386C461.265 35.6326 481.119 81.0643 470.088 120.973C468.188 127.847 465.491 134.54 462.794 141.233L462.794 141.234C460.212 147.641 457.63 154.049 455.747 160.616C451.722 174.653 450.953 189.179 450.495 203.604C449.949 220.803 449.82 238.047 451.758 255.176C452.432 261.134 453.356 267.086 454.28 273.036C456.38 286.556 458.478 300.07 457.64 313.652Z" fill="#FAEBD3" fill-opacity="0.5"/>
<path d="M208.282 80.9593C230.838 71.633 248.791 55.4361 260.096 36.724C261.578 34.2705 262.983 31.6637 262.931 28.9187C262.879 26.1736 260.957 23.266 257.762 22.5688C253.184 21.5697 249.246 25.2184 246.391 28.3565C226.777 49.9142 198.229 66.838 166.015 70.5289C153.642 71.9464 141.081 71.414 128.608 70.8788L109.126 70.0428C93.4353 69.3695 77.5263 68.7096 62.1671 71.4615C46.808 74.2134 31.8002 80.8317 23.3645 91.8487C20.6794 95.3554 18.6682 99.4878 19.4111 103.598C20.1725 107.811 23.775 111.386 28.1144 113.652C32.4539 115.918 37.4953 117.052 42.4916 118C46.1497 118.695 49.8859 119.31 53.6289 119.091C59.7484 118.733 65.3017 116.204 70.7052 113.743C71.0651 113.579 71.4244 113.415 71.7832 113.253C81.2272 108.971 91.0131 105.168 101.22 102.342C116.104 98.2216 131.754 96.2052 147.366 94.1937C168.398 91.4839 189.36 88.7831 208.282 80.9593Z" fill="#FAEBD3" fill-opacity="0.5"/>
<path d="M90.9836 329.417L90.9969 329.417C91.9161 329.448 92.8349 329.479 93.7513 329.518C108.245 330.145 122.589 333.098 135.759 338.168C140.78 340.101 145.866 342.52 148.686 346.477C152.175 351.373 156.364 355.925 161.136 360.006C162.988 361.589 164.992 363.137 167.464 363.946C169.936 364.755 172.988 364.681 174.993 363.233C177.429 361.474 177.587 358.352 176.836 355.743C175.606 351.468 172.538 347.743 169.501 344.145C159.535 332.337 149.043 320.532 135.175 311.862C121.306 303.192 103.409 297.943 86.4333 300.938C80.572 301.972 74.7629 304.079 70.8769 307.87C66.9909 311.661 65.4552 317.366 68.254 321.769C70.4743 325.262 74.9755 327.412 79.5839 328.381C83.2981 329.161 87.1446 329.289 90.9828 329.417H90.9836Z" fill="#FAEBD3" fill-opacity="0.5"/>
<path d="M483.034 151.823C479.16 150.609 474.772 152.076 471.492 154.177C465.015 158.327 461.183 164.819 459.439 171.461C457.695 178.102 457.836 184.972 457.985 191.768L459.266 250.165C459.36 254.431 459.588 259.029 462.744 262.395C463.732 263.448 465.084 264.372 466.683 264.508C468.62 264.672 470.412 263.655 471.811 262.53C479.461 256.373 480.466 246.675 481.382 237.836L481.415 237.515C482.761 224.539 485.091 211.634 488.387 198.902C489.314 195.322 490.332 191.719 492.271 188.43C498.349 178.119 496.896 165.031 488.649 155.82C487.157 154.154 485.373 152.556 483.034 151.823Z" fill="#FAEBD3" fill-opacity="0.5"/>
</svg>
