<svg width="32" height="32" viewBox="0 0 32 32" fill="none" xmlns="http://www.w3.org/2000/svg">
<path d="M14.8013 30.3332H9.2013C3.98797 30.3332 1.66797 28.0132 1.66797 22.7998V17.1998C1.66797 11.9865 3.98797 9.6665 9.2013 9.6665H14.8013C20.0146 9.6665 22.3346 11.9865 22.3346 17.1998V22.7998C22.3346 28.0132 20.0146 30.3332 14.8013 30.3332ZM9.2013 11.6665C5.06797 11.6665 3.66797 13.0665 3.66797 17.1998V22.7998C3.66797 26.9332 5.06797 28.3332 9.2013 28.3332H14.8013C18.9346 28.3332 20.3346 26.9332 20.3346 22.7998V17.1998C20.3346 13.0665 18.9346 11.6665 14.8013 11.6665H9.2013Z" fill="black"/>
<path d="M22.8013 22.3332H21.3346C20.788 22.3332 20.3346 21.8798 20.3346 21.3332V17.1998C20.3346 13.0665 18.9346 11.6665 14.8013 11.6665H10.668C10.1213 11.6665 9.66797 11.2132 9.66797 10.6665V9.19984C9.66797 3.9865 11.988 1.6665 17.2013 1.6665H22.8013C28.0146 1.6665 30.3346 3.9865 30.3346 9.19984V14.7998C30.3346 20.0132 28.0146 22.3332 22.8013 22.3332ZM22.3346 20.3332H22.8013C26.9346 20.3332 28.3346 18.9332 28.3346 14.7998V9.19984C28.3346 5.0665 26.9346 3.6665 22.8013 3.6665H17.2013C13.068 3.6665 11.668 5.0665 11.668 9.19984V9.6665H14.8013C20.0146 9.6665 22.3346 11.9865 22.3346 17.1998V20.3332Z" fill="black"/>
</svg>
