<svg width="39" height="32" viewBox="0 0 39 32" fill="none" xmlns="http://www.w3.org/2000/svg">
<g clip-path="url(#clip0_4590_15016)">
<path d="M21.9648 15.9729L25.7497 20.2992L30.8397 23.5516L31.7251 16.0002L30.8397 8.61914L25.6523 11.4762L21.9648 15.9729Z" fill="#00832D"/>
<path d="M0 22.8491V29.284C0 30.7533 1.19254 31.9462 2.66216 31.9462H9.09707L10.4296 27.0842L9.09707 22.8491L4.68229 21.5166L0 22.8491Z" fill="#0066DA"/>
<path d="M9.09707 0L0 9.09707L4.68257 10.4265L9.09707 9.09707L10.4053 4.91967L9.09707 0Z" fill="#E94235"/>
<path d="M0 22.852H9.09707V9.09717H0V22.852Z" fill="#2684FC"/>
<path d="M36.651 3.85184L30.8398 8.61945V23.5516L36.6752 28.3378C37.5487 29.0221 38.8266 28.3984 38.8266 27.2881V4.88021C38.8266 3.7575 37.5183 3.13688 36.651 3.85184Z" fill="#00AC47"/>
<path d="M21.9641 15.9731V22.849H9.09766V31.9461H28.1768C29.6465 31.9461 30.839 30.7533 30.839 29.2839V23.5519L21.9641 15.9731Z" fill="#00AC47"/>
<path d="M28.1768 0H9.09766V9.09707H21.9641V15.973L30.839 8.61921V2.66216C30.839 1.19254 29.6465 0 28.1768 0Z" fill="#FFBA00"/>
</g>
<defs>
<clipPath id="clip0_4590_15016">
<rect width="38.8246" height="32" fill="white"/>
</clipPath>
</defs>
</svg>
