<svg width="34" height="32" viewBox="0 0 34 32" fill="none" xmlns="http://www.w3.org/2000/svg">
<path d="M28.3346 15.9999H14.8763M25.5013 19.9999L29.7513 15.9999L25.5013 11.9999M18.418 9.33325V7.99992C18.418 7.29267 18.1195 6.6144 17.5881 6.1143C17.0568 5.6142 16.3361 5.33325 15.5846 5.33325H8.5013C7.74986 5.33325 7.02919 5.6142 6.49783 6.1143C5.96648 6.6144 5.66797 7.29267 5.66797 7.99992V23.9999C5.66797 24.7072 5.96648 25.3854 6.49783 25.8855C7.02919 26.3856 7.74986 26.6666 8.5013 26.6666H15.5846C16.3361 26.6666 17.0568 26.3856 17.5881 25.8855C18.1195 25.3854 18.418 24.7072 18.418 23.9999V22.6666" stroke="black" stroke-width="2" stroke-linecap="round" stroke-linejoin="round"/>
</svg>
