<svg width="24" height="16" viewBox="0 0 24 16" fill="none" xmlns="http://www.w3.org/2000/svg">
<path d="M22.7333 6.66602H1.26667C0.567106 6.66602 0 7.23312 0 7.93268V8.06602C0 8.76558 0.567106 9.33268 1.26667 9.33268H22.7333C23.4329 9.33268 24 8.76558 24 8.06602V7.93268C24 7.23312 23.4329 6.66602 22.7333 6.66602Z" fill="#E69C24"/>
<path d="M22.7333 13.334H1.26667C0.567106 13.334 0 13.9011 0 14.6007V14.734C0 15.4335 0.567106 16.0007 1.26667 16.0007H22.7333C23.4329 16.0007 24 15.4335 24 14.734V14.6007C24 13.9011 23.4329 13.334 22.7333 13.334Z" fill="#E69C24"/>
<path d="M22.7333 0H1.26667C0.567106 0 0 0.567106 0 1.26667V1.4C0 2.09956 0.567106 2.66667 1.26667 2.66667H22.7333C23.4329 2.66667 24 2.09956 24 1.4V1.26667C24 0.567106 23.4329 0 22.7333 0Z" fill="#E69C24"/>
</svg>
