<svg width="23" height="42" viewBox="0 0 23 42" fill="none" xmlns="http://www.w3.org/2000/svg">
<path d="M21.5146 3.68112C21.7026 3.48222 21.8495 3.24825 21.947 2.99256C22.0446 2.73688 22.0908 2.46449 22.083 2.19094C22.0753 1.9174 22.0138 1.64805 21.9019 1.39829C21.7901 1.14853 21.6302 0.923239 21.4313 0.735285C21.2324 0.54733 20.9984 0.400392 20.7427 0.30286C20.487 0.205327 20.2146 0.159111 19.9411 0.166849C19.6675 0.174587 19.3982 0.236128 19.1484 0.347959C18.8987 0.45979 18.6734 0.61972 18.4854 0.818618L0.777105 19.5686C0.411405 19.9554 0.207642 20.4676 0.207642 20.9999C0.207642 21.5322 0.411405 22.0443 0.777105 22.4311L18.4854 41.1832C18.6722 41.3865 18.8974 41.5506 19.1481 41.666C19.3988 41.7815 19.6699 41.846 19.9457 41.8558C20.2215 41.8656 20.4965 41.8205 20.7548 41.7231C21.013 41.6257 21.2493 41.478 21.45 41.2885C21.6507 41.099 21.8117 40.8716 21.9237 40.6193C22.0357 40.3671 22.0965 40.0951 22.1025 39.8192C22.1085 39.5432 22.0596 39.2689 21.9587 39.012C21.8578 38.7551 21.7068 38.5208 21.5146 38.3228L5.15627 20.9999L21.5146 3.68112Z" fill="black"/>
</svg>
