<svg width="76" height="84" viewBox="0 0 76 84" fill="none" xmlns="http://www.w3.org/2000/svg">
<path d="M38 0.333496C44.4683 0.333259 50.6848 2.84002 55.3436 7.3271C60.0024 11.8142 62.7408 17.9323 62.9833 24.396L63 25.3335H67.1667C69.2691 25.3328 71.294 26.1269 72.8356 27.5564C74.3772 28.9859 75.3215 30.9454 75.4792 33.0418L75.5 33.6668V75.3335C75.5007 77.4359 74.7066 79.4609 73.2771 81.0024C71.8475 82.544 69.8881 83.4883 67.7917 83.646L67.1667 83.6668H8.83333C6.73093 83.6675 4.70597 82.8735 3.16438 81.4439C1.62279 80.0144 0.678514 78.055 0.520834 75.9585L0.5 75.3335V33.6668C0.499335 31.5644 1.29336 29.5395 2.7229 27.9979C4.15245 26.4563 6.11185 25.512 8.20833 25.3543L8.83333 25.3335H13C13 18.7031 15.6339 12.3442 20.3223 7.65583C25.0107 2.96742 31.3696 0.333496 38 0.333496ZM67.1667 33.6668H8.83333V75.3335H67.1667V33.6668ZM38 42.0002C39.7775 42.0007 41.5082 42.5696 42.9393 43.6237C44.3705 44.6778 45.4271 46.1619 45.9549 47.8592C46.4826 49.5565 46.4539 51.3781 45.8728 53.0578C45.2917 54.7376 44.1887 56.1876 42.725 57.196L42.1667 57.5502V62.8335C42.1655 63.8955 41.7588 64.917 41.0298 65.6892C40.3008 66.4614 39.3044 66.9261 38.2442 66.9884C37.184 67.0506 36.1401 66.7057 35.3257 66.0241C34.5113 65.3424 33.9879 64.3756 33.8625 63.321L33.8333 62.8335V57.5502C32.2448 56.6329 31.0032 55.2171 30.3013 53.5223C29.5993 51.8276 29.4762 49.9485 29.951 48.1766C30.4258 46.4048 31.4719 44.8391 32.9272 43.7223C34.3825 42.6056 36.1656 42.0002 38 42.0002ZM38 8.66683C33.5797 8.66683 29.3405 10.4228 26.2149 13.5484C23.0893 16.674 21.3333 20.9132 21.3333 25.3335H54.6667C54.6667 20.9132 52.9107 16.674 49.7851 13.5484C46.6595 10.4228 42.4203 8.66683 38 8.66683Z" fill="black"/>
</svg>
