<svg width="122" height="45" viewBox="0 0 122 45" fill="none" xmlns="http://www.w3.org/2000/svg">
<path d="M10.0996 15.3996V43.1496H11.9496C13.8896 43.1496 15.4696 41.5696 15.4696 39.6296V16.4396H26.8696C27.3996 16.4396 27.8196 16.5296 28.1296 16.7196C29.1696 17.2696 29.6896 18.1496 29.6896 19.3596V25.3296C29.6896 26.8996 28.4196 28.1696 26.8496 28.1696H16.2896V33.3296H28.5396C32.0696 33.3296 34.9296 30.4696 34.9296 26.9396V18.3796C34.9296 14.3596 31.6696 11.0996 27.6496 11.0996H14.4096C12.0396 11.0996 10.1096 13.0296 10.1096 15.3996H10.0996Z" fill="url(#paint0_linear_8101_20967)"/>
<path style="mix-blend-mode:multiply" d="M29.3593 26.6504C28.8893 27.5504 27.9393 28.1704 26.8493 28.1704H16.2793V33.3304H28.5293C32.0593 33.3304 34.9193 30.4704 34.9193 26.9404V26.6504H29.3593Z" fill="url(#paint1_linear_8101_20967)"/>
<path d="M25.6098 7.85C25.6098 7.11 25.4798 6.31 25.2198 5.44C23.5998 1.81 21.1098 0 17.7598 0H7.85976C7.03976 0 6.26977 0.129999 5.54977 0.389999C2.97977 1.42 1.29977 3.04 0.519768 5.24C0.179768 6.2 0.00976562 7.27 0.00976562 8.45V11.99C0.00976562 12.23 0.0197665 12.46 0.0497665 12.69C0.329767 15.33 2.17976 17.59 4.77976 18.34L19.2598 22.57C19.8698 22.75 20.2898 23.31 20.2898 23.94V25.67C20.2898 25.83 20.2198 26.12 20.0798 26.54C19.5498 27.63 18.6198 28.18 17.2798 28.18C10.9698 28.18 7.63977 28.15 7.29977 28.08C5.92977 27.58 5.24976 26.58 5.24976 25.08C5.24976 24.15 4.86977 23.3 4.25977 22.69C3.64977 22.08 2.79977 21.7 1.86977 21.7H0.0197678V25.57C0.0197678 26.31 0.149765 27.11 0.399765 27.98C2.02977 31.61 4.51977 33.42 7.86977 33.42H17.7698C18.5898 33.42 19.3598 33.29 20.0798 33.04C23.7698 31.55 25.6198 28.87 25.6198 24.98V23.85C25.6198 20.93 23.7098 18.36 20.9098 17.51L6.35976 13.12C6.09976 13.04 5.85977 12.88 5.68977 12.69C5.46977 12.44 5.34976 12.11 5.34976 11.76V7.76C5.34976 7.61 5.41977 7.31 5.55977 6.89C6.08977 5.8 7.01976 5.25 8.35976 5.25C14.6698 5.25 17.5098 5.28 17.8498 5.35C19.8198 5.35 20.2698 6.68 20.3698 7.98V8.13C20.3698 9.78 21.7098 11.12 23.3598 11.12H25.6198V7.87L25.6098 7.85Z" fill="white"/>
<path style="mix-blend-mode:multiply" d="M34.9191 21.1004V24.2204L29.6891 24.3804V19.3604C29.6891 18.1504 29.1691 17.2704 28.1291 16.7204C27.8191 16.5404 27.3991 16.4404 26.8691 16.4404H31.3991C33.3391 16.4404 34.9191 18.0104 34.9191 19.9504V21.1004Z" fill="url(#paint2_linear_8101_20967)"/>
<path style="mix-blend-mode:multiply" d="M5.34 7.73973V11.7397C5.34 12.0897 5.47 12.4197 5.68 12.6697H0.0400009C0.0100009 12.4397 0 12.2097 0 11.9697V9.16972C0 6.98972 1.77 5.21973 3.96 5.21973H8.34C7 5.21973 6.07 5.76973 5.54 6.85973C5.4 7.28973 5.33 7.57972 5.33 7.72972L5.34 7.73973Z" fill="url(#paint3_linear_8101_20967)"/>
<path style="mix-blend-mode:multiply" d="M19.2495 22.5596C19.8595 22.7396 20.2794 23.2996 20.2794 23.9296V25.6596C20.2794 25.8196 20.2095 26.1096 20.0695 26.5296C19.5395 27.6196 18.6095 28.1696 17.2695 28.1696C16.9895 28.1696 16.7095 28.1696 16.4395 28.1696V33.3996H17.7595C18.5795 33.3996 19.3495 33.2696 20.0695 33.0196C22.3795 32.0896 23.9695 30.6896 24.8295 28.8296C24.8495 28.7796 24.8694 28.7296 24.8895 28.6796C25.7194 26.5496 24.4795 24.1696 22.2995 23.4996L19.2395 22.5596H19.2495Z" fill="url(#paint4_linear_8101_20967)"/>
<path d="M10.0996 19.8896V43.1496H11.9396C13.8796 43.1496 15.4596 41.5697 15.4596 39.6297V21.4596L10.0996 19.8896Z" fill="url(#paint5_linear_8101_20967)"/>
<path style="mix-blend-mode:multiply" d="M15.4596 34.4897V21.4496L10.0996 19.8896V34.4897H15.4596Z" fill="url(#paint6_linear_8101_20967)"/>
<path style="mix-blend-mode:multiply" d="M5.23977 25.0704C5.23977 24.1404 4.85976 23.2904 4.24976 22.6804C3.63976 22.0704 2.78976 21.6904 1.85976 21.6904H0.00976562V23.9804C0.00976562 24.1804 0.0397675 24.5804 0.0897675 25.0504C0.259767 26.7604 1.68977 28.0604 3.40977 28.0604H7.29977C5.92977 27.5604 5.24976 26.5604 5.24976 25.0604L5.23977 25.0704Z" fill="url(#paint7_linear_8101_20967)"/>
<path style="mix-blend-mode:multiply" d="M20.3598 7.96008V8.11008C20.3598 9.76008 21.6998 11.1001 23.3498 11.1001H25.6098V9.61008C25.6098 7.26008 23.7098 5.35008 21.3598 5.34008C19.3598 5.34008 17.8398 5.33008 17.8398 5.33008C19.8098 5.33008 20.2598 6.66008 20.3598 7.96008Z" fill="url(#paint8_linear_8101_20967)"/>
<path d="M51.3403 17.9405C50.2803 17.4705 49.0203 17.2305 47.5703 17.2305H40.0703V32.8105H45.3203V28.9805H47.5703C49.0203 28.9805 50.2803 28.7405 51.3403 28.2605C52.4003 27.7805 53.2203 27.1005 53.8003 26.2205C54.3803 25.3405 54.6703 24.3105 54.6703 23.1005C54.6703 21.8905 54.3803 20.8605 53.8003 19.9705C53.2203 19.0905 52.4003 18.4105 51.3403 17.9305V17.9405ZM48.8403 24.4305C48.4903 24.7605 47.9503 24.9205 47.2303 24.9205H45.3203V21.2705H47.2303C47.9603 21.2705 48.4903 21.4305 48.8403 21.7605C49.1903 22.0905 49.3603 22.5305 49.3603 23.1005C49.3603 23.6705 49.1903 24.1105 48.8403 24.4405V24.4305Z" fill="white"/>
<path d="M67.9611 24.5199C67.4511 24.1799 66.8911 23.8999 66.2811 23.6999C65.6711 23.4899 65.0611 23.3299 64.4411 23.2099C63.8211 23.0899 63.2611 22.9799 62.7511 22.8799C62.2411 22.7799 61.8311 22.6499 61.5111 22.4899C61.2011 22.3299 61.0411 22.1199 61.0411 21.8599C61.0411 21.6799 61.1011 21.5199 61.2311 21.3699C61.3611 21.2199 61.5711 21.0999 61.8611 21.0099C62.1611 20.9199 62.5611 20.8799 63.0611 20.8799C63.7411 20.8799 64.4411 20.9799 65.1611 21.1699C65.8811 21.3599 66.6211 21.6499 67.4011 22.0399L68.9811 18.2299C68.1611 17.7699 67.2411 17.4299 66.2211 17.2099C65.2011 16.9899 64.1611 16.8799 63.1011 16.8799C61.5011 16.8799 60.1611 17.1199 59.0811 17.5899C58.0011 18.0599 57.2011 18.6999 56.6511 19.4899C56.1111 20.2799 55.8411 21.1599 55.8411 22.1299C55.8411 22.9599 56.0011 23.6499 56.3111 24.2099C56.6211 24.7699 57.0311 25.2199 57.5511 25.5599C58.0611 25.8999 58.6311 26.1799 59.2411 26.3799C59.8611 26.5899 60.4711 26.7499 61.0811 26.8799C61.6911 27.0099 62.2511 27.1199 62.7611 27.2399C63.2711 27.3499 63.6811 27.4899 64.0011 27.6499C64.3111 27.8099 64.4711 28.0399 64.4711 28.3199C64.4711 28.4999 64.4011 28.6499 64.2711 28.7799C64.1411 28.9099 63.9311 28.9999 63.6411 29.0699C63.3511 29.1399 62.9511 29.1699 62.4511 29.1699C61.5911 29.1699 60.7011 29.0399 59.7911 28.7799C58.8811 28.5199 58.0511 28.1799 57.3111 27.7499L55.6211 31.5799C56.4111 32.0499 57.4111 32.4399 58.6211 32.7399C59.8411 33.0399 61.1011 33.1799 62.4011 33.1799C64.0211 33.1799 65.3611 32.9399 66.4311 32.4599C67.5011 31.9799 68.3011 31.3399 68.8411 30.5499C69.3811 29.7599 69.6511 28.8799 69.6511 27.9399C69.6511 27.1199 69.4911 26.4399 69.1811 25.8899C68.8711 25.3399 68.4611 24.8999 67.9511 24.5499L67.9611 24.5199Z" fill="white"/>
<path d="M81.83 18.2104C80.92 17.7504 79.98 17.6704 79.01 17.9804C78.04 18.3004 77.33 18.9104 76.86 19.8204L73.3 26.8104C72.84 27.7204 72.76 28.6604 73.08 29.6404C73.4 30.6104 74.01 31.3204 74.91 31.7804C75.82 32.2404 76.76 32.3204 77.72 32.0104C78.7 31.6904 79.41 31.0804 79.88 30.1704L83.44 23.1804C83.9 22.2704 83.98 21.3304 83.66 20.3504C83.35 19.3904 82.74 18.6704 81.83 18.2104ZM81.39 22.1304L77.83 29.1204C77.66 29.4604 77.39 29.6904 77.03 29.8104C76.66 29.9304 76.31 29.9104 75.97 29.7304C75.63 29.5604 75.4 29.2804 75.29 28.9204C75.17 28.5504 75.19 28.2004 75.37 27.8604L78.93 20.8704C79.1 20.5304 79.38 20.3004 79.74 20.1904C80.11 20.0704 80.46 20.0904 80.8 20.2704C81.14 20.4404 81.37 20.7204 81.48 21.0804C81.6 21.4504 81.57 21.7904 81.39 22.1304Z" fill="white"/>
<path d="M91.9909 16.29H86.9609V32.8H91.9909V16.29Z" fill="white"/>
<path d="M103 20.6299L100.38 27.1599L97.9295 20.6299H92.7695L97.6595 32.7999H102.87L107.76 20.6299H103Z" fill="white"/>
<path d="M120.241 23.2302C119.621 22.3002 118.811 21.5902 117.791 21.1202C116.771 20.6502 115.661 20.4102 114.461 20.4102C113.151 20.4102 111.981 20.6802 110.931 21.2102C109.881 21.7402 109.061 22.4902 108.461 23.4402C107.861 24.3902 107.561 25.4802 107.561 26.7102C107.561 27.9402 107.861 28.9902 108.471 29.9502C109.081 30.9102 109.931 31.6602 111.041 32.2102C112.141 32.7602 113.441 33.0302 114.921 33.0302C116.141 33.0302 117.181 32.8602 118.051 32.5302C118.921 32.2002 119.651 31.7102 120.241 31.0702L117.611 28.4202C117.211 28.7202 116.831 28.9402 116.461 29.0902C116.101 29.2402 115.631 29.3102 115.071 29.3102C114.511 29.3102 114.051 29.2202 113.671 29.0302C113.281 28.8402 112.991 28.5702 112.781 28.2002C112.731 28.1102 112.701 27.9902 112.661 27.8902H121.081C121.091 27.7102 121.111 27.5202 121.121 27.3002C121.131 27.0902 121.141 26.8902 121.141 26.7102C121.141 25.3302 120.831 24.1702 120.221 23.2402L120.241 23.2302ZM113.431 24.1102C113.731 23.9202 114.091 23.8302 114.511 23.8302C114.931 23.8302 115.281 23.9202 115.581 24.1102C115.881 24.3002 116.111 24.5502 116.281 24.8902C116.371 25.0602 116.431 25.2502 116.471 25.4602H112.541C112.581 25.2502 112.641 25.0602 112.731 24.8902C112.891 24.5602 113.131 24.3002 113.431 24.1102Z" fill="white"/>
<path d="M17.9707 36.9609H20.0907C20.8007 36.9609 21.3407 37.1409 21.7107 37.4909C22.0807 37.8409 22.2707 38.3609 22.2707 39.0509C22.2707 39.7409 22.0807 40.2709 21.7107 40.6409C21.3307 41.0109 20.7907 41.2009 20.0907 41.2009H19.4907V42.6909H17.9707V36.9609ZM20.0707 39.9109C20.5007 39.9109 20.7207 39.6209 20.7207 39.0509C20.7207 38.7609 20.6707 38.5509 20.5607 38.4309C20.4507 38.3109 20.2907 38.2509 20.0707 38.2509H19.4807V39.9109H20.0707Z" fill="url(#paint9_linear_8101_20967)"/>
<path d="M25.8516 38.4303H27.3316V38.8003C27.8216 38.5403 28.2316 38.3803 28.5616 38.3203V39.8103C28.3816 39.8503 28.1616 39.8903 27.9016 39.9203C27.8516 39.9203 27.7116 39.9503 27.4716 39.9903L27.3316 40.0203V42.7003H25.8516V38.4403V38.4303Z" fill="url(#paint10_linear_8101_20967)"/>
<path d="M32.9407 42.5105C32.6307 42.3205 32.3907 42.0505 32.2207 41.7005C32.0507 41.3505 31.9707 40.9605 31.9707 40.5205C31.9707 40.0805 32.0507 39.7105 32.2207 39.3805C32.3907 39.0505 32.6207 38.7905 32.9307 38.6005C33.2407 38.4105 33.6007 38.3105 34.0207 38.3105C34.4407 38.3105 34.8107 38.4005 35.1207 38.5905C35.4307 38.7805 35.6707 39.0405 35.8307 39.3705C36.0007 39.7005 36.0807 40.0905 36.0807 40.5205C36.0807 40.9505 36.0007 41.3605 35.8307 41.7005C35.6607 42.0405 35.4207 42.3105 35.1107 42.5105C34.8007 42.7005 34.4407 42.8005 34.0307 42.8005C33.6207 42.8005 33.2607 42.7005 32.9507 42.5105H32.9407ZM34.4107 41.3005C34.5207 41.1305 34.5807 40.8705 34.5807 40.5305C34.5807 40.2205 34.5307 39.9805 34.4207 39.8105C34.3107 39.6505 34.1807 39.5605 34.0207 39.5605C33.8607 39.5605 33.7307 39.6405 33.6207 39.8105C33.5207 39.9805 33.4607 40.2105 33.4607 40.5305C33.4607 40.8705 33.5207 41.1305 33.6307 41.3005C33.7407 41.4705 33.8707 41.5605 34.0207 41.5605C34.1707 41.5605 34.3007 41.4705 34.4107 41.3005Z" fill="url(#paint11_linear_8101_20967)"/>
<path d="M40.1398 42.7101L39.7598 42.6701V36.8301H41.2398V38.5001C41.2398 38.5001 41.3598 38.4601 41.4698 38.4201C41.5798 38.3801 41.6798 38.3601 41.7598 38.3401C41.8498 38.3301 41.9498 38.3201 42.0498 38.3201C42.6198 38.3201 43.0498 38.5001 43.3398 38.8501C43.6298 39.2001 43.7698 39.7701 43.7698 40.5601C43.7698 41.3501 43.6098 41.9301 43.2898 42.2801C42.9698 42.6301 42.4598 42.8101 41.7598 42.8101C41.3298 42.8101 40.7898 42.7801 40.1298 42.7101H40.1398ZM42.1198 41.2801C42.2298 41.1501 42.2798 40.9201 42.2798 40.5801C42.2798 39.9501 42.0798 39.6301 41.6698 39.6301C41.5398 39.6301 41.3998 39.6301 41.2398 39.6501V41.4501C41.3698 41.4701 41.4898 41.4801 41.6098 41.4801C41.8398 41.4801 42.0098 41.4101 42.1198 41.2801Z" fill="url(#paint12_linear_8101_20967)"/>
<path d="M47.5312 36.8203H49.0113V42.6903H47.5312V36.8203Z" fill="url(#paint13_linear_8101_20967)"/>
<path d="M53.1905 42.3003C52.8805 41.9603 52.7305 41.4203 52.7305 40.6503C52.7305 39.8803 52.8905 39.2903 53.2205 38.9003C53.5505 38.5103 54.0505 38.3203 54.7205 38.3203C55.3405 38.3203 55.8205 38.4803 56.1505 38.8003C56.4805 39.1203 56.6505 39.5803 56.6505 40.2003L56.5305 41.2003H54.2305C54.2505 41.3003 54.2805 41.3803 54.3305 41.4203C54.3805 41.4703 54.4405 41.4903 54.5305 41.5003C54.6205 41.5003 54.7605 41.5103 54.9705 41.5103C55.1805 41.5103 55.4205 41.5103 55.7005 41.4903C55.9805 41.4803 56.1705 41.4703 56.2805 41.4603L56.5105 41.4303L56.5305 42.5003C55.9005 42.7003 55.2905 42.8103 54.7005 42.8103C54.0205 42.8103 53.5205 42.6403 53.2105 42.3103L53.1905 42.3003ZM55.1905 40.0803C55.1905 39.8603 55.1605 39.7103 55.0905 39.6303C55.0205 39.5503 54.8905 39.5103 54.7005 39.5103C54.5105 39.5103 54.3805 39.5503 54.3205 39.6303C54.2605 39.7103 54.2205 39.8603 54.2205 40.0803H55.2005H55.1905Z" fill="url(#paint14_linear_8101_20967)"/>
<path d="M60.3203 38.4303H61.8003V38.6303C62.0103 38.5203 62.1703 38.4403 62.2903 38.3903C62.4103 38.3403 62.5403 38.3203 62.6803 38.3203C62.8503 38.3203 63.0303 38.3503 63.2103 38.4103C63.3903 38.4703 63.5503 38.5703 63.6803 38.6903C63.9803 38.5503 64.2303 38.4503 64.4303 38.4003C64.6403 38.3503 64.8503 38.3203 65.0603 38.3203C65.6003 38.3203 65.9903 38.4903 66.2303 38.8103C66.4703 39.1303 66.5903 39.6503 66.5903 40.3403V42.6903H65.1103V40.3903C65.1103 40.1503 65.0803 39.9703 65.0103 39.8403C64.9403 39.7103 64.8303 39.6403 64.6703 39.6403C64.6603 39.6403 64.6203 39.6403 64.5703 39.6403C64.5103 39.6403 64.4203 39.6603 64.3003 39.6803L64.2003 39.7003L64.1803 40.4903V42.6903H62.7003V40.5103C62.7003 40.2803 62.6903 40.1003 62.6703 39.9803C62.6503 39.8603 62.6003 39.7703 62.5403 39.7203C62.4803 39.6703 62.3703 39.6403 62.2403 39.6403C62.1403 39.6403 62.0203 39.6503 61.8803 39.6803H61.8103V42.6903H60.3303V38.4303H60.3203Z" fill="url(#paint15_linear_8101_20967)"/>
<path d="M75.5111 42.5608L75.2011 42.4908L75.3511 41.3308C76.1011 41.4308 76.6811 41.4808 77.0911 41.4808C77.5311 41.4808 77.7611 41.3308 77.7611 41.0208C77.7611 40.9108 77.7111 40.8308 77.6111 40.7608C77.5111 40.7008 77.3611 40.6308 77.1711 40.5608C77.0511 40.5108 76.9511 40.4808 76.9011 40.4508C76.2611 40.2308 75.8011 39.9908 75.5311 39.7108C75.2611 39.4308 75.1211 39.0808 75.1211 38.6608C75.1211 38.0608 75.3011 37.6108 75.6711 37.3008C76.0311 36.9908 76.5311 36.8408 77.1511 36.8408C77.4111 36.8408 77.6511 36.8608 77.8811 36.8908C78.1111 36.9208 78.5311 37.0008 79.1511 37.1108L79.0311 38.2908C78.2911 38.2008 77.7211 38.1608 77.3211 38.1608C76.8511 38.1608 76.6211 38.2908 76.6211 38.5408C76.6211 38.6208 76.6811 38.7008 76.7911 38.7608C76.9011 38.8208 77.0811 38.9008 77.3311 38.9908C77.5811 39.0808 77.7411 39.1408 77.8211 39.1808C78.2011 39.3308 78.4911 39.4808 78.6911 39.6308C78.8911 39.7808 79.0411 39.9508 79.1311 40.1508C79.2211 40.3608 79.2711 40.6108 79.2711 40.9308C79.2711 41.3308 79.1811 41.6708 78.9911 41.9508C78.8111 42.2308 78.5511 42.4408 78.2411 42.5908C77.9311 42.7408 77.5711 42.8108 77.1811 42.8108C76.6911 42.8108 76.1311 42.7308 75.5111 42.5608Z" fill="url(#paint16_linear_8101_20967)"/>
<path d="M83.7005 42.5105C83.3905 42.3205 83.1505 42.0505 82.9805 41.7005C82.8105 41.3505 82.7305 40.9605 82.7305 40.5205C82.7305 40.0805 82.8105 39.7105 82.9805 39.3805C83.1505 39.0505 83.3805 38.7905 83.6905 38.6005C84.0005 38.4105 84.3605 38.3105 84.7805 38.3105C85.2005 38.3105 85.5705 38.4005 85.8805 38.5905C86.1905 38.7805 86.4305 39.0405 86.5905 39.3705C86.7605 39.7005 86.8405 40.0905 86.8405 40.5205C86.8405 40.9505 86.7605 41.3605 86.5905 41.7005C86.4205 42.0405 86.1805 42.3105 85.8705 42.5105C85.5605 42.7005 85.2005 42.8005 84.7905 42.8005C84.3805 42.8005 84.0205 42.7005 83.7105 42.5105H83.7005ZM85.1705 41.3005C85.2805 41.1305 85.3405 40.8705 85.3405 40.5305C85.3405 40.2205 85.2905 39.9805 85.1805 39.8105C85.0705 39.6505 84.9405 39.5605 84.7805 39.5605C84.6205 39.5605 84.4905 39.6405 84.3805 39.8105C84.2805 39.9805 84.2205 40.2105 84.2205 40.5305C84.2205 40.8705 84.2805 41.1305 84.3905 41.3005C84.5005 41.4705 84.6305 41.5605 84.7805 41.5605C84.9305 41.5605 85.0605 41.4705 85.1705 41.3005Z" fill="url(#paint17_linear_8101_20967)"/>
<path d="M90.5703 36.8203H92.0503V42.6903H90.5703V36.8203Z" fill="url(#paint18_linear_8101_20967)"/>
<path d="M95.6309 38.4307H97.1709L97.6509 41.4407H97.8409L98.3409 38.4307H99.8309L98.9309 42.6907H96.5409L95.6409 38.4307H95.6309Z" fill="url(#paint19_linear_8101_20967)"/>
<path d="M103.352 38.4305H104.832V42.6905H103.352V38.4305ZM103.362 36.7305H104.842V38.1505H103.362V36.7305Z" fill="url(#paint20_linear_8101_20967)"/>
<path d="M108.771 38.4303H110.251V38.6303C110.431 38.5203 110.591 38.4403 110.741 38.3903C110.881 38.3403 111.041 38.3203 111.201 38.3203C111.721 38.3203 112.101 38.4903 112.331 38.8403C112.561 39.1903 112.681 39.6903 112.681 40.3403V42.6903H111.201V40.3903C111.201 40.1303 111.161 39.9403 111.081 39.8203C111.001 39.7003 110.861 39.6403 110.661 39.6403H110.571C110.521 39.6403 110.441 39.6503 110.321 39.6803H110.261V42.6903H108.781V38.4303H108.771Z" fill="url(#paint21_linear_8101_20967)"/>
<path d="M116.91 44.3708C116.53 44.2008 116.33 43.9208 116.33 43.5408C116.33 43.3608 116.38 43.1908 116.48 43.0108C116.58 42.8308 116.72 42.6708 116.91 42.5208C116.67 42.3508 116.54 42.1408 116.54 41.8808C116.54 41.7808 116.56 41.6908 116.61 41.6008C116.66 41.5108 116.75 41.3608 116.9 41.1508C116.73 40.9808 116.6 40.8008 116.51 40.6008C116.42 40.4008 116.38 40.1808 116.38 39.9208C116.38 39.3908 116.55 38.9908 116.9 38.7308C117.25 38.4708 117.71 38.3408 118.29 38.3408C118.52 38.3408 118.8 38.3808 119.15 38.4508L120.59 38.4008V39.5608L120.07 39.4808C120.13 39.6108 120.16 39.7008 120.17 39.7508C120.18 39.8008 120.19 39.8808 120.19 39.9808C120.19 40.5008 120.04 40.8708 119.73 41.0908C119.42 41.3108 118.96 41.4208 118.35 41.4208C118.18 41.4208 118.07 41.4108 117.99 41.3908C117.96 41.4508 117.95 41.5208 117.95 41.6208C117.95 41.7008 118 41.7508 118.1 41.7708C118.2 41.7908 118.38 41.8108 118.64 41.8208C119.12 41.8408 119.5 41.8808 119.77 41.9408C120.05 42.0008 120.26 42.1108 120.42 42.2908C120.57 42.4608 120.65 42.7208 120.65 43.0608C120.65 43.6008 120.46 44.0008 120.07 44.2508C119.69 44.5008 119.12 44.6308 118.38 44.6308C117.78 44.6308 117.29 44.5508 116.91 44.3808V44.3708ZM118.98 43.3608C119.1 43.3308 119.16 43.2808 119.16 43.2308C119.16 43.1308 119.08 43.0808 118.91 43.0808C118.85 43.0808 118.8 43.0808 118.75 43.0808C118.7 43.0808 118.65 43.0808 118.6 43.0808C118.57 43.0808 118.54 43.0808 118.52 43.0808L117.85 43.0108C117.85 43.0608 117.83 43.1108 117.82 43.1608C117.81 43.2108 117.79 43.2508 117.79 43.2608C117.79 43.2908 117.86 43.3208 117.99 43.3508C118.12 43.3808 118.28 43.3908 118.48 43.3908C118.7 43.3908 118.86 43.3708 118.98 43.3408V43.3608ZM118.63 40.2008C118.71 40.1208 118.75 40.0208 118.75 39.9008C118.75 39.7808 118.71 39.6708 118.63 39.6008C118.55 39.5208 118.44 39.4808 118.31 39.4808C118.18 39.4808 118.07 39.5208 117.99 39.5908C117.91 39.6608 117.87 39.7608 117.87 39.8908C117.87 40.0208 117.91 40.1208 117.99 40.2008C118.07 40.2808 118.18 40.3208 118.31 40.3208C118.44 40.3208 118.55 40.2808 118.63 40.2008Z" fill="url(#paint22_linear_8101_20967)"/>
<defs>
<linearGradient id="paint0_linear_8101_20967" x1="10.1596" y1="37.9496" x2="30.9996" y2="10.2396" gradientUnits="userSpaceOnUse">
<stop stop-color="#2A41BA"/>
<stop offset="0.35" stop-color="#1889BA"/>
<stop offset="0.65" stop-color="#0BC0BB"/>
<stop offset="0.88" stop-color="#03E2BB"/>
<stop offset="1" stop-color="#00EFBC"/>
</linearGradient>
<linearGradient id="paint1_linear_8101_20967" x1="28.5493" y1="31.2604" x2="22.5193" y2="28.6704" gradientUnits="userSpaceOnUse">
<stop stop-color="white" stop-opacity="0"/>
<stop offset="0.11" stop-color="#E0EAED" stop-opacity="0.15"/>
<stop offset="0.4" stop-color="#95B6C2" stop-opacity="0.51"/>
<stop offset="0.66" stop-color="#5E91A2" stop-opacity="0.78"/>
<stop offset="0.87" stop-color="#3D7A8F" stop-opacity="0.94"/>
<stop offset="1" stop-color="#317288"/>
</linearGradient>
<linearGradient id="paint2_linear_8101_20967" x1="31.4191" y1="24.5904" x2="30.7591" y2="16.4804" gradientUnits="userSpaceOnUse">
<stop stop-color="white" stop-opacity="0"/>
<stop offset="0.11" stop-color="#E0EAED" stop-opacity="0.15"/>
<stop offset="0.4" stop-color="#95B6C2" stop-opacity="0.51"/>
<stop offset="0.66" stop-color="#5E91A2" stop-opacity="0.78"/>
<stop offset="0.87" stop-color="#3D7A8F" stop-opacity="0.94"/>
<stop offset="1" stop-color="#317288"/>
</linearGradient>
<linearGradient id="paint3_linear_8101_20967" x1="4.46" y1="3.22973" x2="3.88" y2="11.2797" gradientUnits="userSpaceOnUse">
<stop stop-color="#B3B3B3"/>
<stop offset="0.12" stop-color="#B5B5B5" stop-opacity="0.97"/>
<stop offset="0.28" stop-color="#BBBBBB" stop-opacity="0.89"/>
<stop offset="0.44" stop-color="#C6C6C6" stop-opacity="0.74"/>
<stop offset="0.62" stop-color="#D5D5D5" stop-opacity="0.55"/>
<stop offset="0.81" stop-color="#E8E8E8" stop-opacity="0.3"/>
<stop offset="1" stop-color="white" stop-opacity="0"/>
</linearGradient>
<linearGradient id="paint4_linear_8101_20967" x1="20.9695" y1="20.5796" x2="20.7495" y2="30.0296" gradientUnits="userSpaceOnUse">
<stop stop-color="#B3B3B3"/>
<stop offset="0.12" stop-color="#B5B5B5" stop-opacity="0.97"/>
<stop offset="0.28" stop-color="#BBBBBB" stop-opacity="0.89"/>
<stop offset="0.44" stop-color="#C6C6C6" stop-opacity="0.74"/>
<stop offset="0.62" stop-color="#D5D5D5" stop-opacity="0.55"/>
<stop offset="0.81" stop-color="#E8E8E8" stop-opacity="0.3"/>
<stop offset="1" stop-color="white" stop-opacity="0"/>
</linearGradient>
<linearGradient id="paint5_linear_8101_20967" x1="7.53961" y1="38.5796" x2="25.7196" y2="9.72964" gradientUnits="userSpaceOnUse">
<stop stop-color="#2A41BA"/>
<stop offset="0.35" stop-color="#1889BA"/>
<stop offset="0.65" stop-color="#0BC0BB"/>
<stop offset="0.88" stop-color="#03E2BB"/>
<stop offset="1" stop-color="#00EFBC"/>
</linearGradient>
<linearGradient id="paint6_linear_8101_20967" x1="12.6796" y1="25.1396" x2="12.5196" y2="20.6196" gradientUnits="userSpaceOnUse">
<stop stop-color="white" stop-opacity="0"/>
<stop offset="0.11" stop-color="#E0EAED" stop-opacity="0.15"/>
<stop offset="0.4" stop-color="#95B6C2" stop-opacity="0.51"/>
<stop offset="0.66" stop-color="#5E91A2" stop-opacity="0.78"/>
<stop offset="0.87" stop-color="#3D7A8F" stop-opacity="0.94"/>
<stop offset="1" stop-color="#317288"/>
</linearGradient>
<linearGradient id="paint7_linear_8101_20967" x1="5.76977" y1="30.8604" x2="2.23976" y2="24.0004" gradientUnits="userSpaceOnUse">
<stop stop-color="#B3B3B3"/>
<stop offset="0.12" stop-color="#B5B5B5" stop-opacity="0.97"/>
<stop offset="0.28" stop-color="#BBBBBB" stop-opacity="0.89"/>
<stop offset="0.44" stop-color="#C6C6C6" stop-opacity="0.74"/>
<stop offset="0.62" stop-color="#D5D5D5" stop-opacity="0.55"/>
<stop offset="0.81" stop-color="#E8E8E8" stop-opacity="0.3"/>
<stop offset="1" stop-color="white" stop-opacity="0"/>
</linearGradient>
<linearGradient id="paint8_linear_8101_20967" x1="19.8798" y1="3.83008" x2="23.2398" y2="9.38008" gradientUnits="userSpaceOnUse">
<stop stop-color="#B3B3B3"/>
<stop offset="0.12" stop-color="#B5B5B5" stop-opacity="0.97"/>
<stop offset="0.28" stop-color="#BBBBBB" stop-opacity="0.89"/>
<stop offset="0.44" stop-color="#C6C6C6" stop-opacity="0.74"/>
<stop offset="0.62" stop-color="#D5D5D5" stop-opacity="0.55"/>
<stop offset="0.81" stop-color="#E8E8E8" stop-opacity="0.3"/>
<stop offset="1" stop-color="white" stop-opacity="0"/>
</linearGradient>
<linearGradient id="paint9_linear_8101_20967" x1="55.7007" y1="64.7809" x2="117.221" y2="-32.8491" gradientUnits="userSpaceOnUse">
<stop stop-color="#00EFBC"/>
<stop offset="0.06" stop-color="#06D2BB"/>
<stop offset="0.15" stop-color="#10ABBB"/>
<stop offset="0.25" stop-color="#188ABA"/>
<stop offset="0.36" stop-color="#1E6FBA"/>
<stop offset="0.47" stop-color="#235ABA"/>
<stop offset="0.6" stop-color="#274CBA"/>
<stop offset="0.76" stop-color="#2943BA"/>
<stop offset="1" stop-color="#2A41BA"/>
</linearGradient>
<linearGradient id="paint10_linear_8101_20967" x1="55.7016" y1="64.7803" x2="117.222" y2="-32.8498" gradientUnits="userSpaceOnUse">
<stop stop-color="#00EFBC"/>
<stop offset="0.06" stop-color="#06D2BB"/>
<stop offset="0.15" stop-color="#10ABBB"/>
<stop offset="0.25" stop-color="#188ABA"/>
<stop offset="0.36" stop-color="#1E6FBA"/>
<stop offset="0.47" stop-color="#235ABA"/>
<stop offset="0.6" stop-color="#274CBA"/>
<stop offset="0.76" stop-color="#2943BA"/>
<stop offset="1" stop-color="#2A41BA"/>
</linearGradient>
<linearGradient id="paint11_linear_8101_20967" x1="55.7007" y1="64.7805" x2="117.221" y2="-32.8495" gradientUnits="userSpaceOnUse">
<stop stop-color="#00EFBC"/>
<stop offset="0.06" stop-color="#06D2BB"/>
<stop offset="0.15" stop-color="#10ABBB"/>
<stop offset="0.25" stop-color="#188ABA"/>
<stop offset="0.36" stop-color="#1E6FBA"/>
<stop offset="0.47" stop-color="#235ABA"/>
<stop offset="0.6" stop-color="#274CBA"/>
<stop offset="0.76" stop-color="#2943BA"/>
<stop offset="1" stop-color="#2A41BA"/>
</linearGradient>
<linearGradient id="paint12_linear_8101_20967" x1="55.6998" y1="64.7801" x2="117.22" y2="-32.85" gradientUnits="userSpaceOnUse">
<stop stop-color="#00EFBC"/>
<stop offset="0.06" stop-color="#06D2BB"/>
<stop offset="0.15" stop-color="#10ABBB"/>
<stop offset="0.25" stop-color="#188ABA"/>
<stop offset="0.36" stop-color="#1E6FBA"/>
<stop offset="0.47" stop-color="#235ABA"/>
<stop offset="0.6" stop-color="#274CBA"/>
<stop offset="0.76" stop-color="#2943BA"/>
<stop offset="1" stop-color="#2A41BA"/>
</linearGradient>
<linearGradient id="paint13_linear_8101_20967" x1="55.7013" y1="64.7803" x2="117.221" y2="-32.8498" gradientUnits="userSpaceOnUse">
<stop stop-color="#00EFBC"/>
<stop offset="0.06" stop-color="#06D2BB"/>
<stop offset="0.15" stop-color="#10ABBB"/>
<stop offset="0.25" stop-color="#188ABA"/>
<stop offset="0.36" stop-color="#1E6FBA"/>
<stop offset="0.47" stop-color="#235ABA"/>
<stop offset="0.6" stop-color="#274CBA"/>
<stop offset="0.76" stop-color="#2943BA"/>
<stop offset="1" stop-color="#2A41BA"/>
</linearGradient>
<linearGradient id="paint14_linear_8101_20967" x1="55.7005" y1="64.7803" x2="117.22" y2="-32.8497" gradientUnits="userSpaceOnUse">
<stop stop-color="#00EFBC"/>
<stop offset="0.06" stop-color="#06D2BB"/>
<stop offset="0.15" stop-color="#10ABBB"/>
<stop offset="0.25" stop-color="#188ABA"/>
<stop offset="0.36" stop-color="#1E6FBA"/>
<stop offset="0.47" stop-color="#235ABA"/>
<stop offset="0.6" stop-color="#274CBA"/>
<stop offset="0.76" stop-color="#2943BA"/>
<stop offset="1" stop-color="#2A41BA"/>
</linearGradient>
<linearGradient id="paint15_linear_8101_20967" x1="55.7003" y1="64.7803" x2="117.22" y2="-32.8497" gradientUnits="userSpaceOnUse">
<stop stop-color="#00EFBC"/>
<stop offset="0.06" stop-color="#06D2BB"/>
<stop offset="0.15" stop-color="#10ABBB"/>
<stop offset="0.25" stop-color="#188ABA"/>
<stop offset="0.36" stop-color="#1E6FBA"/>
<stop offset="0.47" stop-color="#235ABA"/>
<stop offset="0.6" stop-color="#274CBA"/>
<stop offset="0.76" stop-color="#2943BA"/>
<stop offset="1" stop-color="#2A41BA"/>
</linearGradient>
<linearGradient id="paint16_linear_8101_20967" x1="55.7011" y1="64.7808" x2="117.221" y2="-32.8491" gradientUnits="userSpaceOnUse">
<stop stop-color="#00EFBC"/>
<stop offset="0.06" stop-color="#06D2BB"/>
<stop offset="0.15" stop-color="#10ABBB"/>
<stop offset="0.25" stop-color="#188ABA"/>
<stop offset="0.36" stop-color="#1E6FBA"/>
<stop offset="0.47" stop-color="#235ABA"/>
<stop offset="0.6" stop-color="#274CBA"/>
<stop offset="0.76" stop-color="#2943BA"/>
<stop offset="1" stop-color="#2A41BA"/>
</linearGradient>
<linearGradient id="paint17_linear_8101_20967" x1="55.7005" y1="64.7805" x2="117.22" y2="-32.8495" gradientUnits="userSpaceOnUse">
<stop stop-color="#00EFBC"/>
<stop offset="0.06" stop-color="#06D2BB"/>
<stop offset="0.15" stop-color="#10ABBB"/>
<stop offset="0.25" stop-color="#188ABA"/>
<stop offset="0.36" stop-color="#1E6FBA"/>
<stop offset="0.47" stop-color="#235ABA"/>
<stop offset="0.6" stop-color="#274CBA"/>
<stop offset="0.76" stop-color="#2943BA"/>
<stop offset="1" stop-color="#2A41BA"/>
</linearGradient>
<linearGradient id="paint18_linear_8101_20967" x1="55.7004" y1="64.7803" x2="117.22" y2="-32.8495" gradientUnits="userSpaceOnUse">
<stop stop-color="#00EFBC"/>
<stop offset="0.06" stop-color="#06D2BB"/>
<stop offset="0.15" stop-color="#10ABBB"/>
<stop offset="0.25" stop-color="#188ABA"/>
<stop offset="0.36" stop-color="#1E6FBA"/>
<stop offset="0.47" stop-color="#235ABA"/>
<stop offset="0.6" stop-color="#274CBA"/>
<stop offset="0.76" stop-color="#2943BA"/>
<stop offset="1" stop-color="#2A41BA"/>
</linearGradient>
<linearGradient id="paint19_linear_8101_20967" x1="55.7007" y1="64.7807" x2="117.221" y2="-32.8495" gradientUnits="userSpaceOnUse">
<stop stop-color="#00EFBC"/>
<stop offset="0.06" stop-color="#06D2BB"/>
<stop offset="0.15" stop-color="#10ABBB"/>
<stop offset="0.25" stop-color="#188ABA"/>
<stop offset="0.36" stop-color="#1E6FBA"/>
<stop offset="0.47" stop-color="#235ABA"/>
<stop offset="0.6" stop-color="#274CBA"/>
<stop offset="0.76" stop-color="#2943BA"/>
<stop offset="1" stop-color="#2A41BA"/>
</linearGradient>
<linearGradient id="paint20_linear_8101_20967" x1="55.7014" y1="64.7805" x2="117.221" y2="-32.8497" gradientUnits="userSpaceOnUse">
<stop stop-color="#00EFBC"/>
<stop offset="0.06" stop-color="#06D2BB"/>
<stop offset="0.15" stop-color="#10ABBB"/>
<stop offset="0.25" stop-color="#188ABA"/>
<stop offset="0.36" stop-color="#1E6FBA"/>
<stop offset="0.47" stop-color="#235ABA"/>
<stop offset="0.6" stop-color="#274CBA"/>
<stop offset="0.76" stop-color="#2943BA"/>
<stop offset="1" stop-color="#2A41BA"/>
</linearGradient>
<linearGradient id="paint21_linear_8101_20967" x1="55.7014" y1="64.7803" x2="117.221" y2="-32.8497" gradientUnits="userSpaceOnUse">
<stop stop-color="#00EFBC"/>
<stop offset="0.06" stop-color="#06D2BB"/>
<stop offset="0.15" stop-color="#10ABBB"/>
<stop offset="0.25" stop-color="#188ABA"/>
<stop offset="0.36" stop-color="#1E6FBA"/>
<stop offset="0.47" stop-color="#235ABA"/>
<stop offset="0.6" stop-color="#274CBA"/>
<stop offset="0.76" stop-color="#2943BA"/>
<stop offset="1" stop-color="#2A41BA"/>
</linearGradient>
<linearGradient id="paint22_linear_8101_20967" x1="55.7002" y1="64.7808" x2="117.22" y2="-32.8491" gradientUnits="userSpaceOnUse">
<stop stop-color="#00EFBC"/>
<stop offset="0.06" stop-color="#06D2BB"/>
<stop offset="0.15" stop-color="#10ABBB"/>
<stop offset="0.25" stop-color="#188ABA"/>
<stop offset="0.36" stop-color="#1E6FBA"/>
<stop offset="0.47" stop-color="#235ABA"/>
<stop offset="0.6" stop-color="#274CBA"/>
<stop offset="0.76" stop-color="#2943BA"/>
<stop offset="1" stop-color="#2A41BA"/>
</linearGradient>
</defs>
</svg>
