<svg width="19" height="19" viewBox="0 0 19 19" fill="none" xmlns="http://www.w3.org/2000/svg">
<path d="M9.49985 4.00014C9.49985 3.7418 9.49985 3.6116 9.55922 3.50535C9.61387 3.41457 9.6949 3.34262 9.79151 3.2991C9.90401 3.25326 10.0186 3.26785 10.2478 3.29493C11.2738 3.41876 12.2532 3.79512 13.0981 4.39029C13.943 4.98546 14.6272 5.78088 15.0893 6.70532C15.5514 7.62977 15.7771 8.65438 15.7461 9.68743C15.7151 10.7205 15.4284 11.7297 14.9116 12.6248C14.3949 13.5198 13.6643 14.2728 12.7851 14.8162C11.906 15.3596 10.9059 15.6766 9.87423 15.7386C8.84258 15.8007 7.81165 15.606 6.87372 15.1719C5.9358 14.7377 5.12016 14.0778 4.49985 13.2512C4.3613 13.0658 4.29151 12.9731 4.27589 12.8533C4.26509 12.7475 4.2869 12.641 4.33839 12.5481C4.40089 12.4439 4.51235 12.3793 4.7363 12.2501L9.12485 9.7168C9.2613 9.63764 9.33005 9.59805 9.37901 9.54285C9.42199 9.49327 9.45521 9.43601 9.47693 9.37409C9.49985 9.3043 9.49985 9.22514 9.49985 9.0668V4.00014Z" fill="#3D91C7"/>
<path d="M9.49992 18.3543C14.3899 18.3543 18.3541 14.3902 18.3541 9.50016C18.3541 4.61014 14.3899 0.645996 9.49992 0.645996C4.6099 0.645996 0.645752 4.61014 0.645752 9.50016C0.645752 14.3902 4.6099 18.3543 9.49992 18.3543Z" stroke="#3D91C7"/>
</svg>
