<svg width="23" height="42" viewBox="0 0 23 42" fill="none" xmlns="http://www.w3.org/2000/svg">
<path d="M1.4854 38.3189C1.29744 38.5178 1.1505 38.7518 1.05297 39.0074C0.955439 39.2631 0.909222 39.5355 0.91696 39.8091C0.924698 40.0826 0.98624 40.3519 1.09807 40.6017C1.2099 40.8515 1.36983 41.0768 1.56873 41.2647C1.76763 41.4527 2.0016 41.5996 2.25728 41.6971C2.51297 41.7947 2.78536 41.8409 3.0589 41.8332C3.33245 41.8254 3.6018 41.7639 3.85156 41.652C4.10132 41.5402 4.32661 41.3803 4.51456 41.1814L22.2229 22.4314C22.5886 22.0446 22.7924 21.5324 22.7924 21.0001C22.7924 20.4678 22.5886 19.9557 22.2229 19.5689L4.51456 0.816799C4.32785 0.613548 4.10261 0.449417 3.85193 0.33395C3.60125 0.218483 3.33012 0.153976 3.0543 0.144176C2.77848 0.134377 2.50346 0.179482 2.24522 0.276867C1.98697 0.374256 1.75065 0.52198 1.54999 0.711472C1.34932 0.900959 1.1883 1.12843 1.07629 1.38068C0.964273 1.63292 0.903498 1.9049 0.89749 2.18084C0.891479 2.45676 0.940355 2.73114 1.04128 2.98802C1.14221 3.2449 1.29317 3.47917 1.4854 3.67722L17.8437 21.0001L1.4854 38.3189Z" fill="black"/>
</svg>
