<svg width="150" height="150" viewBox="0 0 150 150" fill="none" xmlns="http://www.w3.org/2000/svg">
<path d="M25 50V37.5C25 34.1848 26.317 31.0054 28.6612 28.6612C31.0054 26.317 34.1848 25 37.5 25H50M25 100V112.5C25 115.815 26.317 118.995 28.6612 121.339C31.0054 123.683 34.1848 125 37.5 125H50M100 25H112.5C115.815 25 118.995 26.317 121.339 28.6612C123.683 31.0054 125 34.1848 125 37.5V50M100 125H112.5C115.815 125 118.995 123.683 121.339 121.339C123.683 118.995 125 115.815 125 112.5V100M43.75 75H106.25" stroke="white" stroke-width="2" stroke-linecap="round" stroke-linejoin="round"/>
</svg>
