<svg width="95" height="78" viewBox="0 0 95 78" fill="none" xmlns="http://www.w3.org/2000/svg">
<path d="M7.72222 25.4183C7.7222 24.6558 7.49644 23.9104 7.07339 23.2761C6.65034 22.6417 6.04895 22.1469 5.34504 21.8538C4.64113 21.5608 3.86622 21.4827 3.11801 21.6295C2.36979 21.7762 1.68177 22.1412 1.1407 22.6784C0.599623 23.2156 0.229714 23.901 0.0776096 24.6481C-0.0744944 25.3953 -0.00198353 26.1707 0.286 26.8767C0.573983 27.5827 1.06455 28.1876 1.69584 28.6152C2.32713 29.0428 3.07089 29.2739 3.83333 29.2794C4.34272 29.2831 4.84779 29.1859 5.31945 28.9935C5.79111 28.8011 6.22004 28.5173 6.58153 28.1584C6.94301 27.7995 7.22991 27.3726 7.42568 26.9023C7.62145 26.4321 7.72224 25.9277 7.72222 25.4183ZM84.9722 32.3905C80.59 33.2095 76.3197 34.5428 72.25 36.3627C68.8598 38.0142 65.6246 39.9665 62.5833 42.1961C60.7242 39.7606 59.0967 37.1567 57.7222 34.4183C54.5225 27.5339 51.9203 20.3872 49.9445 13.0572C49.7817 12.4512 49.4185 11.9181 48.9141 11.5449C48.4097 11.1716 47.7938 10.9801 47.1667 11.0016C46.5396 10.9801 45.9236 11.1716 45.4192 11.5449C44.9148 11.9181 44.5517 12.4512 44.3889 13.0572C42.4264 20.3914 39.8238 27.5392 36.6111 34.4183C35.2381 37.1636 33.6008 39.7685 31.7222 42.1961C28.6809 39.9665 25.4457 38.0142 22.0556 36.3627C17.9831 34.55 13.7137 33.217 9.33334 32.3905C8.81524 32.2884 8.27876 32.336 7.78678 32.5279C7.2948 32.7198 6.86771 33.0479 6.55556 33.4738C6.24649 33.8885 6.05934 34.3813 6.01517 34.8966C5.971 35.4119 6.07157 35.9293 6.30556 36.3905C12.1709 48.5979 16.2228 61.596 18.3333 74.9738C18.4458 75.6261 18.7874 76.2167 19.2966 76.6394C19.8059 77.0621 20.4494 77.289 21.1111 77.2794H73.3333C73.9951 77.289 74.6385 77.0621 75.1478 76.6394C75.6571 76.2167 75.9987 75.6261 76.1111 74.9738C78.1638 61.607 82.1499 48.6098 87.9445 36.3905C88.1784 35.9293 88.279 35.4119 88.2348 34.8966C88.1907 34.3813 88.0035 33.8885 87.6945 33.4738C87.3867 33.0575 86.9688 32.7355 86.4878 32.5441C86.0068 32.3527 85.4818 32.2995 84.9722 32.3905ZM71.0278 71.7238H23.3889C21.4406 60.5683 18.2735 49.6604 13.9444 39.1961C15.9277 39.7823 17.8676 40.5063 19.75 41.3627C23.5628 43.2158 27.151 45.4992 30.4444 48.1683C30.9942 48.6368 31.7049 48.8728 32.4257 48.8261C33.1465 48.7794 33.8208 48.4538 34.3056 47.9183C37.2314 44.5383 39.7229 40.8056 41.7222 36.8072C43.8445 32.3948 45.6997 27.8588 47.2778 23.2239C48.8427 27.8637 50.6983 32.4005 52.8333 36.8072C54.841 40.7943 57.3218 44.5249 60.2222 47.9183C60.708 48.462 61.3879 48.7929 62.1155 48.8396C62.843 48.8864 63.5598 48.6453 64.1111 48.1683C67.3927 45.4827 70.9829 43.198 74.8056 41.3627C76.6843 40.4974 78.6248 39.7732 80.6111 39.1961C76.2195 49.6495 73.0053 60.5592 71.0278 71.7238Z" fill="#EF4A50"/>
<path d="M90.5838 29.2794C92.7162 29.2794 94.4449 27.5507 94.4449 25.4183C94.4449 23.2859 92.7162 21.5572 90.5838 21.5572C88.4513 21.5572 86.7227 23.2859 86.7227 25.4183C86.7227 27.5507 88.4513 29.2794 90.5838 29.2794Z" fill="#EF4A50"/>
<path d="M46.8611 7.72222C48.9936 7.72222 50.7222 5.99354 50.7222 3.86111C50.7222 1.72868 48.9936 0 46.8611 0C44.7287 0 43 1.72868 43 3.86111C43 5.99354 44.7287 7.72222 46.8611 7.72222Z" fill="#EF4A50"/>
<path d="M33.8611 68.7222C35.9936 68.7222 37.7222 66.9935 37.7222 64.8611C37.7222 62.7287 35.9936 61 33.8611 61C31.7287 61 30 62.7287 30 64.8611C30 66.9935 31.7287 68.7222 33.8611 68.7222Z" fill="#EF4A50"/>
<path d="M59.8611 68.7222C61.9936 68.7222 63.7222 66.9935 63.7222 64.8611C63.7222 62.7287 61.9936 61 59.8611 61C57.7287 61 56 62.7287 56 64.8611C56 66.9935 57.7287 68.7222 59.8611 68.7222Z" fill="#EF4A50"/>
<path d="M46.8611 68.7222C48.9936 68.7222 50.7222 66.9935 50.7222 64.8611C50.7222 62.7287 48.9936 61 46.8611 61C44.7287 61 43 62.7287 43 64.8611C43 66.9935 44.7287 68.7222 46.8611 68.7222Z" fill="#EF4A50"/>
</svg>
