<svg width="107" height="41" viewBox="0 0 107 41" fill="none" xmlns="http://www.w3.org/2000/svg">
<path d="M49.2441 35.8398H52.3123V25.8398H49.2441V35.8398ZM49.2441 23.8398H52.3123V21.8398H49.2441V23.8398Z" fill="#333333"/>
<path d="M53.334 39.8398H56.4021V34.8398H56.4941C57.0872 35.8398 58.0588 36.4199 59.5417 36.4199C62.2518 36.4199 64.1029 34.3097 64.1029 30.9697C64.1029 27.6297 62.3132 25.52 59.5212 25.52C58.0792 25.52 57.0975 26.1798 56.4123 26.8398H57.4248V25.8398H53.334V39.8398ZM58.9383 34.1499C57.2713 34.1499 56.3918 32.9198 56.3918 31.0498C56.3918 29.1798 57.0873 27.73 58.8361 27.73C60.5849 27.73 61.2599 29.0998 61.2599 31.0498C61.2599 32.9998 60.3599 34.1499 58.9383 34.1499Z" fill="#333333"/>
<path d="M69.6876 36.6299C72.4284 36.6299 74.3102 35.3299 74.3102 33.1699C74.3102 30.6599 72.275 30.1498 70.4342 29.7798C68.8694 29.4698 67.4171 29.38 67.4171 28.46C67.4171 27.69 68.1638 27.27 69.299 27.27C70.5365 27.27 71.2932 27.6898 71.4159 28.8398H74.0545C73.8398 26.6798 72.234 25.2798 69.3398 25.2798C66.8342 25.2798 64.8604 26.39 64.8604 28.71C64.8604 31.03 66.7831 31.58 68.7569 31.96C70.2603 32.25 71.6511 32.3599 71.6511 33.3799C71.6511 34.1299 70.925 34.6201 69.6364 34.6201C68.3478 34.6201 67.4274 34.0798 67.2331 32.8398H64.5332C64.7071 35.1198 66.4866 36.6299 69.6774 36.6299H69.6876Z" fill="#333333"/>
<path d="M85.0375 35.8398V25.8398H81.9694V31.79C81.9694 33.16 81.1205 34.1201 79.7296 34.1201C78.4717 34.1201 77.8786 33.46 77.8786 32.25V25.8398H74.8105V32.6299C74.8105 34.8599 76.2116 36.3101 78.6967 36.3101C80.2717 36.3101 81.141 35.7698 81.908 34.8398H81.9694V35.8398H85.0375Z" fill="#333333"/>
<path d="M86.061 35.8398H89.1291V30.1299C89.3439 28.7599 90.1108 27.8799 91.2358 27.8799C92.2687 27.8799 92.8619 28.4799 92.1972 29.6499V35.8398H96.288V30.1299C95.6641 28.7599 96.38 27.8799 97.5561 27.8799C98.589 27.8799 99.356 29.6499 99.356 29.6499V35.8398H101.401V29.1802C101.401 29.1802 100.716 25.52 98.4969 25.52C97.1572 25.52 96.0527 26.1998 95.3266 26.8398H95.2856C94.7743 26.2498 93.7005 25.52 92.3607 25.52C90.8983 25.52 89.8756 26.2398 89.2926 27.8398H89.1189V25.8398H86.0508V35.8398H86.061Z" fill="#333333"/>
<path d="M49.2441 17.8398H52.3123V3.83984H49.2441V17.8398Z" fill="#333333"/>
<path d="M58.735 18.7598C62.0076 18.7598 64.2473 16.3901 64.2473 13.3101C64.2473 10.2301 62.0076 7.85986 58.735 7.85986C55.4624 7.85986 53.2227 10.2301 53.2227 13.3101C53.2227 16.3901 55.4624 18.7598 58.735 18.7598ZM58.735 16.6699C57.0066 16.6699 56.0658 15.3201 56.0658 13.3101C56.0658 11.3001 57.0066 9.93018 58.735 9.93018C60.4633 9.93018 61.4042 11.3001 61.4042 13.3101C61.4042 15.3201 60.4429 16.6699 58.735 16.6699Z" fill="#333333"/>
<path d="M70.1892 21.98C71.7539 21.98 73.1141 21.6201 73.9936 20.8101C74.7709 20.1101 75.8243 17.6699 75.8243 17.6699V7.83984H72.7562V9.83984H72.7152C72.1119 9.01984 71.2017 8.5498 69.954 8.5498C67.428 8.5498 65.6382 10.4098 65.6382 13.3198C65.6382 16.2298 67.8165 17.98 70.0358 17.98C71.3039 17.98 72.0608 17.4898 72.6437 16.8398H72.7562V17.75C72.4903 19.16 71.7232 19.8999 70.1483 19.8999C68.8495 19.8999 68.2563 19.3998 68.0314 18.8398H65.2598C65.5461 20.7698 67.3155 21.9697 70.1995 21.9697L70.1892 21.98ZM70.1483 15.6401C68.7063 15.6401 67.7654 14.6101 67.7654 12.8701C67.7654 11.1301 68.7063 10.0601 70.1278 10.0601C71.8152 10.0601 72.6335 11.3501 72.6335 12.8501C72.6335 14.3501 71.9175 15.6401 70.1483 15.6401Z" fill="#333333"/>
<path d="M82.0416 18.7598C85.3143 18.7598 87.554 16.3901 87.554 13.3101C87.554 10.2301 85.3143 7.85986 82.0416 7.85986C78.769 7.85986 76.5293 10.2301 76.5293 13.3101C76.5293 16.3901 78.769 18.7598 82.0416 18.7598ZM82.0416 16.6699C80.3133 16.6699 79.3724 15.3201 79.3724 13.3101C79.3724 11.3001 80.3133 9.93018 82.0416 9.93018C83.77 9.93018 84.7108 11.3001 84.7108 13.3101C84.7108 15.3201 83.7393 16.6699 82.0416 16.6699Z" fill="#333333"/>
<path d="M90.1523 13.8398H102.425V11.8398H90.1523V13.8398Z" fill="#333333"/>
<path d="M102.986 24.0601C102.986 23.6001 103.375 23.2201 103.845 22.8501H105.553C106.024 23.2301 106.412 23.6001 106.412 24.0601C106.412 24.5201 106.024 24.9001 105.553 24.8501H103.845C103.375 24.9001 102.986 24.5301 102.986 24.0601Z" fill="#333333"/>
<path fill-rule="evenodd" clip-rule="evenodd" d="M20.8133 0.879883C32.114 0.879883 41.2671 9.82988 41.2671 20.8799C41.2671 31.9299 32.114 40.8799 20.8133 40.8799C9.51249 40.8799 0.359375 31.9299 0.359375 20.8799C0.359375 9.82988 9.51249 0.879883 20.8133 0.879883ZM19.586 2.37988C17.2543 2.69988 15.035 4.5301 13.3067 7.6001C12.8055 8.4901 12.3556 9.46979 11.9568 10.5298C14.2987 9.94979 16.8759 9.61006 19.586 9.56006V2.37012V2.37988ZM10.7193 11.02C11.2102 9.52002 11.8033 8.14016 12.4987 6.91016C13.3578 5.39016 14.3703 4.07982 15.5157 3.06982C9.29773 4.83982 4.39901 9.62996 2.58884 15.71C3.62176 14.59 4.96152 13.5998 6.51601 12.7598C7.77393 12.0798 9.18523 11.5 10.7193 11.02ZM10.2284 12.3901C9.63523 14.6801 9.28749 17.2001 9.23635 19.8501H1.88318C2.21044 17.5701 4.082 15.4 7.22167 13.71C8.13187 13.22 9.1341 12.7801 10.2182 12.3901H10.2284ZM10.2284 19.8398C10.2898 16.9498 10.7193 14.2501 11.4147 11.8501C13.8589 11.1601 16.6304 10.7499 19.586 10.6899V13.8101C18.4815 16.5701 16.2418 18.7598 13.4192 19.8398H10.2284ZM9.24659 21.8398H1.89342C2.22068 24.1198 4.09218 26.29 7.23185 27.98C8.14205 28.47 9.14434 28.9098 10.2284 29.2998C9.63523 27.0098 9.28749 24.4898 9.23635 21.8398H9.24659ZM11.4147 29.8301C10.709 27.4401 10.2898 24.7298 10.2284 21.8398H13.4192C16.2418 22.9198 18.4815 25.1101 19.586 27.8701V30.9897C16.6406 30.9297 13.8692 30.5101 11.4147 29.8301ZM10.7193 30.75C9.18523 30.27 7.77393 29.6898 6.51601 29.0098C4.96152 28.1698 3.62176 27.1801 2.58884 26.0601C4.39901 32.1401 9.29773 36.9297 15.5157 38.6997C14.3703 37.6897 13.3578 36.3799 12.4987 34.8599C11.8033 33.6299 11.2102 32.25 10.7193 30.75ZM19.586 39.3901C17.2543 39.0701 15.035 37.2399 13.3067 34.1699C12.8055 33.2799 12.3556 32.2997 11.9568 31.2397C14.2987 31.8197 16.8759 32.16 19.586 32.21V39.3999V39.3901ZM26.121 38.6997C27.2665 37.6897 28.2789 36.3799 29.138 34.8599C29.8334 33.6299 30.4266 32.25 30.9175 30.75C32.4515 30.27 33.8628 29.6898 35.1207 29.0098C36.6752 28.1698 38.015 27.1801 39.0479 26.0601C37.2377 32.1401 32.339 36.9297 26.121 38.6997ZM29.2505 31.23C28.8619 32.29 28.4016 33.2702 27.9005 34.1602C26.1722 37.2302 23.9529 39.0599 21.6212 39.3799V32.1899C24.3211 32.1399 26.8983 31.7997 29.2505 31.2197V31.23ZM31.3981 29.2998C32.4822 28.9198 33.4845 28.47 34.3947 27.98C37.5343 26.29 39.4058 24.1198 39.7331 21.8398H32.3799C32.3288 24.4798 31.9811 26.9998 31.3879 29.2998H31.3981ZM30.9788 21.8398C30.9175 24.7298 30.488 27.4301 29.7925 29.8301C27.3483 30.5201 24.5767 30.9297 21.6212 30.9897V27.8701C22.7257 25.1101 24.9654 22.9198 27.788 21.8398H30.9788ZM32.3902 19.8398H39.7433C39.4161 17.5598 37.5445 15.3897 34.4048 13.6997C33.4946 13.2097 32.4924 12.7699 31.4083 12.3799C32.0015 14.6699 32.3493 17.1898 32.4004 19.8398H32.3902ZM29.7925 11.8599C30.4982 14.2499 30.9175 16.9601 30.9788 19.8501H27.788C24.9654 18.7701 22.7257 16.5798 21.6212 13.8198V10.6997C24.5767 10.7597 27.3381 11.1799 29.7925 11.8599ZM30.9072 11.02C32.4413 11.5 33.8526 12.0798 35.1105 12.7598C36.665 13.5998 38.0047 14.59 39.0377 15.71C37.2275 9.62996 32.3288 4.83982 26.1108 3.06982C27.2562 4.07982 28.2687 5.39016 29.1278 6.91016C29.8232 8.14016 30.4163 9.52002 30.9072 11.02ZM21.6314 2.37988C23.9631 2.69988 26.1824 4.5301 27.9108 7.6001C28.4119 8.4901 28.8619 9.46979 29.2607 10.5298C26.9187 9.94979 24.3415 9.61006 21.6314 9.56006V2.37012V2.37988Z" fill="#333333"/>
</svg>
