<svg width="123" height="28" viewBox="0 0 123 28" fill="none" xmlns="http://www.w3.org/2000/svg">
<path d="M36.3496 8.48983H39.4177V20.4898H36.3496V8.48983ZM40.2768 15.5098C40.2768 12.5098 42.1585 10.7198 45.063 10.7198C47.9674 10.7198 49.8492 12.5098 49.8492 15.5098C49.8492 18.5098 48.0083 20.3101 45.063 20.3101C42.1176 20.3101 40.2768 18.5598 40.2768 15.5098ZM46.5765 15.5098C46.5765 13.8598 45.9118 12.8902 44.8687 12.8902C43.8255 12.8902 43.171 13.8898 43.171 15.5098C43.171 17.1298 43.8153 18.1099 44.8687 18.1099C45.922 18.1099 46.5765 17.1901 46.5765 15.5201V15.5098ZM50.6673 20.4898H53.3673C53.5104 20.7898 53.7456 21.05 54.0422 21.21C54.3388 21.37 54.6865 21.4402 55.024 21.3902C56.1899 21.3902 56.8035 20.7702 56.8035 19.8702V18.4898H57.3251C57.0796 18.8998 56.6808 19.3302 56.1899 19.6202C55.6888 19.9102 55.1161 20.0501 54.5331 20.0201C52.2934 20.0201 50.8105 18.3501 50.8105 15.4801C50.8105 12.6101 52.2218 10.7999 54.574 10.7999C55.1672 10.7799 55.7603 10.9301 56.2717 11.2501C56.7728 11.5601 57.1717 12.0201 57.8262 12.5601V11.4898H59.8716V19.8599C59.8716 21.8699 57.9489 23.1202 55.116 23.1202C52.4775 23.1202 50.8412 22.0301 50.6673 20.5001V20.4898ZM57.8262 15.5001C57.8262 14.0401 57.141 13.1202 56.0569 13.1202C54.9729 13.1202 54.3081 14.0301 54.3081 15.5001C54.3081 16.9701 54.9627 17.7999 56.0569 17.7999C57.1512 17.7999 57.8262 16.9898 57.8262 15.5098V15.5001ZM61.917 15.5001C61.917 12.5001 63.7987 10.71 66.7032 10.71C69.6076 10.71 71.4996 12.5001 71.4996 15.5001C71.4996 18.5001 69.6587 20.2999 66.7032 20.2999C63.7476 20.2999 61.917 18.5598 61.917 15.5098V15.5001ZM68.0531 15.5001C68.0531 13.8501 67.3884 12.88 66.3452 12.88C65.3021 12.88 64.6987 13.8901 64.6987 15.5201C64.6987 17.1501 65.343 18.1202 66.3861 18.1202C67.4293 18.1202 68.0531 17.1901 68.0531 15.5201V15.5001ZM72.1439 8.71004C72.1439 8.41004 72.2155 8.11018 72.3893 7.85018C72.553 7.59018 72.7984 7.3901 73.0745 7.2701C73.3507 7.1501 73.6677 7.11024 73.9745 7.16024C74.2813 7.21024 74.5575 7.35014 74.7825 7.56014C75.0075 7.77014 75.1609 8.04016 75.2325 8.33016C75.304 8.63016 75.2734 8.92981 75.1609 9.21981C75.0484 9.49981 74.8541 9.75001 74.5984 9.92001C74.3427 10.09 74.0461 10.1898 73.7291 10.1998C73.5245 10.2098 73.32 10.1902 73.1257 10.1202C72.9314 10.0502 72.7575 9.95014 72.6041 9.81014C72.4507 9.67014 72.3382 9.50991 72.2564 9.31991C72.1746 9.12991 72.1337 8.94006 72.1337 8.73006V8.71004H72.1439ZM72.1439 11.4898H75.212V20.4898H72.1439V11.4898ZM86.9627 15.4698C86.9627 18.4798 85.6025 20.1998 83.2606 20.1998C82.6572 20.2398 82.064 20.0901 81.5527 19.7901C81.0413 19.4801 80.6323 19.0301 80.3868 18.5001H80.3255V22.5001H77.2574V10.5001H80.3255V12.5001H80.3868C80.622 11.9501 81.0209 11.49 81.522 11.17C82.0231 10.85 82.6265 10.6998 83.2299 10.7198C85.5924 10.7598 86.9934 12.4901 86.9934 15.5001L86.9525 15.4801L86.9627 15.4698ZM83.3935 15.5001C83.3935 14.0401 82.7084 13.1099 81.6345 13.1099C80.5607 13.1099 79.8755 14.0501 79.8652 15.5001C79.8652 16.9501 80.5607 17.88 81.6345 17.88C82.7084 17.88 83.3935 16.9701 83.3935 15.5201V15.5001ZM91.5751 10.6998C94.3875 10.6998 95.9318 11.8798 96.0034 13.4898H93.2114C93.2114 13.1198 92.6591 12.71 91.8103 12.71C90.9614 12.71 90.5831 13.0301 90.5831 13.5001C90.5831 13.9701 90.9206 14.1198 91.6058 14.2598L93.5694 14.65C95.4409 15.04 96.2386 15.78 96.2386 17.17C96.2386 19.07 94.4693 20.2901 91.8615 20.2901C89.2536 20.2901 87.5457 19.0698 87.4127 16.4898H90.3683C90.4604 17.8798 91.0126 18.2799 91.9126 18.2799C92.8126 18.2799 93.2216 17.9898 93.2216 17.5098C93.2216 17.0298 92.9353 16.9299 92.1989 16.7799L90.4297 16.4102C88.599 16.0402 87.6377 15.09 87.6377 13.69C87.6582 11.89 89.3047 10.7198 91.5751 10.7198V10.6998ZM106.864 19.4898H103.837V18.4898H103.776C103.612 19.0298 103.264 19.4999 102.774 19.8199C102.283 20.1499 101.69 20.3099 101.086 20.2799C100.626 20.2999 100.166 20.2402 99.7362 20.0802C99.3066 19.9202 98.918 19.69 98.601 19.38C98.284 19.07 98.0283 18.7099 97.8749 18.2999C97.7214 17.8999 97.6601 17.4701 97.701 17.0401V11.4801L100.769 10.4801V15.7198C100.769 16.8098 101.342 17.3902 102.293 17.3902C102.518 17.3902 102.733 17.3401 102.937 17.2501C103.142 17.1601 103.316 17.0302 103.469 16.8702C103.612 16.7102 103.725 16.5099 103.786 16.2999C103.847 16.0899 103.868 15.8702 103.837 15.6602V10.4801H106.905L106.864 19.4801V19.4898ZM107.989 11.4898H111.006V12.4898H110.986C111.149 12.0998 111.497 11.6001 111.978 11.2501C112.459 10.9001 113.052 10.7101 113.655 10.7301C114.269 10.6801 114.872 10.8601 115.363 11.2301C115.844 11.6001 116.263 13.5001 116.263 13.5001H116.6C116.774 12.9301 117.142 12.4399 117.633 12.0899C118.124 11.7499 118.728 11.5702 119.331 11.6002C119.73 11.5902 120.118 11.6599 120.487 11.7999C120.855 11.9499 121.182 12.1698 121.458 12.4498C121.734 12.7298 121.949 13.0603 122.082 13.4303C122.215 13.7903 122.276 14.1799 122.246 14.5699V20.5098H119.178V14.6602C119.198 13.6602 118.738 13.1998 117.879 13.1998C117.684 13.1998 117.5 13.2401 117.327 13.3101C117.153 13.3901 116.999 13.5002 116.866 13.6402C116.744 13.7802 116.641 13.9502 116.59 14.1202C116.529 14.3002 116.519 14.49 116.11 14.67V20.5001H114.064V14.6099C113.624 13.6899 113.164 13.19 112.326 13.19C112.131 13.19 111.937 13.2301 111.763 13.3101C111.589 13.3901 111.426 13.5002 111.303 13.6402C111.17 13.7802 111.078 13.95 111.017 14.13C110.955 14.31 110.945 14.5 110.996 14.69V20.5001H107.928L107.979 11.5001L107.989 11.4898Z" fill="#333333"/>
<path d="M27.4104 8.5098C26.8888 7.3498 26.2036 6.26007 25.365 5.29007C24.1276 3.81007 22.5833 2.60003 20.8345 1.75003C19.0857 0.900034 17.1733 0.410112 15.2199 0.330112C13.2666 0.250112 11.3234 0.579819 9.50304 1.27982C7.69287 1.98982 6.04631 3.06998 4.68613 4.43998C3.32594 5.80998 2.28279 7.45003 1.61804 9.25003C0.953292 11.05 0.687434 12.9602 0.830611 14.8702C0.973788 16.7802 1.53625 18.6301 2.4669 20.3101C3.39755 21.9901 4.68615 23.4599 6.24064 24.6099C7.24288 25.3699 8.33717 25.98 9.51327 26.44C11.1598 27.1 12.9189 27.44 14.6983 27.44C18.3698 27.44 21.8879 26 24.4855 23.46C27.0832 20.92 28.5354 17.4802 28.5354 13.8902C28.5354 12.0402 28.1467 10.2098 27.3899 8.5098H27.4104ZM14.7086 3.08011C16.304 3.08011 17.8789 3.42011 19.3311 4.08011C18.9732 4.23011 18.605 4.33017 18.2266 4.39017C16.979 4.57017 15.813 5.1398 14.9233 6.0098C14.0336 6.8798 13.4506 8.01978 13.2665 9.23978C13.1847 9.92978 12.8677 10.5598 12.3666 11.0498C11.8654 11.5298 11.2007 11.8302 10.495 11.8902C9.24733 12.0702 8.08148 12.6398 7.19174 13.5098C6.30199 14.3798 5.71906 15.5198 5.53498 16.7398C5.47362 17.3898 5.18728 18.01 4.72707 18.48C3.92937 16.83 3.57141 15.0197 3.6839 13.1997C3.7964 11.3797 4.37931 9.62011 5.38155 8.08011C6.38379 6.54011 7.75424 5.26994 9.39055 4.39994C11.0269 3.51994 12.8574 3.06009 14.7188 3.06009V3.08011H14.7086ZM6.25088 20.8902C6.3736 20.7802 6.49631 20.6801 6.61903 20.5601C7.52923 19.7001 8.11216 18.5601 8.27579 17.3301C8.33715 16.6401 8.65418 15.9898 9.16553 15.5098C9.65642 15.0098 10.3109 14.7099 11.0166 14.6499C12.2643 14.4699 13.4302 13.8998 14.3199 13.0298C15.2097 12.1598 15.7926 11.0198 15.9767 9.79984C16.0176 9.07984 16.3346 8.40017 16.8664 7.89017C17.3676 7.40017 18.0323 7.11009 18.738 7.06009C19.8834 6.91009 20.9572 6.40992 21.8061 5.62992C22.7674 6.40992 23.5855 7.35019 24.2196 8.41019C24.1787 8.46019 24.1378 8.50984 24.0867 8.54984C23.5958 9.04984 22.9412 9.36021 22.2356 9.43021C20.9879 9.60021 19.822 10.1698 18.9322 11.0498C18.0425 11.9198 17.4596 13.0598 17.2755 14.2798C17.2039 14.9698 16.8869 15.6101 16.3857 16.1001C15.8846 16.5901 15.2301 16.89 14.5244 16.96C13.2665 17.14 12.1109 17.7001 11.2109 18.5801C10.3109 19.4501 9.72806 20.5901 9.53375 21.8101C9.48261 22.3001 9.3087 22.7702 9.03257 23.1802C7.9792 22.5702 7.04858 21.8002 6.25088 20.8902ZM14.8722 24.75C13.8393 24.75 12.8063 24.6101 11.8041 24.3301C12.1416 23.7101 12.3666 23.0301 12.4586 22.3301C12.5302 21.6401 12.8472 20.9998 13.3381 20.5098C13.8393 20.0198 14.4938 19.7199 15.1994 19.6499C16.4574 19.4699 17.613 18.9098 18.513 18.0298C19.4129 17.1598 19.9959 16.0198 20.1697 14.7998C20.2413 14.1098 20.5583 13.47 21.0492 12.98C21.5504 12.49 22.2049 12.1902 22.9105 12.1202C23.8514 12.0002 24.7514 11.6602 25.5286 11.1202C25.9582 12.7202 26.0093 14.3898 25.6821 16.0098C25.3446 17.6298 24.6389 19.1498 23.6162 20.4698C22.5833 21.7798 21.264 22.8401 19.7505 23.5801C18.2369 24.3101 16.5699 24.7 14.8824 24.71V24.7598L14.8722 24.75Z" fill="#333333"/>
</svg>
