<svg width="226" height="41" viewBox="0 0 226 41" fill="none" xmlns="http://www.w3.org/2000/svg">
<path d="M41.5909 27.6201V6.43018C41.5909 6.28018 41.5807 6.11973 41.55 5.96973C40.9569 2.82973 38.3081 0.879883 35.4548 0.879883H22.1598V12.21C22.1598 12.51 22.2007 12.8199 22.2825 13.1099C22.9779 15.3399 24.4404 17.2197 26.3733 18.4897C27.5903 19.2897 28.9709 19.8198 30.4231 20.0498L30.8117 20.1099C30.9754 20.1599 31.1186 20.2699 31.2106 20.3999C31.3129 20.5399 31.364 20.7001 31.364 20.8701C31.364 21.0401 31.3129 21.1998 31.2106 21.3398C31.1083 21.4798 30.9754 21.5799 30.8117 21.6299L30.4231 21.6899C28.3061 22.0299 26.3528 23.0097 24.8392 24.4897C23.3256 25.9697 22.3234 27.8797 21.9757 29.9497L21.9143 30.3301C21.8632 30.4901 21.7507 30.6297 21.6177 30.7197C21.4746 30.8197 21.3109 30.8701 21.1371 30.8701C20.9632 30.8701 20.7996 30.8197 20.6564 30.7197C20.5132 30.6197 20.4109 30.4901 20.3598 30.3301L20.2985 29.9497C20.0632 28.5297 19.5212 27.1897 18.7031 25.9897C17.4042 24.0997 15.4816 22.6797 13.201 21.9897C12.9044 21.8997 12.5873 21.8701 12.2805 21.8701H0.713867C1.53202 38.0701 22.0575 49.1998 39.3308 32.8198C40.5683 31.6398 41.6012 29.2999 41.6012 27.6099L41.5909 27.6201Z" fill="#333333"/>
<path d="M0.682617 19.8799H10.9914C12.6174 19.8799 14.2538 19.5099 15.6242 18.6699C16.9434 17.8699 18.048 16.7797 18.8764 15.4897C19.7354 14.1397 20.1138 12.55 20.1138 10.96V0.879883H6.90058C6.25629 0.879883 5.60177 0.950137 4.98815 1.14014C2.30869 2.00014 0.682617 4.35988 0.682617 6.87988V19.8799ZM48.1868 2.6499C48.1868 3.1799 47.972 3.69006 47.5833 4.06006C47.1947 4.44006 46.6834 4.6499 46.1414 4.6499C45.5993 4.6499 45.0778 4.44006 44.6994 4.06006C44.3108 3.68006 44.096 3.1799 44.096 2.6499C44.096 2.1199 44.3108 1.60975 44.6994 1.23975C45.088 0.859746 45.5993 0.649902 46.1414 0.649902C46.6834 0.649902 47.205 0.859746 47.5833 1.23975C47.972 1.61975 48.1868 2.1199 48.1868 2.6499ZM217.494 12.96C223.016 12.96 225.675 16.8701 225.675 21.3901V29.8901H219.539V22.3999C219.539 20.3499 218.741 18.6602 216.451 18.6602C214.16 18.6602 213.403 20.3499 213.403 22.3999V29.8901H208.29V22.3999C208.29 20.3499 207.522 18.6602 205.242 18.6602C202.961 18.6602 202.153 20.3499 202.153 22.3999V29.8901H196.017V21.3999C196.017 16.8799 198.809 12.9697 204.587 12.9697C207.747 12.9697 210.028 14.1702 211.071 16.1602C212.176 14.1802 214.6 12.9697 217.494 12.9697V12.96ZM185.279 24.9497C187.069 24.9497 187.836 23.2199 187.836 21.1699V13.8799H193.972V21.8901C193.972 26.6701 191.129 30.6401 185.279 30.6401C179.429 30.6401 176.586 26.6701 176.586 21.8901V13.8799H182.722V21.1699C182.722 23.2199 183.489 24.9497 185.279 24.9497ZM167.658 30.1899C163.905 30.1899 161.471 28.9197 160.049 26.4497L164.375 24.0698C164.968 25.1098 165.868 25.6299 167.361 25.6299C168.589 25.6299 169.161 25.2099 169.161 24.6899C169.161 22.6999 160.387 24.7202 160.387 18.4102C160.387 15.3502 163.046 12.8799 167.566 12.8799C171.524 12.8799 173.682 14.7698 174.643 16.5898L170.317 19C169.949 18.02 168.824 17.4399 167.689 17.4399C166.819 17.4399 166.359 17.8 166.359 18.29C166.359 20.31 175.134 18.4498 175.134 24.5698C175.134 27.9898 171.708 30.1997 167.658 30.1997V30.1899ZM146.928 36.8799H140.792V21.23C140.792 16.25 144.709 12.6401 150.17 12.6401C155.631 12.6401 159.548 16.51 159.548 21.23C159.548 26.44 155.938 29.8901 150.518 29.8901C149.26 29.8901 147.991 29.53 146.938 28.98V36.8901L146.928 36.8799ZM149.914 24.6602C151.806 24.6602 153.074 23.23 153.074 21.54C153.074 19.85 151.806 18.4199 149.914 18.4199C148.022 18.4199 146.754 19.82 146.754 21.54C146.754 23.26 148.022 24.6602 149.914 24.6602ZM134.778 11.6802C132.815 11.6802 131.189 10.0899 131.189 8.16992C131.189 6.24992 132.815 4.66016 134.778 4.66016C136.742 4.66016 138.368 6.24992 138.368 8.16992C138.368 10.0899 136.742 11.6802 134.778 11.6802ZM131.587 13.8799H137.724V29.8799H131.587V13.8799ZM120.307 30.1602C115.122 30.1602 111.164 26.26 111.164 21.5C111.164 16.74 115.122 12.8799 120.307 12.8799C125.492 12.8799 129.45 16.78 129.45 21.5C129.45 26.22 125.492 30.1602 120.307 30.1602ZM120.307 24.6602C122.199 24.6602 123.467 23.23 123.467 21.54C123.467 19.85 122.199 18.3799 120.307 18.3799C118.415 18.3799 117.147 19.81 117.147 21.54C117.147 23.27 118.405 24.6602 120.307 24.6602ZM99.4442 37.6499C95.3227 37.6499 92.3262 35.8599 90.8024 32.6699L95.7522 30.0698C96.284 31.1798 97.2863 32.3198 99.3419 32.3198C101.5 32.3198 102.932 30.9801 103.095 28.6401C102.298 29.3201 101.029 29.8398 99.1374 29.8398C94.5148 29.8398 90.7922 26.36 90.7922 21.48C90.7922 16.6 94.75 12.9199 99.9351 12.9199C105.12 12.9199 109.078 16.5298 109.078 21.5098V27.9497C109.078 33.8097 104.926 37.6499 99.4339 37.6499H99.4442ZM99.8839 24.3398C101.561 24.3398 102.86 23.2897 103.024 21.6997C103.208 19.9997 101.766 18.4799 100.017 18.4199C98.1863 18.3599 96.7238 19.5401 96.7238 21.3501C96.7238 23.1601 98.1147 24.3398 99.8839 24.3398ZM81.0766 30.1602C75.8915 30.1602 71.9337 26.26 71.9337 21.5C71.9337 16.74 75.8915 12.8799 81.0766 12.8799C86.2616 12.8799 90.2195 16.78 90.2195 21.5C90.2195 26.22 86.2616 30.1602 81.0766 30.1602ZM81.0766 24.6602C82.9686 24.6602 84.2367 23.23 84.2367 21.54C84.2367 19.85 82.9686 18.3799 81.0766 18.3799C79.1846 18.3799 77.9165 19.81 77.9165 21.54C77.9165 23.27 79.1846 24.6602 81.0766 24.6602ZM61.0216 7.87988V23.8799H71.2485V29.8799H60.1932C56.4092 29.8799 54.8854 27.9201 54.8854 24.8301V7.87988H61.0216Z" fill="#333333"/>
</svg>
