<svg width="173" height="42" viewBox="0 0 173 42" fill="none" xmlns="http://www.w3.org/2000/svg">
<path d="M52.5469 28.8799H64.8192V24.8799H56.6377V11.8799H52.5469V28.8799Z" fill="#333333"/>
<path d="M71.5389 26.6899C69.8004 26.6899 68.8901 25.1997 68.8901 22.9697C68.8901 20.7397 69.8004 19.23 71.5389 19.23C73.2775 19.23 74.2184 20.7397 74.2184 22.9697C74.2184 25.1997 73.2878 26.6899 71.5389 26.6899ZM71.5594 29.48C75.6093 29.48 78.2581 26.67 78.2581 22.98C78.2581 19.29 75.6093 16.48 71.5594 16.48C67.5096 16.48 64.8301 19.29 64.8301 22.98C64.8301 26.67 67.53 29.48 71.5594 29.48Z" fill="#333333"/>
<path d="M85.2737 33.3398C87.135 33.3398 88.7816 32.9297 89.8861 31.9697C90.8883 31.0797 91.4099 27.8901 91.4099 27.8901V16.8799H87.3191V17.8799H87.268C86.5214 16.8299 85.376 16.1802 83.6886 16.1802C80.5285 16.1802 78.3398 18.7602 78.3398 22.4102C78.3398 26.0602 80.9989 28.3198 83.8624 28.3198C85.4067 28.3198 86.3782 27.7099 87.1248 26.8799H87.3191V28.2197C87.6259 29.7097 86.9101 30.5698 85.2226 30.5698C83.8931 30.5698 83.2386 30.0201 83.0136 28.8701H79.1376C79.5262 31.9301 81.817 33.3301 85.2737 33.3301V33.3398ZM85.243 25.52C83.7499 25.52 82.7681 24.3197 82.7681 22.4697C82.7681 20.6197 83.7499 19.3999 85.243 19.3999C86.91 19.3999 87.7998 20.7897 87.7998 22.4497C87.7998 24.1097 86.9918 25.52 85.243 25.52Z" fill="#333333"/>
<path d="M99.4276 26.6899C97.689 26.6899 96.7788 25.1997 96.7788 22.9697C96.7788 20.7397 97.689 19.23 99.4276 19.23C101.166 19.23 102.107 20.7397 102.107 22.9697C102.107 25.1997 101.176 26.6899 99.4276 26.6899ZM99.448 29.48C103.498 29.48 106.147 26.67 106.147 22.98C106.147 19.29 103.498 16.48 99.448 16.48C95.3982 16.48 92.7188 19.29 92.7188 22.98C92.7188 26.67 95.4186 29.48 99.448 29.48Z" fill="#333333"/>
<path d="M107.773 28.8799H111.864V16.8799H107.773V28.8799ZM107.773 14.8799H111.864V11.8799H107.773V14.8799Z" fill="#333333"/>
<path d="M112.887 32.8799H115.955V27.8799H117.101C117.888 28.8499 119.044 29.4697 120.66 29.4697C123.953 29.4697 126.131 26.9299 126.131 22.9399C126.131 19.2399 124.096 16.4399 120.752 16.4399C119.034 16.4399 117.806 17.1799 116.947 17.8799H116.968V16.8799H112.877V32.8799H112.887ZM119.637 26.4497C117.919 26.4497 116.937 25.0798 116.937 23.0898C116.937 21.0998 117.817 19.5898 119.565 19.5898C121.314 19.5898 122.091 20.9798 122.091 23.0898C122.091 25.1998 121.161 26.4497 119.637 26.4497Z" fill="#333333"/>
<path d="M132.665 29.5C136.142 29.5 138.709 28.0299 138.709 25.1899C138.709 21.8699 135.958 21.2799 133.626 20.8999C131.938 20.5999 130.435 20.4698 130.435 19.5498C130.435 18.7398 131.243 18.3599 132.276 18.3599C133.442 18.3599 134.25 18.7199 134.403 19.8799H138.3C138.095 17.3199 136.07 15.7197 132.307 15.7197C129.167 15.7197 126.569 17.1399 126.569 19.8799C126.569 22.9299 129.034 23.5299 131.345 23.9199C133.115 24.2199 134.72 24.35 134.72 25.52C134.72 26.36 133.912 26.8101 132.644 26.8101C131.243 26.8101 130.364 26.1799 130.2 24.8799H126.201C126.334 27.7499 128.768 29.5 132.665 29.5Z" fill="#333333"/>
<path d="M143.864 29.7998C145.592 29.7998 146.687 29.1101 147.587 27.8901H147.658V28.8901H151.749V16.8901H147.658V23.75C147.658 25.21 146.83 26.2197 145.449 26.2197C144.171 26.2197 143.567 25.4799 143.567 24.1299V16.8799H139.477V25.1099C139.477 27.8999 140.99 29.79 143.864 29.79V29.7998Z" fill="#333333"/>
<path d="M152.772 28.8799H156.863V21.9897C156.863 20.5297 157.66 19.4897 159.031 19.4897C160.401 19.4897 160.954 20.2601 160.954 21.5801V28.8799H165.044V21.9897C165.044 20.5297 165.822 19.4897 167.212 19.4897C168.521 19.4897 169.135 20.2601 169.135 21.5801V28.8799H172.203V21.1001C172.203 21.1001 171.293 16.4399 168.44 16.4399C166.824 16.4399 165.474 17.1099 164.492 17.8799H164.441C163.807 17.2799 162.549 16.4399 160.902 16.4399C159.082 16.4399 157.885 17.2799 157.098 18.8799H156.852V16.8799H152.762V28.8799H152.772Z" fill="#333333"/>
<path fill-rule="evenodd" clip-rule="evenodd" d="M21.2121 0.699707C32.7277 0.699707 42.0649 9.82984 42.0649 21.0898C42.0649 32.3498 32.7277 41.48 21.2121 41.48C9.69659 41.48 0.359375 32.3498 0.359375 21.0898C0.359375 9.82984 9.69659 0.699707 21.2121 0.699707ZM41.2671 21.0898C41.2671 10.2598 32.2879 1.47998 21.2121 1.47998C20.3224 1.47998 19.4429 1.5399 18.5736 1.6499C19.1259 1.5999 19.6985 1.58008 20.261 1.58008C30.8459 1.58008 39.4263 9.96982 39.4263 20.3198C39.4263 30.6698 30.8459 39.0601 20.261 39.0601C10.2386 39.0601 2.01618 31.54 1.16734 21.96C1.62756 32.39 10.4227 40.71 21.2019 40.71C31.9811 40.71 41.257 31.9301 41.257 21.1001L41.2671 21.0898ZM38.6286 20.3198C38.6286 10.3998 30.4062 2.37012 20.2713 2.37012C19.4429 2.37012 18.6349 2.41979 17.8372 2.52979C18.3281 2.48979 18.819 2.46973 19.3202 2.46973C28.9642 2.46973 36.7878 10.1198 36.7878 19.5498C36.7878 28.9798 28.9642 36.6299 19.3202 36.6299C10.1977 36.6299 2.71159 29.7898 1.91389 21.0698C2.31274 30.6398 10.3716 38.2798 20.261 38.2798C30.1505 38.2798 38.6184 30.2401 38.6184 20.3301L38.6286 20.3198ZM19.3202 3.23975C28.5244 3.23975 35.9901 10.54 35.9901 19.54C35.9901 28.54 28.5244 35.8398 19.3202 35.8398C10.1159 35.8398 2.99793 28.8802 2.66044 20.1602C3.38655 28.0202 10.1466 34.1899 18.3793 34.1899C27.0927 34.1899 34.1595 27.2798 34.1595 18.7598C34.1595 10.2398 27.0927 3.33008 18.3793 3.33008C17.9293 3.33008 17.4793 3.34988 17.0396 3.37988C17.7861 3.27988 18.5429 3.22998 19.3202 3.22998V3.23975ZM33.3515 18.7598C33.3515 10.6698 26.6427 4.12012 18.3793 4.12012C17.6839 4.12012 16.9884 4.16977 16.3237 4.25977C16.6918 4.22977 17.06 4.21973 17.4384 4.21973C25.2211 4.21973 31.5209 10.3897 31.5209 17.9897C31.5209 25.5897 25.2109 31.7598 17.4384 31.7598C10.1159 31.7598 4.10249 26.3001 3.41728 19.3101C3.71386 27.1401 10.3 33.4102 18.3793 33.4102C26.4586 33.4102 33.3515 26.85 33.3515 18.77V18.7598ZM17.4281 5C24.7609 5 30.713 10.8197 30.713 17.9897C30.713 25.1597 24.7609 30.98 17.4281 30.98C10.0954 30.98 4.37858 25.3902 4.15359 18.4102C4.76721 24.5402 10.0545 29.3301 16.4873 29.3301C23.3291 29.3301 28.8823 23.9 28.8823 17.21C28.8823 10.52 23.3291 5.08984 16.4873 5.08984C16.1702 5.08984 15.8635 5.10012 15.5567 5.12012C16.1703 5.04012 16.7941 4.98975 17.4384 4.98975L17.4281 5ZM28.0847 17.21C28.0847 10.95 22.8893 5.87012 16.4873 5.87012C15.9043 5.87012 15.3316 5.90975 14.7692 5.98975C15.0248 5.96975 15.2805 5.95996 15.5464 5.95996C21.4576 5.95996 26.2438 10.6399 26.2438 16.4199C26.2438 22.1999 21.4576 26.8799 15.5464 26.8799C10.0034 26.8799 5.45239 22.7697 4.90014 17.4897C5.06377 23.6097 10.1875 28.52 16.4873 28.52C22.7871 28.52 28.0847 23.4402 28.0847 17.1802V17.21ZM15.5464 6.75C21.0178 6.75 25.4461 11.0802 25.4461 16.4302C25.4461 21.7802 21.0178 26.1099 15.5464 26.1099C10.075 26.1099 5.75924 21.8899 5.64675 16.6299C6.14787 21.0299 9.96253 24.46 14.6056 24.46C19.5861 24.46 23.6155 20.5199 23.6155 15.6499C23.6155 10.7799 19.5861 6.83984 14.6056 6.83984C14.4112 6.83984 14.2271 6.83986 14.043 6.85986C14.5339 6.78986 15.0453 6.75 15.5567 6.75H15.5464ZM22.8075 15.6602C22.8075 11.2302 19.1361 7.62988 14.5953 7.62988C14.1351 7.62988 13.6954 7.66975 13.2556 7.73975C13.3885 7.73975 13.5113 7.72998 13.6442 7.72998C17.6839 7.72998 20.9667 10.9301 20.9667 14.8901C20.9667 18.8501 17.6941 22.0498 13.6442 22.0498C9.91139 22.0498 6.82282 19.31 6.38306 15.77C6.44442 20.16 10.0955 23.6899 14.5953 23.6899C19.0952 23.6899 22.8075 20.1002 22.8075 15.6602ZM14.0737 8.50977C17.7043 8.50977 20.6394 11.4097 20.5883 14.9697C20.5372 18.5297 17.6224 21.2 14.1657 21.25C10.525 21.3 7.55918 18.4299 7.55918 14.8799C7.55918 14.8799 7.55918 14.8601 7.55918 14.8501C7.96826 17.7901 10.7602 19.99 13.9715 19.54C16.4464 19.19 18.4304 17.1798 18.7167 14.7598C19.1156 11.4298 16.4566 8.6001 13.1329 8.6001C13.0613 8.6001 12.9897 8.6001 12.9181 8.6001C13.2965 8.5301 13.6749 8.5 14.0737 8.5V8.50977ZM17.5304 14.1099C17.5304 11.4999 15.3725 9.39014 12.7033 9.39014C10.0341 9.39014 7.87621 11.4999 7.87621 14.1099C7.87621 16.7199 10.0341 18.8301 12.7033 18.8301C15.3725 18.8301 17.5304 16.7199 17.5304 14.1099Z" fill="#333333"/>
</svg>
