<svg width="172" height="40" viewBox="0 0 172 40" fill="none" xmlns="http://www.w3.org/2000/svg">
<path fill-rule="evenodd" clip-rule="evenodd" d="M10.7738 1.87988V39.8799H0.546875V1.87988H10.7738Z" fill="#333333"/>
<path fill-rule="evenodd" clip-rule="evenodd" d="M15.8867 1.87988H37.6394C44.7063 1.87988 50.4436 7.47988 50.4436 14.3799C50.4436 21.2799 44.7165 26.8799 37.6394 26.8799H26.1137V39.8799H15.8867V1.87988ZM26.1137 16.8799H37.5167C38.7133 16.8799 39.8383 16.14 40.1246 15C40.5337 13.35 39.2655 11.8799 37.6394 11.8799H26.1137V16.8799Z" fill="#333333"/>
<path fill-rule="evenodd" clip-rule="evenodd" d="M89.5219 1.87988V21.0498C89.5219 25.3398 92.8252 29.0999 97.2023 29.3599C101.948 29.6399 105.885 25.9 105.885 21.25V1.87012H116.112V21.25C116.112 31.26 107.869 39.3701 97.7034 39.3701C87.5378 39.3701 79.2949 31.26 79.2949 21.25V1.87012H89.5219V1.87988Z" fill="#333333"/>
<path fill-rule="evenodd" clip-rule="evenodd" d="M54.7504 19.6997C54.7504 9.85971 62.7683 1.87988 72.6475 1.87988H75.2043V11.8799H72.6578C68.4136 11.8799 64.9773 15.2401 64.9773 19.3901V20.79C64.9773 31.33 56.3969 39.8799 45.8018 39.8799H44.5234V29.8799H45.7916C50.7414 29.8799 54.7504 25.9601 54.7504 21.1201V19.6997Z" fill="#333333"/>
<path d="M171.736 4.20996C171.736 6.27996 170.017 7.95996 167.89 7.95996C165.763 7.95996 164.045 6.27996 164.045 4.20996C164.045 2.13996 165.763 0.459961 167.89 0.459961C170.017 0.459961 171.736 2.13996 171.736 4.20996Z" fill="#333333"/>
<path d="M127.168 39.8799L132.057 19.9L135.687 31.92C137.855 39.09 148.256 39.09 150.424 31.92L154.055 19.9L158.943 39.8799H169.477L161.796 8.46001C159.966 0.990012 149.187 0.710129 146.957 8.08013L143.061 20.96L139.164 8.06987C136.935 0.689875 126.156 0.969758 124.325 8.44976L116.645 39.8702H127.178L127.168 39.8799Z" fill="#333333"/>
</svg>
