<svg width="1397" height="199" viewBox="0 0 1397 199" fill="none" xmlns="http://www.w3.org/2000/svg">
<path d="M1397 0.879883H0V198.88H1397V0.879883Z" fill="#F5F9F9" stroke="#002C3D" stroke-width="0.19" stroke-miterlimit="10"/>
<path fill-rule="evenodd" clip-rule="evenodd" d="M107.894 107.88C106.534 107.88 105.235 107.35 104.274 106.42C103.312 105.48 102.781 104.21 102.781 102.88V79.8799H92.5537V102.88C92.5537 111.16 99.4262 117.88 107.894 117.88H119.144V107.88H107.894ZM138.503 90.1299C137.297 90.1299 136.1 90.3598 134.985 90.8198C133.871 91.2698 132.858 91.94 131.999 92.77C131.14 93.61 130.465 94.5999 130.005 95.6899C129.545 96.7799 129.299 97.9499 129.299 99.1299C129.299 100.31 129.534 101.48 130.005 102.57C130.465 103.66 131.15 104.65 131.999 105.49C132.858 106.33 133.871 106.99 134.985 107.44C136.1 107.89 137.297 108.13 138.503 108.13C140.948 108.13 143.29 107.18 145.008 105.49C146.736 103.8 147.708 101.51 147.708 99.1299C147.708 96.7499 146.736 94.45 145.008 92.77C143.279 91.08 140.937 90.1299 138.503 90.1299ZM119.072 99.1299C119.072 88.6399 127.775 80.1299 138.503 80.1299C149.231 80.1299 157.935 88.6399 157.935 99.1299C157.935 109.62 149.231 118.13 138.503 118.13C127.775 118.13 119.072 109.62 119.072 99.1299ZM248.954 90.1299C246.51 90.1299 244.168 91.08 242.45 92.77C240.722 94.46 239.75 96.7499 239.75 99.1299C239.75 101.51 240.722 103.81 242.45 105.49C244.178 107.18 246.52 108.13 248.954 108.13C251.388 108.13 253.741 107.18 255.459 105.49C257.187 103.8 258.159 101.51 258.159 99.1299C258.159 96.7499 257.187 94.45 255.459 92.77C253.73 91.08 251.388 90.1299 248.954 90.1299ZM229.523 99.1299C229.523 88.6399 238.226 80.1299 248.954 80.1299C259.682 80.1299 268.385 88.6399 268.385 99.1299C268.385 109.62 259.682 118.13 248.954 118.13C238.226 118.13 229.523 109.62 229.523 99.1299ZM179.483 79.8799C168.172 79.8799 159.111 89.3399 160.133 100.61C161.023 110.48 169.798 117.88 179.922 117.88H208.118C210.133 117.88 212.076 117.58 213.896 117.02L219.368 119.88L225.269 109.08C226.762 106.33 227.549 103.26 227.549 100.15V98.8901C227.549 88.4001 218.846 79.8901 208.118 79.8901H179.483V79.8799ZM217.322 98.8799C217.322 95.0399 214.817 91.4597 210.695 90.2197C209.857 89.9697 208.967 89.8799 208.087 89.8799H179.493C178.286 89.8799 177.09 90.1098 175.975 90.5698C174.86 91.0198 173.848 91.69 172.989 92.52C172.13 93.36 171.455 94.3499 170.994 95.4399C170.534 96.5299 170.289 97.6999 170.289 98.8799C170.289 100.06 170.524 101.23 170.994 102.32C171.455 103.41 172.14 104.4 172.989 105.24C173.848 106.08 174.86 106.74 175.975 107.19C177.09 107.64 178.286 107.88 179.493 107.88H208.087C208.967 107.88 209.846 107.8 210.685 107.55C214.786 106.33 217.302 102.77 217.333 98.9497V98.8799H217.322Z" fill="#333333"/>
<path d="M272.476 82.6299C272.476 83.2899 272.21 83.9299 271.729 84.3999C271.249 84.8699 270.594 85.1299 269.919 85.1299C269.244 85.1299 268.59 84.8699 268.109 84.3999C267.628 83.9299 267.362 83.2999 267.362 82.6299C267.362 81.9599 267.628 81.3299 268.109 80.8599C268.59 80.3899 269.244 80.1299 269.919 80.1299C270.594 80.1299 271.249 80.3899 271.729 80.8599C272.21 81.3299 272.476 81.9599 272.476 82.6299Z" fill="#333333"/>
<path d="M364.591 106.62V85.4302C364.591 85.2802 364.581 85.1197 364.55 84.9697C363.957 81.8297 361.308 79.8799 358.455 79.8799H345.16V91.21C345.16 91.51 345.201 91.8199 345.282 92.1099C345.978 94.3399 347.44 96.2197 349.373 97.4897C350.59 98.2897 351.971 98.8198 353.423 99.0498L353.812 99.1099C353.975 99.1599 354.119 99.2699 354.211 99.3999C354.313 99.5399 354.364 99.7001 354.364 99.8701C354.364 100.04 354.313 100.2 354.211 100.34C354.108 100.48 353.975 100.58 353.812 100.63L353.423 100.69C351.306 101.03 349.353 102.01 347.839 103.49C346.326 104.97 345.323 106.88 344.976 108.95L344.914 109.33C344.863 109.49 344.751 109.63 344.618 109.72C344.475 109.82 344.311 109.87 344.137 109.87C343.963 109.87 343.8 109.82 343.656 109.72C343.513 109.62 343.411 109.49 343.36 109.33L343.298 108.95C343.063 107.53 342.521 106.19 341.703 104.99C340.404 103.1 338.482 101.68 336.201 100.99C335.904 100.9 335.587 100.87 335.281 100.87H323.714C324.532 117.07 345.058 128.2 362.331 111.82C363.568 110.64 364.601 108.3 364.601 106.61L364.591 106.62Z" fill="#333333"/>
<path d="M323.683 98.8799H333.991C335.617 98.8799 337.254 98.5099 338.624 97.6699C339.943 96.8699 341.048 95.7797 341.876 94.4897C342.735 93.1397 343.114 91.55 343.114 89.96V79.8799H329.901C329.256 79.8799 328.602 79.9501 327.988 80.1401C325.309 81.0001 323.683 83.3599 323.683 85.8799V98.8799ZM371.187 81.6499C371.187 82.1799 370.972 82.6901 370.583 83.0601C370.195 83.4401 369.683 83.6499 369.141 83.6499C368.599 83.6499 368.078 83.4401 367.699 83.0601C367.311 82.6801 367.096 82.1799 367.096 81.6499C367.096 81.1199 367.311 80.6097 367.699 80.2397C368.088 79.8597 368.599 79.6499 369.141 79.6499C369.683 79.6499 370.205 79.8597 370.583 80.2397C370.972 80.6197 371.187 81.1199 371.187 81.6499ZM540.494 91.96C546.016 91.96 548.675 95.8701 548.675 100.39V108.89H542.539V101.4C542.539 99.3499 541.741 97.6602 539.451 97.6602C537.16 97.6602 536.403 99.3499 536.403 101.4V108.89H531.29V101.4C531.29 99.3499 530.522 97.6602 528.242 97.6602C525.961 97.6602 525.153 99.3499 525.153 101.4V108.89H519.017V100.4C519.017 95.8799 521.809 91.9697 527.587 91.9697C530.747 91.9697 533.028 93.1702 534.071 95.1602C535.176 93.1802 537.6 91.9697 540.494 91.9697V91.96ZM508.279 103.95C510.069 103.95 510.836 102.22 510.836 100.17V92.8799H516.972V100.89C516.972 105.67 514.129 109.64 508.279 109.64C502.429 109.64 499.586 105.67 499.586 100.89V92.8799H505.722V100.17C505.722 102.22 506.489 103.95 508.279 103.95ZM490.658 109.19C486.905 109.19 484.471 107.92 483.049 105.45L487.375 103.07C487.968 104.11 488.868 104.63 490.361 104.63C491.589 104.63 492.161 104.21 492.161 103.69C492.161 101.7 483.387 103.72 483.387 97.4102C483.387 94.3502 486.046 91.8799 490.566 91.8799C494.524 91.8799 496.682 93.7698 497.643 95.5898L493.317 98C492.949 97.02 491.824 96.4399 490.689 96.4399C489.819 96.4399 489.359 96.8 489.359 97.29C489.359 99.31 498.134 97.4498 498.134 103.57C498.134 106.99 494.708 109.2 490.658 109.2V109.19ZM469.928 115.88H463.792V100.23C463.792 95.25 467.709 91.6401 473.17 91.6401C478.631 91.6401 482.548 95.51 482.548 100.23C482.548 105.44 478.938 108.89 473.518 108.89C472.26 108.89 470.991 108.53 469.938 107.98V115.89L469.928 115.88ZM472.914 103.66C474.806 103.66 476.074 102.23 476.074 100.54C476.074 98.85 474.806 97.4199 472.914 97.4199C471.022 97.4199 469.754 98.82 469.754 100.54C469.754 102.26 471.022 103.66 472.914 103.66ZM457.778 90.6802C455.815 90.6802 454.189 89.0899 454.189 87.1699C454.189 85.2499 455.815 83.6602 457.778 83.6602C459.742 83.6602 461.368 85.2499 461.368 87.1699C461.368 89.0899 459.742 90.6802 457.778 90.6802ZM454.587 92.8799H460.724V108.88H454.587V92.8799ZM443.307 109.16C438.122 109.16 434.164 105.26 434.164 100.5C434.164 95.74 438.122 91.8799 443.307 91.8799C448.492 91.8799 452.45 95.78 452.45 100.5C452.45 105.22 448.492 109.16 443.307 109.16ZM443.307 103.66C445.199 103.66 446.467 102.23 446.467 100.54C446.467 98.85 445.199 97.3799 443.307 97.3799C441.415 97.3799 440.147 98.81 440.147 100.54C440.147 102.27 441.405 103.66 443.307 103.66ZM422.444 116.65C418.323 116.65 415.326 114.86 413.802 111.67L418.752 109.07C419.284 110.18 420.286 111.32 422.342 111.32C424.5 111.32 425.932 109.98 426.095 107.64C425.298 108.32 424.029 108.84 422.137 108.84C417.515 108.84 413.792 105.36 413.792 100.48C413.792 95.6 417.75 91.9199 422.935 91.9199C428.12 91.9199 432.078 95.5298 432.078 100.51V106.95C432.078 112.81 427.926 116.65 422.434 116.65H422.444ZM422.884 103.34C424.561 103.34 425.86 102.29 426.024 100.7C426.208 98.9997 424.766 97.4799 423.017 97.4199C421.186 97.3599 419.724 98.5401 419.724 100.35C419.724 102.16 421.115 103.34 422.884 103.34ZM404.077 109.16C398.892 109.16 394.934 105.26 394.934 100.5C394.934 95.74 398.892 91.8799 404.077 91.8799C409.262 91.8799 413.219 95.78 413.219 100.5C413.219 105.22 409.262 109.16 404.077 109.16ZM404.077 103.66C405.969 103.66 407.237 102.23 407.237 100.54C407.237 98.85 405.969 97.3799 404.077 97.3799C402.185 97.3799 400.916 98.81 400.916 100.54C400.916 102.27 402.185 103.66 404.077 103.66ZM384.022 86.8799V102.88H394.249V108.88H383.193C379.409 108.88 377.885 106.92 377.885 103.83V86.8799H384.022Z" fill="#333333"/>
<path d="M635.35 94.4898H638.418V106.49H635.35V94.4898ZM639.277 101.51C639.277 98.5098 641.159 96.7198 644.063 96.7198C646.967 96.7198 648.849 98.5098 648.849 101.51C648.849 104.51 647.008 106.31 644.063 106.31C641.118 106.31 639.277 104.56 639.277 101.51ZM645.577 101.51C645.577 99.8598 644.912 98.8902 643.869 98.8902C642.826 98.8902 642.171 99.8898 642.171 101.51C642.171 103.13 642.815 104.11 643.869 104.11C644.922 104.11 645.577 103.19 645.577 101.52V101.51ZM649.667 106.49H652.367C652.51 106.79 652.746 107.05 653.042 107.21C653.339 107.37 653.687 107.44 654.024 107.39C655.19 107.39 655.803 106.77 655.803 105.87V104.49H656.325C656.08 104.9 655.681 105.33 655.19 105.62C654.689 105.91 654.116 106.05 653.533 106.02C651.293 106.02 649.811 104.35 649.811 101.48C649.811 98.6101 651.222 96.7999 653.574 96.7999C654.167 96.7799 654.76 96.9301 655.272 97.2501C655.773 97.5601 656.172 98.0201 656.826 98.5601V97.4898H658.872V105.86C658.872 107.87 656.949 109.12 654.116 109.12C651.477 109.12 649.841 108.03 649.667 106.5V106.49ZM656.826 101.5C656.826 100.04 656.141 99.1202 655.057 99.1202C653.973 99.1202 653.308 100.03 653.308 101.5C653.308 102.97 653.963 103.8 655.057 103.8C656.151 103.8 656.826 102.99 656.826 101.51V101.5ZM660.917 101.5C660.917 98.5001 662.799 96.71 665.703 96.71C668.608 96.71 670.5 98.5001 670.5 101.5C670.5 104.5 668.659 106.3 665.703 106.3C662.748 106.3 660.917 104.56 660.917 101.51V101.5ZM667.053 101.5C667.053 99.8501 666.388 98.88 665.345 98.88C664.302 98.88 663.699 99.8901 663.699 101.52C663.699 103.15 664.343 104.12 665.386 104.12C666.429 104.12 667.053 103.19 667.053 101.52V101.5ZM671.144 94.71C671.144 94.41 671.215 94.1102 671.389 93.8502C671.553 93.5902 671.798 93.3901 672.075 93.2701C672.351 93.1501 672.668 93.1102 672.974 93.1602C673.281 93.2102 673.557 93.3501 673.782 93.5601C674.007 93.7701 674.161 94.0402 674.232 94.3302C674.304 94.6302 674.273 94.9298 674.161 95.2198C674.048 95.4998 673.854 95.75 673.598 95.92C673.343 96.09 673.046 96.1898 672.729 96.1998C672.525 96.2098 672.32 96.1902 672.126 96.1202C671.931 96.0502 671.758 95.9501 671.604 95.8101C671.451 95.6701 671.338 95.5099 671.256 95.3199C671.175 95.1299 671.134 94.9401 671.134 94.7301V94.71H671.144ZM671.144 97.4898H674.212V106.49H671.144V97.4898ZM685.963 101.47C685.963 104.48 684.603 106.2 682.261 106.2C681.657 106.24 681.064 106.09 680.553 105.79C680.041 105.48 679.632 105.03 679.387 104.5H679.325V108.5H676.257V96.5001H679.325V98.5001H679.387C679.622 97.9501 680.021 97.49 680.522 97.17C681.023 96.85 681.627 96.6998 682.23 96.7198C684.592 96.7598 685.993 98.4901 685.993 101.5L685.952 101.48L685.963 101.47ZM682.394 101.5C682.394 100.04 681.708 99.1099 680.635 99.1099C679.561 99.1099 678.875 100.05 678.865 101.5C678.865 102.95 679.561 103.88 680.635 103.88C681.708 103.88 682.394 102.97 682.394 101.52V101.5ZM690.575 96.6998C693.387 96.6998 694.932 97.8798 695.003 99.4898H692.211C692.211 99.1198 691.659 98.71 690.81 98.71C689.961 98.71 689.583 99.0301 689.583 99.5001C689.583 99.9701 689.921 100.12 690.606 100.26L692.569 100.65C694.441 101.04 695.239 101.78 695.239 103.17C695.239 105.07 693.469 106.29 690.861 106.29C688.254 106.29 686.546 105.07 686.413 102.49H689.368C689.46 103.88 690.013 104.28 690.913 104.28C691.813 104.28 692.222 103.99 692.222 103.51C692.222 103.03 691.935 102.93 691.199 102.78L689.43 102.41C687.599 102.04 686.638 101.09 686.638 99.69C686.658 97.89 688.305 96.7198 690.575 96.7198V96.6998ZM705.864 105.49H702.837V104.49H702.776C702.612 105.03 702.264 105.5 701.774 105.82C701.283 106.15 700.69 106.31 700.086 106.28C699.626 106.3 699.166 106.24 698.736 106.08C698.307 105.92 697.918 105.69 697.601 105.38C697.284 105.07 697.028 104.71 696.875 104.3C696.721 103.9 696.66 103.47 696.701 103.04V97.4801L699.769 96.4801V101.72C699.769 102.81 700.342 103.39 701.293 103.39C701.518 103.39 701.733 103.34 701.937 103.25C702.142 103.16 702.316 103.03 702.469 102.87C702.612 102.71 702.725 102.51 702.786 102.3C702.847 102.09 702.868 101.87 702.837 101.66V96.4801H705.905L705.864 105.48V105.49ZM706.989 97.4898H710.006V98.4898H709.986C710.149 98.0998 710.497 97.6001 710.978 97.2501C711.459 96.9001 712.052 96.7101 712.655 96.7301C713.269 96.6801 713.872 96.8601 714.363 97.2301C714.844 97.6001 715.263 99.5001 715.263 99.5001H715.6C715.774 98.9301 716.142 98.4399 716.633 98.0899C717.124 97.7499 717.728 97.5702 718.331 97.6002C718.73 97.5902 719.118 97.6599 719.487 97.7999C719.855 97.9499 720.182 98.1698 720.458 98.4498C720.734 98.7298 720.949 99.0603 721.082 99.4303C721.215 99.7903 721.276 100.18 721.246 100.57V106.51H718.178V100.66C718.198 99.6602 717.738 99.1998 716.879 99.1998C716.684 99.1998 716.5 99.2401 716.327 99.3101C716.153 99.3901 715.999 99.5002 715.866 99.6402C715.744 99.7802 715.641 99.9502 715.59 100.12C715.529 100.3 715.519 100.49 715.11 100.67V106.5H713.064V100.61C712.624 99.6899 712.164 99.19 711.326 99.19C711.131 99.19 710.937 99.2301 710.763 99.3101C710.589 99.3901 710.426 99.5002 710.303 99.6402C710.17 99.7802 710.078 99.95 710.017 100.13C709.955 100.31 709.945 100.5 709.996 100.69V106.5H706.928L706.979 97.5001L706.989 97.4898Z" fill="#333333"/>
<path d="M626.41 94.5098C625.889 93.3498 625.204 92.2601 624.365 91.2901C623.128 89.8101 621.583 88.6 619.835 87.75C618.086 86.9 616.173 86.4101 614.22 86.3301C612.267 86.2501 610.323 86.5798 608.503 87.2798C606.693 87.9898 605.046 89.07 603.686 90.44C602.326 91.81 601.283 93.45 600.618 95.25C599.953 97.05 599.687 98.9602 599.831 100.87C599.974 102.78 600.536 104.63 601.467 106.31C602.398 107.99 603.686 109.46 605.241 110.61C606.243 111.37 607.337 111.98 608.513 112.44C610.16 113.1 611.919 113.44 613.698 113.44C617.37 113.44 620.888 112 623.486 109.46C626.083 106.92 627.535 103.48 627.535 99.8902C627.535 98.0402 627.147 96.2098 626.39 94.5098H626.41ZM613.709 89.0801C615.304 89.0801 616.879 89.4201 618.331 90.0801C617.973 90.2301 617.605 90.3302 617.227 90.3902C615.979 90.5702 614.813 91.1398 613.923 92.0098C613.034 92.8798 612.451 94.0198 612.267 95.2398C612.185 95.9298 611.868 96.5598 611.367 97.0498C610.865 97.5298 610.201 97.8302 609.495 97.8902C608.247 98.0702 607.081 98.6398 606.192 99.5098C605.302 100.38 604.719 101.52 604.535 102.74C604.474 103.39 604.187 104.01 603.727 104.48C602.929 102.83 602.571 101.02 602.684 99.1997C602.796 97.3797 603.379 95.6201 604.382 94.0801C605.384 92.5401 606.754 91.2699 608.391 90.3999C610.027 89.5199 611.857 89.0601 613.719 89.0601V89.0801H613.709ZM605.251 106.89C605.374 106.78 605.496 106.68 605.619 106.56C606.529 105.7 607.112 104.56 607.276 103.33C607.337 102.64 607.654 101.99 608.166 101.51C608.656 101.01 609.311 100.71 610.017 100.65C611.264 100.47 612.43 99.8998 613.32 99.0298C614.21 98.1598 614.793 97.0198 614.977 95.7998C615.018 95.0798 615.335 94.4002 615.866 93.8902C616.368 93.4002 617.032 93.1101 617.738 93.0601C618.883 92.9101 619.957 92.4099 620.806 91.6299C621.767 92.4099 622.586 93.3502 623.22 94.4102C623.179 94.4602 623.138 94.5098 623.087 94.5498C622.596 95.0498 621.941 95.3602 621.236 95.4302C619.988 95.6002 618.822 96.1698 617.932 97.0498C617.043 97.9198 616.46 99.0598 616.275 100.28C616.204 100.97 615.887 101.61 615.386 102.1C614.885 102.59 614.23 102.89 613.524 102.96C612.267 103.14 611.111 103.7 610.211 104.58C609.311 105.45 608.728 106.59 608.534 107.81C608.483 108.3 608.309 108.77 608.033 109.18C606.979 108.57 606.049 107.8 605.251 106.89ZM613.872 110.75C612.839 110.75 611.806 110.61 610.804 110.33C611.142 109.71 611.367 109.03 611.459 108.33C611.53 107.64 611.847 107 612.338 106.51C612.839 106.02 613.494 105.72 614.199 105.65C615.457 105.47 616.613 104.91 617.513 104.03C618.413 103.16 618.996 102.02 619.17 100.8C619.241 100.11 619.558 99.47 620.049 98.98C620.55 98.49 621.205 98.1902 621.911 98.1202C622.851 98.0002 623.751 97.6602 624.529 97.1202C624.958 98.7202 625.009 100.39 624.682 102.01C624.345 103.63 623.639 105.15 622.616 106.47C621.583 107.78 620.264 108.84 618.75 109.58C617.237 110.31 615.57 110.7 613.882 110.71V110.76L613.872 110.75Z" fill="#333333"/>
<path d="M824.547 107.88H836.819V103.88H828.638V90.8799H824.547V107.88Z" fill="#333333"/>
<path d="M843.539 105.69C841.8 105.69 840.89 104.2 840.89 101.97C840.89 99.7397 841.8 98.23 843.539 98.23C845.278 98.23 846.218 99.7397 846.218 101.97C846.218 104.2 845.288 105.69 843.539 105.69ZM843.559 108.48C847.609 108.48 850.258 105.67 850.258 101.98C850.258 98.29 847.609 95.48 843.559 95.48C839.51 95.48 836.83 98.29 836.83 101.98C836.83 105.67 839.53 108.48 843.559 108.48Z" fill="#333333"/>
<path d="M857.274 112.34C859.135 112.34 860.782 111.93 861.886 110.97C862.888 110.08 863.41 106.89 863.41 106.89V95.8799H859.319V96.8799H859.268C858.521 95.8299 857.376 95.1802 855.689 95.1802C852.528 95.1802 850.34 97.7602 850.34 101.41C850.34 105.06 852.999 107.32 855.862 107.32C857.407 107.32 858.378 106.71 859.125 105.88H859.319V107.22C859.626 108.71 858.91 109.57 857.223 109.57C855.893 109.57 855.239 109.02 855.014 107.87H851.138C851.526 110.93 853.817 112.33 857.274 112.33V112.34ZM857.243 104.52C855.75 104.52 854.768 103.32 854.768 101.47C854.768 99.6197 855.75 98.3999 857.243 98.3999C858.91 98.3999 859.8 99.7897 859.8 101.45C859.8 103.11 858.992 104.52 857.243 104.52Z" fill="#333333"/>
<path d="M871.428 105.69C869.689 105.69 868.779 104.2 868.779 101.97C868.779 99.7397 869.689 98.23 871.428 98.23C873.166 98.23 874.107 99.7397 874.107 101.97C874.107 104.2 873.176 105.69 871.428 105.69ZM871.448 108.48C875.498 108.48 878.147 105.67 878.147 101.98C878.147 98.29 875.498 95.48 871.448 95.48C867.398 95.48 864.719 98.29 864.719 101.98C864.719 105.67 867.419 108.48 871.448 108.48Z" fill="#333333"/>
<path d="M879.773 107.88H883.864V95.8799H879.773V107.88ZM879.773 93.8799H883.864V90.8799H879.773V93.8799Z" fill="#333333"/>
<path d="M884.887 111.88H887.955V106.88H889.101C889.888 107.85 891.044 108.47 892.66 108.47C895.953 108.47 898.131 105.93 898.131 101.94C898.131 98.2399 896.096 95.4399 892.752 95.4399C891.034 95.4399 889.806 96.1799 888.947 96.8799H888.968V95.8799H884.877V111.88H884.887ZM891.637 105.45C889.919 105.45 888.937 104.08 888.937 102.09C888.937 100.1 889.817 98.5898 891.565 98.5898C893.314 98.5898 894.091 99.9798 894.091 102.09C894.091 104.2 893.161 105.45 891.637 105.45Z" fill="#333333"/>
<path d="M904.665 108.5C908.142 108.5 910.709 107.03 910.709 104.19C910.709 100.87 907.958 100.28 905.626 99.8999C903.938 99.5999 902.435 99.4698 902.435 98.5498C902.435 97.7398 903.243 97.3599 904.276 97.3599C905.442 97.3599 906.25 97.7199 906.403 98.8799H910.3C910.095 96.3199 908.07 94.7197 904.307 94.7197C901.167 94.7197 898.569 96.1399 898.569 98.8799C898.569 101.93 901.034 102.53 903.345 102.92C905.115 103.22 906.72 103.35 906.72 104.52C906.72 105.36 905.912 105.81 904.644 105.81C903.243 105.81 902.364 105.18 902.2 103.88H898.201C898.334 106.75 900.768 108.5 904.665 108.5Z" fill="#333333"/>
<path d="M915.864 108.8C917.592 108.8 918.687 108.11 919.587 106.89H919.658V107.89H923.749V95.8901H919.658V102.75C919.658 104.21 918.83 105.22 917.449 105.22C916.171 105.22 915.567 104.48 915.567 103.13V95.8799H911.477V104.11C911.477 106.9 912.99 108.79 915.864 108.79V108.8Z" fill="#333333"/>
<path d="M924.772 107.88H928.863V100.99C928.863 99.5297 929.66 98.4897 931.031 98.4897C932.401 98.4897 932.954 99.2601 932.954 100.58V107.88H937.044V100.99C937.044 99.5297 937.822 98.4897 939.212 98.4897C940.521 98.4897 941.135 99.2601 941.135 100.58V107.88H944.203V100.1C944.203 100.1 943.293 95.4399 940.44 95.4399C938.824 95.4399 937.474 96.1099 936.492 96.8799H936.441C935.807 96.2799 934.549 95.4399 932.902 95.4399C931.082 95.4399 929.885 96.2799 929.098 97.8799H928.852V95.8799H924.762V107.88H924.772Z" fill="#333333"/>
<path fill-rule="evenodd" clip-rule="evenodd" d="M793.212 79.6997C804.728 79.6997 814.065 88.8298 814.065 100.09C814.065 111.35 804.728 120.48 793.212 120.48C781.697 120.48 772.359 111.35 772.359 100.09C772.359 88.8298 781.697 79.6997 793.212 79.6997ZM813.267 100.09C813.267 89.2598 804.288 80.48 793.212 80.48C792.322 80.48 791.443 80.5399 790.574 80.6499C791.126 80.5999 791.699 80.5801 792.261 80.5801C802.846 80.5801 811.426 88.9698 811.426 99.3198C811.426 109.67 802.846 118.06 792.261 118.06C782.239 118.06 774.016 110.54 773.167 100.96C773.628 111.39 782.423 119.71 793.202 119.71C803.981 119.71 813.257 110.93 813.257 100.1L813.267 100.09ZM810.629 99.3198C810.629 89.3998 802.406 81.3701 792.271 81.3701C791.443 81.3701 790.635 81.4198 789.837 81.5298C790.328 81.4898 790.819 81.4697 791.32 81.4697C800.964 81.4697 808.788 89.1198 808.788 98.5498C808.788 107.98 800.964 115.63 791.32 115.63C782.198 115.63 774.712 108.79 773.914 100.07C774.313 109.64 782.372 117.28 792.261 117.28C802.15 117.28 810.618 109.24 810.618 99.3301L810.629 99.3198ZM791.32 82.2397C800.524 82.2397 807.99 89.54 807.99 98.54C807.99 107.54 800.524 114.84 791.32 114.84C782.116 114.84 774.998 107.88 774.66 99.1602C775.387 107.02 782.147 113.19 790.379 113.19C799.093 113.19 806.159 106.28 806.159 97.7598C806.159 89.2398 799.093 82.3301 790.379 82.3301C789.929 82.3301 789.479 82.3499 789.04 82.3799C789.786 82.2799 790.543 82.23 791.32 82.23V82.2397ZM805.351 97.7598C805.351 89.6698 798.643 83.1201 790.379 83.1201C789.684 83.1201 788.988 83.1698 788.324 83.2598C788.692 83.2298 789.06 83.2197 789.438 83.2197C797.221 83.2197 803.521 89.3897 803.521 96.9897C803.521 104.59 797.211 110.76 789.438 110.76C782.116 110.76 776.102 105.3 775.417 98.3101C775.714 106.14 782.3 112.41 790.379 112.41C798.459 112.41 805.351 105.85 805.351 97.77V97.7598ZM789.428 84C796.761 84 802.713 89.8197 802.713 96.9897C802.713 104.16 796.761 109.98 789.428 109.98C782.095 109.98 776.379 104.39 776.154 97.4102C776.767 103.54 782.055 108.33 788.487 108.33C795.329 108.33 800.882 102.9 800.882 96.21C800.882 89.52 795.329 84.0898 788.487 84.0898C788.17 84.0898 787.863 84.1001 787.557 84.1201C788.17 84.0401 788.794 83.9897 789.438 83.9897L789.428 84ZM800.085 96.21C800.085 89.95 794.889 84.8701 788.487 84.8701C787.904 84.8701 787.332 84.9097 786.769 84.9897C787.025 84.9697 787.281 84.96 787.546 84.96C793.458 84.96 798.244 89.6399 798.244 95.4199C798.244 101.2 793.458 105.88 787.546 105.88C782.003 105.88 777.452 101.77 776.9 96.4897C777.064 102.61 782.187 107.52 788.487 107.52C794.787 107.52 800.085 102.44 800.085 96.1802V96.21ZM787.546 85.75C793.018 85.75 797.446 90.0802 797.446 95.4302C797.446 100.78 793.018 105.11 787.546 105.11C782.075 105.11 777.759 100.89 777.647 95.6299C778.148 100.03 781.963 103.46 786.606 103.46C791.586 103.46 795.615 99.5199 795.615 94.6499C795.615 89.7799 791.586 85.8398 786.606 85.8398C786.411 85.8398 786.227 85.8399 786.043 85.8599C786.534 85.7899 787.045 85.75 787.557 85.75H787.546ZM794.808 94.6602C794.808 90.2302 791.136 86.6299 786.595 86.6299C786.135 86.6299 785.695 86.6697 785.256 86.7397C785.389 86.7397 785.511 86.73 785.644 86.73C789.684 86.73 792.967 89.9301 792.967 93.8901C792.967 97.8501 789.694 101.05 785.644 101.05C781.911 101.05 778.823 98.31 778.383 94.77C778.444 99.16 782.095 102.69 786.595 102.69C791.095 102.69 794.808 99.1002 794.808 94.6602ZM786.074 87.5098C789.704 87.5098 792.639 90.4097 792.588 93.9697C792.537 97.5297 789.622 100.2 786.166 100.25C782.525 100.3 779.559 97.4299 779.559 93.8799C779.559 93.8799 779.559 93.8601 779.559 93.8501C779.968 96.7901 782.76 98.99 785.971 98.54C788.446 98.19 790.43 96.1798 790.717 93.7598C791.116 90.4298 788.457 87.6001 785.133 87.6001C785.061 87.6001 784.99 87.6001 784.918 87.6001C785.296 87.5301 785.675 87.5 786.074 87.5V87.5098ZM789.53 93.1099C789.53 90.4999 787.373 88.3901 784.703 88.3901C782.034 88.3901 779.876 90.4999 779.876 93.1099C779.876 95.7199 782.034 97.8301 784.703 97.8301C787.373 97.8301 789.53 95.7199 789.53 93.1099Z" fill="#333333"/>
<path d="M1045.24 114.84H1048.31V104.84H1045.24V114.84ZM1045.24 102.84H1048.31V100.84H1045.24V102.84Z" fill="#333333"/>
<path d="M1049.33 118.84H1052.4V113.84H1052.49C1053.09 114.84 1054.06 115.42 1055.54 115.42C1058.25 115.42 1060.1 113.31 1060.1 109.97C1060.1 106.63 1058.31 104.52 1055.52 104.52C1054.08 104.52 1053.1 105.18 1052.41 105.84H1053.42V104.84H1049.33V118.84ZM1054.94 113.15C1053.27 113.15 1052.39 111.92 1052.39 110.05C1052.39 108.18 1053.09 106.73 1054.84 106.73C1056.58 106.73 1057.26 108.1 1057.26 110.05C1057.26 112 1056.36 113.15 1054.94 113.15Z" fill="#333333"/>
<path d="M1065.69 115.63C1068.43 115.63 1070.31 114.33 1070.31 112.17C1070.31 109.66 1068.28 109.15 1066.43 108.78C1064.87 108.47 1063.42 108.38 1063.42 107.46C1063.42 106.69 1064.16 106.27 1065.3 106.27C1066.54 106.27 1067.29 106.69 1067.42 107.84H1070.05C1069.84 105.68 1068.23 104.28 1065.34 104.28C1062.83 104.28 1060.86 105.39 1060.86 107.71C1060.86 110.03 1062.78 110.58 1064.76 110.96C1066.26 111.25 1067.65 111.36 1067.65 112.38C1067.65 113.13 1066.93 113.62 1065.64 113.62C1064.35 113.62 1063.43 113.08 1063.23 111.84H1060.53C1060.71 114.12 1062.49 115.63 1065.68 115.63H1065.69Z" fill="#333333"/>
<path d="M1081.04 114.84V104.84H1077.97V110.79C1077.97 112.16 1077.12 113.12 1075.73 113.12C1074.47 113.12 1073.88 112.46 1073.88 111.25V104.84H1070.81V111.63C1070.81 113.86 1072.21 115.31 1074.7 115.31C1076.27 115.31 1077.14 114.77 1077.91 113.84H1077.97V114.84H1081.04Z" fill="#333333"/>
<path d="M1082.06 114.84H1085.13V109.13C1085.34 107.76 1086.11 106.88 1087.24 106.88C1088.27 106.88 1088.86 107.48 1088.2 108.65V114.84H1092.29V109.13C1091.66 107.76 1092.38 106.88 1093.56 106.88C1094.59 106.88 1095.36 108.65 1095.36 108.65V114.84H1097.4V108.18C1097.4 108.18 1096.72 104.52 1094.5 104.52C1093.16 104.52 1092.05 105.2 1091.33 105.84H1091.29C1090.77 105.25 1089.7 104.52 1088.36 104.52C1086.9 104.52 1085.88 105.24 1085.29 106.84H1085.12V104.84H1082.05V114.84H1082.06Z" fill="#333333"/>
<path d="M1045.24 96.8398H1048.31V82.8398H1045.24V96.8398Z" fill="#333333"/>
<path d="M1054.73 97.7598C1058.01 97.7598 1060.25 95.3901 1060.25 92.3101C1060.25 89.2301 1058.01 86.8599 1054.73 86.8599C1051.46 86.8599 1049.22 89.2301 1049.22 92.3101C1049.22 95.3901 1051.46 97.7598 1054.73 97.7598ZM1054.73 95.6699C1053.01 95.6699 1052.07 94.3201 1052.07 92.3101C1052.07 90.3001 1053.01 88.9302 1054.73 88.9302C1056.46 88.9302 1057.4 90.3001 1057.4 92.3101C1057.4 94.3201 1056.44 95.6699 1054.73 95.6699Z" fill="#333333"/>
<path d="M1066.19 100.98C1067.75 100.98 1069.11 100.62 1069.99 99.8101C1070.77 99.1101 1071.82 96.6699 1071.82 96.6699V86.8398H1068.76V88.8398H1068.72C1068.11 88.0198 1067.2 87.5498 1065.95 87.5498C1063.43 87.5498 1061.64 89.4098 1061.64 92.3198C1061.64 95.2298 1063.82 96.98 1066.04 96.98C1067.3 96.98 1068.06 96.4898 1068.64 95.8398H1068.76V96.75C1068.49 98.16 1067.72 98.8999 1066.15 98.8999C1064.85 98.8999 1064.26 98.3998 1064.03 97.8398H1061.26C1061.55 99.7698 1063.32 100.97 1066.2 100.97L1066.19 100.98ZM1066.15 94.6401C1064.71 94.6401 1063.77 93.6101 1063.77 91.8701C1063.77 90.1301 1064.71 89.0601 1066.13 89.0601C1067.82 89.0601 1068.63 90.3501 1068.63 91.8501C1068.63 93.3501 1067.92 94.6401 1066.15 94.6401Z" fill="#333333"/>
<path d="M1078.04 97.7598C1081.31 97.7598 1083.55 95.3901 1083.55 92.3101C1083.55 89.2301 1081.31 86.8599 1078.04 86.8599C1074.77 86.8599 1072.53 89.2301 1072.53 92.3101C1072.53 95.3901 1074.77 97.7598 1078.04 97.7598ZM1078.04 95.6699C1076.31 95.6699 1075.37 94.3201 1075.37 92.3101C1075.37 90.3001 1076.31 88.9302 1078.04 88.9302C1079.77 88.9302 1080.71 90.3001 1080.71 92.3101C1080.71 94.3201 1079.74 95.6699 1078.04 95.6699Z" fill="#333333"/>
<path d="M1086.15 92.8398H1098.42V90.8398H1086.15V92.8398Z" fill="#333333"/>
<path d="M1098.99 103.06C1098.99 102.6 1099.37 102.22 1099.85 101.85H1101.55C1102.02 102.23 1102.41 102.6 1102.41 103.06C1102.41 103.52 1102.02 103.9 1101.55 103.85H1099.85C1099.37 103.9 1098.99 103.53 1098.99 103.06Z" fill="#333333"/>
<path fill-rule="evenodd" clip-rule="evenodd" d="M1016.81 79.8799C1028.11 79.8799 1037.27 88.8299 1037.27 99.8799C1037.27 110.93 1028.11 119.88 1016.81 119.88C1005.51 119.88 996.359 110.93 996.359 99.8799C996.359 88.8299 1005.51 79.8799 1016.81 79.8799ZM1015.59 81.3799C1013.25 81.6999 1011.04 83.5301 1009.31 86.6001C1008.81 87.4901 1008.36 88.4698 1007.96 89.5298C1010.3 88.9498 1012.88 88.6101 1015.59 88.5601V81.3701V81.3799ZM1006.72 90.02C1007.21 88.52 1007.8 87.1402 1008.5 85.9102C1009.36 84.3902 1010.37 83.0798 1011.52 82.0698C1005.3 83.8398 1000.4 88.63 998.589 94.71C999.622 93.59 1000.96 92.5998 1002.52 91.7598C1003.77 91.0798 1005.19 90.5 1006.72 90.02ZM1006.23 91.3901C1005.64 93.6801 1005.29 96.2001 1005.24 98.8501H997.883C998.21 96.5701 1000.08 94.4 1003.22 92.71C1004.13 92.22 1005.13 91.7801 1006.22 91.3901H1006.23ZM1006.23 98.8398C1006.29 95.9498 1006.72 93.2501 1007.41 90.8501C1009.86 90.1601 1012.63 89.7499 1015.59 89.6899V92.8101C1014.48 95.5701 1012.24 97.7598 1009.42 98.8398H1006.23ZM1005.25 100.84H997.893C998.221 103.12 1000.09 105.29 1003.23 106.98C1004.14 107.47 1005.14 107.91 1006.23 108.3C1005.64 106.01 1005.29 103.49 1005.24 100.84H1005.25ZM1007.41 108.83C1006.71 106.44 1006.29 103.73 1006.23 100.84H1009.42C1012.24 101.92 1014.48 104.11 1015.59 106.87V109.99C1012.64 109.93 1009.87 109.51 1007.41 108.83ZM1006.72 109.75C1005.19 109.27 1003.77 108.69 1002.52 108.01C1000.96 107.17 999.622 106.18 998.589 105.06C1000.4 111.14 1005.3 115.93 1011.52 117.7C1010.37 116.69 1009.36 115.38 1008.5 113.86C1007.8 112.63 1007.21 111.25 1006.72 109.75ZM1015.59 118.39C1013.25 118.07 1011.04 116.24 1009.31 113.17C1008.81 112.28 1008.36 111.3 1007.96 110.24C1010.3 110.82 1012.88 111.16 1015.59 111.21V118.4V118.39ZM1022.12 117.7C1023.27 116.69 1024.28 115.38 1025.14 113.86C1025.83 112.63 1026.43 111.25 1026.92 109.75C1028.45 109.27 1029.86 108.69 1031.12 108.01C1032.68 107.17 1034.01 106.18 1035.05 105.06C1033.24 111.14 1028.34 115.93 1022.12 117.7ZM1025.25 110.23C1024.86 111.29 1024.4 112.27 1023.9 113.16C1022.17 116.23 1019.95 118.06 1017.62 118.38V111.19C1020.32 111.14 1022.9 110.8 1025.25 110.22V110.23ZM1027.4 108.3C1028.48 107.92 1029.48 107.47 1030.39 106.98C1033.53 105.29 1035.41 103.12 1035.73 100.84H1028.38C1028.33 103.48 1027.98 106 1027.39 108.3H1027.4ZM1026.98 100.84C1026.92 103.73 1026.49 106.43 1025.79 108.83C1023.35 109.52 1020.58 109.93 1017.62 109.99V106.87C1018.73 104.11 1020.97 101.92 1023.79 100.84H1026.98ZM1028.39 98.8398H1035.74C1035.42 96.5598 1033.54 94.3897 1030.4 92.6997C1029.49 92.2097 1028.49 91.7699 1027.41 91.3799C1028 93.6699 1028.35 96.1898 1028.4 98.8398H1028.39ZM1025.79 90.8599C1026.5 93.2499 1026.92 95.9601 1026.98 98.8501H1023.79C1020.97 97.7701 1018.73 95.5798 1017.62 92.8198V89.6997C1020.58 89.7597 1023.34 90.1799 1025.79 90.8599ZM1026.91 90.02C1028.44 90.5 1029.85 91.0798 1031.11 91.7598C1032.66 92.5998 1034 93.59 1035.04 94.71C1033.23 88.63 1028.33 83.8398 1022.11 82.0698C1023.26 83.0798 1024.27 84.3902 1025.13 85.9102C1025.82 87.1402 1026.42 88.52 1026.91 90.02ZM1017.63 81.3799C1019.96 81.6999 1022.18 83.5301 1023.91 86.6001C1024.41 87.4901 1024.86 88.4698 1025.26 89.5298C1022.92 88.9498 1020.34 88.6101 1017.63 88.5601V81.3701V81.3799Z" fill="#333333"/>
<path fill-rule="evenodd" clip-rule="evenodd" d="M1163.77 81.8799V119.88H1153.55V81.8799H1163.77Z" fill="#333333"/>
<path fill-rule="evenodd" clip-rule="evenodd" d="M1168.89 81.8799H1190.64C1197.71 81.8799 1203.44 87.4799 1203.44 94.3799C1203.44 101.28 1197.72 106.88 1190.64 106.88H1179.11V119.88H1168.89V81.8799ZM1179.11 96.8799H1190.52C1191.71 96.8799 1192.84 96.14 1193.12 95C1193.53 93.35 1192.27 91.8799 1190.64 91.8799H1179.11V96.8799Z" fill="#333333"/>
<path fill-rule="evenodd" clip-rule="evenodd" d="M1242.52 81.8799V101.05C1242.52 105.34 1245.83 109.1 1250.2 109.36C1254.95 109.64 1258.88 105.9 1258.88 101.25V81.8701H1269.11V101.25C1269.11 111.26 1260.87 119.37 1250.7 119.37C1240.54 119.37 1232.29 111.26 1232.29 101.25V81.8701H1242.52V81.8799Z" fill="#333333"/>
<path fill-rule="evenodd" clip-rule="evenodd" d="M1207.75 99.6997C1207.75 89.8597 1215.77 81.8799 1225.65 81.8799H1228.2V91.8799H1225.66C1221.41 91.8799 1217.98 95.2401 1217.98 99.3901V100.79C1217.98 111.33 1209.4 119.88 1198.8 119.88H1197.52V109.88H1198.79C1203.74 109.88 1207.75 105.96 1207.75 101.12V99.6997Z" fill="#333333"/>
<path d="M1324.74 84.21C1324.74 86.28 1323.02 87.96 1320.89 87.96C1318.76 87.96 1317.04 86.28 1317.04 84.21C1317.04 82.14 1318.76 80.46 1320.89 80.46C1323.02 80.46 1324.74 82.14 1324.74 84.21Z" fill="#333333"/>
<path d="M1280.17 119.88L1285.06 99.9L1288.69 111.92C1290.86 119.09 1301.26 119.09 1303.42 111.92L1307.05 99.9L1311.94 119.88H1322.48L1314.8 88.46C1312.97 80.99 1302.19 80.7101 1299.96 88.0801L1296.06 100.96L1292.16 88.0699C1289.93 80.6899 1279.16 80.9698 1277.32 88.4498L1269.64 119.87H1280.18L1280.17 119.88Z" fill="#333333"/>
</svg>
