<svg width="17" height="15" viewBox="0 0 17 15" fill="none" xmlns="http://www.w3.org/2000/svg">
<path d="M15.1894 0H1.32166C0.687595 0 0.166016 0.469805 0.166016 1.0498V13.4502C0.166016 14.0302 0.677368 14.5 1.32166 14.5H15.1894C15.8235 14.5 16.345 14.0302 16.345 13.4502V1.0498C16.345 0.469805 15.8235 0 15.1894 0ZM5.05446 12.4302H2.66139V5.50977H5.0647V12.4302H5.05446ZM3.85793 4.56006C3.09091 4.56006 2.46708 4.00006 2.46708 3.31006C2.46708 2.62006 3.09091 2.06006 3.85793 2.06006C4.62495 2.06006 5.24878 2.62006 5.24878 3.31006C5.24878 4.00006 4.62495 4.56006 3.85793 4.56006ZM14.044 12.4302H11.6508V9.06006C11.6508 8.26006 11.6304 7.22998 10.4032 7.22998C9.17596 7.22998 8.96116 8.1 8.96116 9V12.4302H6.56809V5.50977H8.86915V6.4502H8.8998C9.21684 5.9102 10.0043 5.33984 11.1702 5.33984C13.594 5.33984 14.044 6.77014 14.044 8.64014V12.4399V12.4302Z" fill="#002C3D"/>
</svg>
