<svg width="49" height="12" viewBox="0 0 49 12" fill="none" xmlns="http://www.w3.org/2000/svg">
<path d="M2.42999 0.000488281H8.69998C10.04 0.000488281 11.13 1.09048 11.13 2.43048V8.7005C11.13 10.0405 10.04 11.1305 8.69998 11.1305H2.42999C1.08999 11.1305 0 10.0405 0 8.7005V2.43048C0 1.09048 1.07999 0.000488281 2.42999 0.000488281Z" fill="#006699"/>
<path d="M4.27975 7.83063V4.82062H3.27975V7.83063H4.27975ZM3.77975 4.41061C4.12975 4.41061 4.34973 4.18062 4.34973 3.89062C4.33973 3.59062 4.12973 3.37061 3.78973 3.37061C3.44973 3.37061 3.21973 3.59062 3.21973 3.89062C3.22973 4.18062 3.43975 4.41061 3.77975 4.41061ZM4.83975 7.83063H5.83975V6.1506C5.83975 6.0606 5.84975 5.97061 5.86975 5.91061C5.93975 5.73061 6.10973 5.54062 6.37973 5.54062C6.73973 5.54062 6.88974 5.82061 6.88974 6.22061V7.83063H7.88974V6.10062C7.88974 5.18062 7.39975 4.75061 6.73975 4.75061C6.19975 4.75061 5.95974 5.05062 5.82974 5.26062H5.83975V4.82062H4.83975C4.84975 5.10062 4.83975 7.83063 4.83975 7.83063Z" fill="white"/>
<path d="M15 8.95331V3.44872H15.8019V8.26916H18.8411V8.95331H15Z" fill="#006699"/>
<path d="M19.649 8.95331V4.78555H20.4188V8.95331H19.649ZM20.0339 3.98345C19.8842 3.98345 19.7586 3.93627 19.657 3.8419C19.5608 3.74754 19.5126 3.63221 19.5126 3.4959C19.5126 3.35435 19.5608 3.2364 19.657 3.14203C19.7586 3.04767 19.8842 3.00049 20.0339 3.00049C20.1836 3.00049 20.3065 3.04767 20.4027 3.14203C20.5043 3.23116 20.5551 3.34387 20.5551 3.48017C20.5551 3.62172 20.507 3.7423 20.4108 3.8419C20.3145 3.93627 20.1889 3.98345 20.0339 3.98345Z" fill="#006699"/>
<path d="M24.158 4.74623C24.5055 4.74623 24.8102 4.81176 25.0721 4.94282C25.3394 5.07388 25.5479 5.2731 25.6976 5.54046C25.8473 5.80783 25.9221 6.14597 25.9221 6.55488V8.95331H25.1523V6.64138C25.1523 6.23771 25.0507 5.93365 24.8476 5.72919C24.6498 5.52473 24.3691 5.42251 24.0056 5.42251C23.733 5.42251 23.4951 5.47493 23.2919 5.57978C23.0888 5.68463 22.9311 5.83928 22.8188 6.04374C22.7119 6.24819 22.6584 6.50245 22.6584 6.80652V8.95331H21.8886V4.78555H22.6264V5.91006L22.5061 5.61124C22.6451 5.33863 22.8589 5.12631 23.1476 4.97428C23.4363 4.82224 23.7731 4.74623 24.158 4.74623Z" fill="#006699"/>
<path d="M27.9723 7.94675L27.9883 6.97952L30.4341 4.78555H31.3643L29.4879 6.5942L29.0709 6.9402L27.9723 7.94675ZM27.3468 8.95331V3.11844H28.1166V8.95331H27.3468ZM30.5945 8.95331L28.9265 6.92447L29.4237 6.31897L31.5407 8.95331H30.5945Z" fill="#006699"/>
<path d="M34.0005 9.00049C33.5461 9.00049 33.1451 8.90875 32.7977 8.72526C32.4555 8.54177 32.1882 8.29013 31.9958 7.97034C31.8087 7.65055 31.7151 7.28358 31.7151 6.86943C31.7151 6.45527 31.806 6.0883 31.9878 5.76851C32.1749 5.44872 32.4288 5.1997 32.7495 5.02146C33.0757 4.83797 33.4418 4.74623 33.8481 4.74623C34.2598 4.74623 34.6233 4.83535 34.9387 5.01359C35.2541 5.19184 35.5 5.44348 35.6765 5.76851C35.8582 6.0883 35.9491 6.46314 35.9491 6.89302C35.9491 6.92447 35.9464 6.96117 35.9411 7.00311C35.9411 7.04505 35.9384 7.08437 35.9331 7.12107H32.3165V6.57847H35.5321L35.2194 6.7672C35.2247 6.49983 35.1686 6.2613 35.051 6.0516C34.9334 5.8419 34.7703 5.67939 34.5618 5.56405C34.3587 5.44348 34.1208 5.38319 33.8481 5.38319C33.5808 5.38319 33.3429 5.44348 33.1345 5.56405C32.926 5.67939 32.7629 5.84452 32.6453 6.05947C32.5277 6.26916 32.4689 6.51032 32.4689 6.78293V6.90875C32.4689 7.1866 32.533 7.43561 32.6613 7.6558C32.795 7.87074 32.9794 8.0385 33.2146 8.15907C33.4499 8.27965 33.7198 8.33994 34.0246 8.33994C34.2758 8.33994 34.503 8.298 34.7062 8.21412C34.9147 8.13024 35.0964 8.00442 35.2514 7.83666L35.6765 8.32421C35.484 8.54439 35.2434 8.71215 34.9548 8.82749C34.6714 8.94282 34.3533 9.00049 34.0005 9.00049Z" fill="#006699"/>
<path d="M38.7742 9.00049C38.3626 9.00049 37.9937 8.91137 37.6676 8.73312C37.3468 8.55488 37.0929 8.30586 36.9058 7.98607C36.7187 7.66628 36.6251 7.29407 36.6251 6.86943C36.6251 6.44479 36.7187 6.07519 36.9058 5.76065C37.0929 5.44086 37.3468 5.19184 37.6676 5.01359C37.9937 4.83535 38.3626 4.74623 38.7742 4.74623C39.1324 4.74623 39.4558 4.82487 39.7445 4.98214C40.0332 5.13941 40.263 5.37532 40.4341 5.68987C40.6105 6.00442 40.6987 6.3976 40.6987 6.86943C40.6987 7.34125 40.6132 7.73443 40.4421 8.04898C40.2764 8.36353 40.0492 8.60206 39.7605 8.76458C39.4718 8.92185 39.1431 9.00049 38.7742 9.00049ZM38.8383 8.33994C39.1056 8.33994 39.3462 8.27965 39.56 8.15907C39.7792 8.0385 39.9503 7.86812 40.0733 7.64793C40.2016 7.42251 40.2657 7.163 40.2657 6.86943C40.2657 6.57061 40.2016 6.31373 40.0733 6.09878C39.9503 5.8786 39.7792 5.70822 39.56 5.58764C39.3462 5.46707 39.1056 5.40678 38.8383 5.40678C38.5657 5.40678 38.3225 5.46707 38.1086 5.58764C37.8948 5.70822 37.7237 5.8786 37.5954 6.09878C37.4671 6.31373 37.403 6.57061 37.403 6.86943C37.403 7.163 37.4671 7.42251 37.5954 7.64793C37.7237 7.86812 37.8948 8.0385 38.1086 8.15907C38.3225 8.27965 38.5657 8.33994 38.8383 8.33994ZM40.2898 8.95331V7.8288L40.3379 6.86156L40.2577 5.89433V3.11844H41.0275V8.95331H40.2898Z" fill="#006699"/>
<path d="M42.5963 8.95331V3.44872H43.3982V8.95331H42.5963Z" fill="#006699"/>
<path d="M47.2358 4.74623C47.5833 4.74623 47.888 4.81176 48.15 4.94282C48.4173 5.07388 48.6258 5.2731 48.7755 5.54046C48.9252 5.80783 49 6.14597 49 6.55488V8.95331H48.2302V6.64138C48.2302 6.23771 48.1286 5.93365 47.9255 5.72919C47.7277 5.52473 47.447 5.42251 47.0835 5.42251C46.8108 5.42251 46.5729 5.47493 46.3698 5.57978C46.1667 5.68463 46.0089 5.83928 45.8967 6.04374C45.7898 6.24819 45.7363 6.50245 45.7363 6.80652V8.95331H44.9665V4.78555H45.7042V5.91006L45.5839 5.61124C45.7229 5.33863 45.9368 5.12631 46.2255 4.97428C46.5141 4.82224 46.8509 4.74623 47.2358 4.74623Z" fill="#006699"/>
</svg>
