<svg width="15" height="21" viewBox="0 0 15 21" fill="none" xmlns="http://www.w3.org/2000/svg">
<path d="M7.57487 10.4199C6.8999 10.4199 6.24535 10.1599 5.76469 9.68994C5.28402 9.21994 5.01814 8.57992 5.01814 7.91992C5.01814 7.25992 5.28402 6.6199 5.76469 6.1499C6.24535 5.6799 6.8999 5.41992 7.57487 5.41992C8.24985 5.41992 8.90427 5.6799 9.38494 6.1499C9.8656 6.6199 10.1316 7.25992 10.1316 7.91992C10.1316 8.24992 10.0702 8.56988 9.93723 8.87988C9.80428 9.17988 9.62016 9.45994 9.38494 9.68994C9.14972 9.91994 8.86343 10.1 8.55662 10.23C8.23958 10.36 7.91236 10.4199 7.57487 10.4199ZM7.57487 0.919922C5.67266 0.919922 3.85219 1.66021 2.51246 2.97021C1.17273 4.28021 0.416016 6.05992 0.416016 7.91992C0.416016 13.1699 7.57487 20.9199 7.57487 20.9199C7.57487 20.9199 14.7337 13.1699 14.7337 7.91992C14.7337 6.05992 13.9769 4.28021 12.6372 2.97021C11.2974 1.66021 9.47708 0.919922 7.57487 0.919922Z" fill="#002C3D"/>
</svg>
