<svg width="79" height="95" viewBox="0 0 79 95" fill="none" xmlns="http://www.w3.org/2000/svg">
<path d="M23.1006 33.79V94.1899H27.2118C31.5378 94.1899 35.0456 90.7598 35.0456 86.5298V36.04H60.4289C61.605 36.04 62.5459 36.2499 63.2311 36.6499C65.5526 37.8499 66.7185 39.7602 66.7185 42.4102V55.4102C66.7185 58.8202 63.8856 61.5898 60.3982 61.5898H36.8763V72.8198H64.1413C71.9956 72.8198 78.367 66.6002 78.367 58.9102V40.2798C78.367 31.5198 71.1058 24.4199 62.147 24.4199H32.673C27.3857 24.4199 23.1006 28.6098 23.1006 33.7798V33.79Z" fill="url(#paint0_linear_7619_19158)"/>
<path style="mix-blend-mode:multiply" d="M65.9931 58.29C64.9397 60.26 62.8227 61.6001 60.3989 61.6001H36.877V72.8301H64.1522C72.0065 72.8301 78.3779 66.5999 78.3779 58.9199V58.29H66.0033H65.9931Z" fill="url(#paint1_linear_7619_19158)"/>
<path d="M57.6368 17.3398C57.6368 15.7398 57.3504 13.9901 56.7777 12.1001C53.1676 4.2101 47.6246 0.259766 40.159 0.259766H18.1097C16.279 0.259766 14.5711 0.540098 12.9757 1.1001C7.24866 3.3501 3.51583 6.8699 1.77725 11.6499C1.01023 13.7399 0.631836 16.0699 0.631836 18.6299V26.3398C0.631836 26.8498 0.652292 27.3601 0.713653 27.8501C1.3375 33.6101 5.45895 38.5102 11.2372 40.1602L43.4622 49.3701C44.8122 49.7601 45.7531 50.9701 45.7531 52.3501V56.1201C45.7531 56.4601 45.5997 57.09 45.2929 58.02C44.1168 60.4 42.0305 61.5898 39.0647 61.5898C25.0129 61.5898 17.6085 61.5201 16.8415 61.3701C13.8041 60.2901 12.2803 58.1098 12.2803 54.8398C12.2803 52.8098 11.4315 50.9601 10.0815 49.6401C8.71111 48.3001 6.82936 47.48 4.75329 47.48H0.631836V55.8999C0.631836 57.4999 0.918187 59.2499 1.4909 61.1499C5.11123 69.0399 10.6542 72.9902 18.1097 72.9902H40.159C41.9793 72.9902 43.6975 72.7099 45.2929 72.1499C53.5153 68.9099 57.6368 63.0699 57.6368 54.6099V52.1499C57.6368 45.7899 53.3824 40.1899 47.1644 38.3599L14.7757 28.79C14.1825 28.62 13.6712 28.2798 13.2826 27.8398C12.8019 27.2898 12.5155 26.5801 12.5155 25.8101V17.1001C12.5155 16.7701 12.6689 16.1302 12.9757 15.2002C14.1518 12.8202 16.2279 11.6299 19.2039 11.6299C33.2558 11.6299 39.576 11.7001 40.3328 11.8501C44.7099 11.8501 45.7122 14.7501 45.9474 17.5801V17.8999C45.9474 21.4899 48.9234 24.4102 52.5949 24.4102H57.6266V17.3301L57.6368 17.3398Z" fill="white"/>
<path style="mix-blend-mode:multiply" d="M78.3672 46.2002V53L66.7085 53.3501V42.4102C66.7085 39.7702 65.5426 37.8499 63.2211 36.6499C62.5359 36.2499 61.595 36.04 60.4189 36.04H70.5129C74.8389 36.04 78.3468 39.4599 78.3468 43.6899V46.2002H78.3672Z" fill="url(#paint2_linear_7619_19158)"/>
<path style="mix-blend-mode:multiply" d="M12.5155 17.1201V25.8301C12.5155 26.5901 12.8019 27.2999 13.2826 27.8599H0.713653C0.652292 27.3599 0.631836 26.8601 0.631836 26.3501V20.2598C0.631836 15.5098 4.57943 11.6499 9.44745 11.6499H19.2039C16.2279 11.6499 14.1518 12.8402 12.9757 15.2202C12.6689 16.1502 12.5155 16.7901 12.5155 17.1201Z" fill="url(#paint3_linear_7619_19158)"/>
<path style="mix-blend-mode:multiply" d="M43.4728 49.3701C44.8228 49.7601 45.7636 50.9701 45.7636 52.3501V56.1201C45.7636 56.4601 45.6102 57.09 45.3034 58.02C44.1273 60.4 42.041 61.5898 39.0752 61.5898C38.4412 61.5898 37.8378 61.5898 37.2344 61.5898V72.9902H40.1695C41.9899 72.9902 43.708 72.7099 45.3034 72.1499C50.4476 70.1199 53.9759 67.08 55.9088 63.02C55.9599 62.92 56.0008 62.8099 56.0519 62.6899C57.8928 58.0499 55.1417 52.8702 50.2839 51.4102L43.4728 49.3599V49.3701Z" fill="url(#paint4_linear_7619_19158)"/>
<path d="M23.1113 43.5498V94.1899H27.2123C31.5383 94.1899 35.0462 90.7598 35.0462 86.5298V46.96L23.1113 43.5498Z" fill="url(#paint5_linear_7619_19158)"/>
<path style="mix-blend-mode:multiply" d="M35.0462 75.3501V46.96L23.1113 43.5498V75.3501H35.0462Z" fill="url(#paint6_linear_7619_19158)"/>
<path style="mix-blend-mode:multiply" d="M12.2901 54.8398C12.2901 52.8098 11.4413 50.9601 10.0913 49.6401C8.72089 48.3001 6.83913 47.48 4.76306 47.48H0.641602V52.4702C0.641602 52.9102 0.713188 53.7801 0.815458 54.8101C1.18363 58.5301 4.38466 61.3701 8.20953 61.3701H16.8615C13.8241 60.2901 12.3003 58.1098 12.3003 54.8398H12.2901Z" fill="url(#paint7_linear_7619_19158)"/>
<path style="mix-blend-mode:multiply" d="M45.9471 17.5898V17.9102C45.9471 21.5002 48.9231 24.4102 52.5946 24.4102H57.6262V21.1602C57.6262 16.0502 53.3923 11.8901 48.1663 11.8701C43.7176 11.8501 40.3223 11.8398 40.3223 11.8398C44.6994 11.8398 45.7016 14.7398 45.9368 17.5698L45.9471 17.5898Z" fill="url(#paint8_linear_7619_19158)"/>
<defs>
<linearGradient id="paint0_linear_7619_19158" x1="23.2438" y1="82.8599" x2="68.3016" y2="21.5685" gradientUnits="userSpaceOnUse">
<stop stop-color="#2A41BA"/>
<stop offset="0.35" stop-color="#1889BA"/>
<stop offset="0.65" stop-color="#0BC0BB"/>
<stop offset="0.88" stop-color="#03E2BB"/>
<stop offset="1" stop-color="#00EFBC"/>
</linearGradient>
<linearGradient id="paint1_linear_7619_19158" x1="64.1727" y1="68.3201" x2="50.8608" y2="62.4529" gradientUnits="userSpaceOnUse">
<stop stop-color="white" stop-opacity="0"/>
<stop offset="0.11" stop-color="#E0EAED" stop-opacity="0.15"/>
<stop offset="0.4" stop-color="#95B6C2" stop-opacity="0.51"/>
<stop offset="0.66" stop-color="#5E91A2" stop-opacity="0.78"/>
<stop offset="0.87" stop-color="#3D7A8F" stop-opacity="0.94"/>
<stop offset="1" stop-color="#317288"/>
</linearGradient>
<linearGradient id="paint2_linear_7619_19158" x1="70.5641" y1="53.7901" x2="69.1654" y2="36.135" gradientUnits="userSpaceOnUse">
<stop stop-color="white" stop-opacity="0"/>
<stop offset="0.11" stop-color="#E0EAED" stop-opacity="0.15"/>
<stop offset="0.4" stop-color="#95B6C2" stop-opacity="0.51"/>
<stop offset="0.66" stop-color="#5E91A2" stop-opacity="0.78"/>
<stop offset="0.87" stop-color="#3D7A8F" stop-opacity="0.94"/>
<stop offset="1" stop-color="#317288"/>
</linearGradient>
<linearGradient id="paint3_linear_7619_19158" x1="10.552" y1="7.29991" x2="9.30986" y2="24.8239" gradientUnits="userSpaceOnUse">
<stop stop-color="#B3B3B3"/>
<stop offset="0.12" stop-color="#B5B5B5" stop-opacity="0.97"/>
<stop offset="0.28" stop-color="#BBBBBB" stop-opacity="0.89"/>
<stop offset="0.44" stop-color="#C6C6C6" stop-opacity="0.74"/>
<stop offset="0.62" stop-color="#D5D5D5" stop-opacity="0.55"/>
<stop offset="0.81" stop-color="#E8E8E8" stop-opacity="0.3"/>
<stop offset="1" stop-color="white" stop-opacity="0"/>
</linearGradient>
<linearGradient id="paint4_linear_7619_19158" x1="47.2977" y1="45.0698" x2="46.8283" y2="65.6306" gradientUnits="userSpaceOnUse">
<stop stop-color="#B3B3B3"/>
<stop offset="0.12" stop-color="#B5B5B5" stop-opacity="0.97"/>
<stop offset="0.28" stop-color="#BBBBBB" stop-opacity="0.89"/>
<stop offset="0.44" stop-color="#C6C6C6" stop-opacity="0.74"/>
<stop offset="0.62" stop-color="#D5D5D5" stop-opacity="0.55"/>
<stop offset="0.81" stop-color="#E8E8E8" stop-opacity="0.3"/>
<stop offset="1" stop-color="white" stop-opacity="0"/>
</linearGradient>
<linearGradient id="paint5_linear_7619_19158" x1="17.4149" y1="84.2499" x2="56.5956" y2="20.6467" gradientUnits="userSpaceOnUse">
<stop stop-color="#2A41BA"/>
<stop offset="0.35" stop-color="#1889BA"/>
<stop offset="0.65" stop-color="#0BC0BB"/>
<stop offset="0.88" stop-color="#03E2BB"/>
<stop offset="1" stop-color="#00EFBC"/>
</linearGradient>
<linearGradient id="paint6_linear_7619_19158" x1="28.8589" y1="54.9899" x2="28.5166" y2="45.1493" gradientUnits="userSpaceOnUse">
<stop stop-color="white" stop-opacity="0"/>
<stop offset="0.11" stop-color="#E0EAED" stop-opacity="0.15"/>
<stop offset="0.4" stop-color="#95B6C2" stop-opacity="0.51"/>
<stop offset="0.66" stop-color="#5E91A2" stop-opacity="0.78"/>
<stop offset="0.87" stop-color="#3D7A8F" stop-opacity="0.94"/>
<stop offset="1" stop-color="#317288"/>
</linearGradient>
<linearGradient id="paint7_linear_7619_19158" x1="13.456" y1="67.4402" x2="5.87659" y2="52.3817" gradientUnits="userSpaceOnUse">
<stop stop-color="#B3B3B3"/>
<stop offset="0.12" stop-color="#B5B5B5" stop-opacity="0.97"/>
<stop offset="0.28" stop-color="#BBBBBB" stop-opacity="0.89"/>
<stop offset="0.44" stop-color="#C6C6C6" stop-opacity="0.74"/>
<stop offset="0.62" stop-color="#D5D5D5" stop-opacity="0.55"/>
<stop offset="0.81" stop-color="#E8E8E8" stop-opacity="0.3"/>
<stop offset="1" stop-color="white" stop-opacity="0"/>
</linearGradient>
<linearGradient id="paint8_linear_7619_19158" x1="44.8733" y1="8.58976" x2="52.1264" y2="20.8242" gradientUnits="userSpaceOnUse">
<stop stop-color="#B3B3B3"/>
<stop offset="0.12" stop-color="#B5B5B5" stop-opacity="0.97"/>
<stop offset="0.28" stop-color="#BBBBBB" stop-opacity="0.89"/>
<stop offset="0.44" stop-color="#C6C6C6" stop-opacity="0.74"/>
<stop offset="0.62" stop-color="#D5D5D5" stop-opacity="0.55"/>
<stop offset="0.81" stop-color="#E8E8E8" stop-opacity="0.3"/>
<stop offset="1" stop-color="white" stop-opacity="0"/>
</linearGradient>
</defs>
</svg>
