<svg width="206" height="43" viewBox="0 0 206 43" fill="none" xmlns="http://www.w3.org/2000/svg">
<path d="M29.3501 4.38035C26.6501 3.20035 23.4491 2.61035 19.7367 2.61035H0.632812V41.4104H14.0097V31.8804H19.7367C23.4389 31.8804 26.6399 31.2804 29.3501 30.0804C32.05 28.8804 34.1363 27.1904 35.6192 25.0104C37.0919 22.8304 37.8282 20.2404 37.8282 17.2504C37.8282 14.2604 37.0919 11.6604 35.6192 9.46035C34.1465 7.26035 32.0602 5.57035 29.3501 4.39035V4.38035ZM22.9991 20.5704C22.1094 21.3804 20.739 21.7904 18.8879 21.7904H14.0097V12.7004H18.8879C20.739 12.7004 22.1094 13.1104 22.9991 13.9204C23.8889 14.7304 24.3286 15.8404 24.3286 17.2504C24.3286 18.6604 23.8889 19.7604 22.9991 20.5804V20.5704Z" fill="#002C3D"/>
<path d="M71.6998 20.7897C70.401 19.9397 68.9693 19.2597 67.4148 18.7397C65.8603 18.2197 64.3058 17.8197 62.741 17.5197C61.1763 17.2197 59.7343 16.9497 58.4355 16.6897C57.1265 16.4297 56.0833 16.1097 55.2856 15.7197C54.4879 15.3297 54.0993 14.8097 54.0993 14.1397C54.0993 13.6997 54.2629 13.2897 54.58 12.9197C54.897 12.5497 55.439 12.2497 56.1958 12.0297C56.9526 11.8097 57.9753 11.6997 59.2537 11.6997C60.9922 11.6997 62.782 11.9397 64.6126 12.4197C66.4432 12.8997 68.3454 13.6197 70.309 14.5797L74.3384 5.09973C72.2623 3.94973 69.9204 3.09973 67.3125 2.54973C64.7046 1.99973 62.0558 1.71973 59.3764 1.71973C55.2958 1.71973 51.88 2.30973 49.1392 3.48973C46.3984 4.66973 44.3428 6.24973 42.9621 8.22973C41.5815 10.2097 40.8963 12.3997 40.8963 14.7997C40.8963 16.8697 41.2952 18.5997 42.0826 19.9797C42.8803 21.3697 43.9235 22.4797 45.2325 23.3297C46.5314 24.1797 47.9733 24.8597 49.5381 25.3797C51.1028 25.8997 52.6675 26.3097 54.2118 26.6297C55.756 26.9397 57.1878 27.2397 58.4969 27.5197C59.7957 27.7997 60.8491 28.1397 61.6468 28.5497C62.4445 28.9597 62.8331 29.5097 62.8331 30.2097C62.8331 30.6497 62.6592 31.0297 62.3217 31.3497C61.9843 31.6597 61.4422 31.8997 60.7059 32.0697C59.9696 32.2397 58.9571 32.3197 57.6685 32.3197C55.4799 32.3197 53.2198 31.9997 50.8983 31.3497C48.5767 30.6997 46.47 29.8397 44.578 28.7697L40.2725 38.2997C42.2769 39.4797 44.8235 40.4397 47.9222 41.1797C51.021 41.9197 54.2322 42.2897 57.556 42.2897C61.6774 42.2897 65.0932 41.6897 67.8136 40.4897C70.534 39.2897 72.5896 37.6997 73.96 35.7197C75.3406 33.7397 76.0258 31.5697 76.0258 29.2097C76.0258 27.1797 75.627 25.4797 74.8395 24.1097C74.0418 22.7397 72.9987 21.6297 71.6896 20.7797L71.6998 20.7897Z" fill="#002C3D"/>
<path d="M108.548 3.29973C106.226 1.91973 103.721 1.53973 101.051 2.17973C98.3719 2.81973 96.3265 4.26973 94.9152 6.53973L81.6406 27.8397C80.2293 30.1097 79.8406 32.5597 80.4952 35.1697C81.1395 37.7897 82.6326 39.7897 84.9541 41.1697C87.2756 42.5497 89.7812 42.9297 92.4505 42.2897C95.1299 41.6497 97.1753 40.1997 98.5866 37.9297L111.861 16.6297C113.273 14.3597 113.661 11.9097 113.007 9.29973C112.352 6.67973 110.869 4.67973 108.548 3.29973ZM107.024 13.7397L93.7493 35.0397C93.1357 36.0197 92.2664 36.6397 91.121 36.9097C89.9755 37.1797 88.9017 37.0197 87.9097 36.4197C86.9075 35.8197 86.2734 34.9697 85.9973 33.8497C85.7211 32.7297 85.8848 31.6797 86.4984 30.7097L99.773 9.40973C100.387 8.42973 101.256 7.80973 102.401 7.52973C103.547 7.25973 104.61 7.41973 105.613 8.01973C106.615 8.61973 107.249 9.46973 107.525 10.5897C107.801 11.7097 107.637 12.7597 107.024 13.7297V13.7397Z" fill="#002C3D"/>
<path d="M131.496 0H118.682V41.13H131.496V0Z" fill="#002C3D"/>
<path d="M159.548 11.0898L152.88 27.3598L146.632 11.0898H133.47L145.947 41.4098H159.211L171.688 11.0898H159.548Z" fill="#002C3D"/>
<path d="M203.464 17.58C201.899 15.25 199.813 13.5 197.225 12.31C194.638 11.13 191.815 10.54 188.747 10.54C185.423 10.54 182.427 11.21 179.758 12.54C177.088 13.87 174.992 15.72 173.468 18.08C171.934 20.45 171.167 23.16 171.167 26.23C171.167 29.3 171.944 31.91 173.489 34.3C175.043 36.68 177.221 38.56 180.034 39.93C182.846 41.3 186.149 41.98 189.923 41.98C193.022 41.98 195.681 41.56 197.89 40.73C200.099 39.9 201.96 38.69 203.474 37.1L196.785 30.5C195.763 31.24 194.791 31.79 193.871 32.16C192.94 32.53 191.764 32.71 190.332 32.71C188.901 32.71 187.745 32.48 186.763 32.02C185.781 31.56 185.024 30.87 184.493 29.94C184.35 29.69 184.237 29.44 184.135 29.16H205.642C205.683 28.72 205.714 28.23 205.755 27.69C205.795 27.15 205.816 26.66 205.816 26.22C205.816 22.78 205.028 19.9 203.464 17.57V17.58ZM186.119 19.76C186.896 19.3 187.806 19.07 188.87 19.07C189.933 19.07 190.833 19.3 191.59 19.76C192.347 20.22 192.94 20.87 193.38 21.7C193.605 22.12 193.769 22.6 193.871 23.11H183.859C183.961 22.59 184.114 22.12 184.329 21.7C184.748 20.87 185.342 20.22 186.119 19.76Z" fill="#002C3D"/>
</svg>
