<svg width="17" height="11" viewBox="0 0 17 11" fill="none" xmlns="http://www.w3.org/2000/svg">
<path d="M11.2729 5.37012L15.4148 1.83984V8.8501L11.2729 5.37012ZM5.9345 5.95996L7.3867 7.2002C7.6117 7.3802 7.9083 7.5 8.23556 7.5H8.25597C8.58323 7.5 8.87984 7.37994 9.11506 7.18994L10.5673 5.95996L14.9956 9.68018H1.50621L5.9345 5.95996ZM1.50621 1.00977H15.0058L8.52188 6.52002C8.45029 6.58002 8.35825 6.60986 8.26621 6.60986H8.24573C8.15369 6.60986 8.06165 6.58002 7.99006 6.52002L1.50621 1.00977ZM1.08687 1.8501L5.22883 5.37988L1.08687 8.8501V1.8501ZM15.6501 0.240234C15.4865 0.160234 15.3023 0.109863 15.0978 0.109863H1.42438C1.23007 0.109863 1.03577 0.160234 0.861911 0.240234C0.657373 0.340234 0.473288 0.489941 0.350564 0.689941C0.227841 0.879941 0.166477 1.10984 0.15625 1.33984V9.35986C0.15625 9.67986 0.289185 9.99022 0.524405 10.2202C0.759624 10.4502 1.07665 10.5801 1.41414 10.5801H15.0876C15.4148 10.5801 15.7421 10.4502 15.9773 10.2202C16.2125 9.99022 16.3455 9.67986 16.3455 9.35986V1.33984C16.3455 0.859844 16.0592 0.44 15.6501 0.25V0.240234Z" fill="#002C3D"/>
</svg>
