<svg width="17" height="14" viewBox="0 0 17 14" fill="none" xmlns="http://www.w3.org/2000/svg">
<path d="M16.345 9.31982C16.345 12.1398 15.353 13.9102 13.553 13.9102C11.9679 13.9102 11.1293 12.8399 9.58499 9.68994L8.78732 8.06006C8.57255 7.68006 8.41913 7.31998 8.2555 6.97998C7.74415 8.02998 7.0692 9.54004 7.0692 9.54004C5.37153 13.14 4.43064 13.8999 3.10114 13.8999C1.26029 13.8999 0.166016 12.1301 0.166016 9.39014C0.166016 4.97014 2.1807 0.799805 4.80902 0.799805C6.07716 0.799805 7.18169 1.56006 8.47029 3.56006C9.41116 2.01006 10.4441 0.799805 11.7736 0.799805C14.2792 0.799805 16.345 4.68006 16.345 9.31006V9.31982ZM7.42712 5.43018C6.34306 3.51018 5.63745 2.9502 4.78861 2.9502C3.22389 2.9502 1.91478 6.23018 1.91478 9.43018C1.91478 10.9302 2.38526 11.77 3.17274 11.77C3.96021 11.77 4.41019 11.1801 5.7806 8.56006C5.7806 8.56006 6.40443 7.35018 7.43736 5.43018H7.42712ZM13.594 11.77C14.4121 11.77 14.7803 10.92 14.7803 9.45996C14.7803 5.61996 13.4099 2.49023 11.6713 2.49023C10.8327 2.49023 10.127 3.2899 9.26795 4.8999C9.50317 5.3199 9.74865 5.7998 10.0043 6.2998L10.9554 8.22021C12.4383 11.1302 12.8167 11.7598 13.594 11.7598V11.77Z" fill="#002C3D"/>
</svg>
