<svg width="10" height="13" viewBox="0 0 10 13" fill="none" xmlns="http://www.w3.org/2000/svg">
<path d="M7.99283 1.08336C7.34514 0.689704 6.64825 0.583101 5.90218 0.763528C5.1561 0.943955 4.5822 1.36221 4.18867 2.0101L0.482901 8.09542C0.0893684 8.74332 -0.0172129 9.44041 0.163156 10.1867C0.343525 10.933 0.76167 11.5071 1.40936 11.9008C2.05705 12.2944 2.75392 12.4011 3.49999 12.2206C4.24607 12.0402 4.81996 11.6219 5.2135 10.974L8.91925 4.88874C9.31279 4.24084 9.41938 3.54373 9.23901 2.79741C9.05864 2.0511 8.64052 1.47702 7.99283 1.08336ZM7.56649 4.06041L3.86073 10.1457C3.68856 10.4246 3.44259 10.605 3.13105 10.6788C2.8113 10.7526 2.51615 10.7116 2.2374 10.5394C1.95865 10.3671 1.77828 10.1211 1.7045 9.80947C1.63071 9.48962 1.67171 9.19438 1.84388 8.91554L5.54964 2.83023C5.72181 2.55139 5.96776 2.37096 6.2793 2.29715C6.59905 2.22334 6.89422 2.26433 7.17297 2.43656C7.45173 2.60878 7.63209 2.85483 7.70588 3.16648C7.78786 3.48633 7.73866 3.78157 7.56649 4.06041Z" fill="#002C3D"/>
</svg>
